<svg width="43" height="44" viewBox="0 0 43 44" fill="none" xmlns="http://www.w3.org/2000/svg">
<path d="M21.9965 16.8322C28.8302 16.8322 28.839 27.1712 21.9965 27.1712C15.1645 27.1712 15.154 16.8322 21.9965 16.8322Z" fill="#2C2B30"/>
<path fill-rule="evenodd" clip-rule="evenodd" d="M23.1005 9.27141C22.3187 9.27877 21.4884 9.28659 20.607 9.28799V9.28449C10.268 9.29499 9.288 9.49099 9.288 21.9947C9.288 34.355 9.64324 34.7085 21.9982 34.7085C22.6217 34.7085 23.2345 34.7152 23.8335 34.7218C29.7448 34.7867 34.3172 34.8369 34.6175 28.2632C35.4866 9.15475 34.0743 9.16805 23.1005 9.27141ZM28.4137 13.7225C28.4137 12.6952 29.2467 11.8622 30.274 11.8622C31.3012 11.8622 32.1342 12.6952 32.1342 13.7225C32.1342 14.7497 31.3012 15.5827 30.274 15.5827C29.2467 15.5827 28.4137 14.7497 28.4137 13.7225ZM14.034 22.0017C14.034 17.604 17.5987 14.0375 21.9965 14.0375C26.3942 14.0375 29.9572 17.604 29.9572 22.0017C29.9572 26.3995 26.3942 29.9642 21.9965 29.9642C17.5987 29.9642 14.034 26.3995 14.034 22.0017Z" fill="#2C2B30"/>
<path fill-rule="evenodd" clip-rule="evenodd" d="M0.967182 17.2221C0.885626 9.76812 0.852469 6.73761 3.625 3.85777C6.53473 0.840749 9.71231 0.867283 20.8395 0.960196C23.1436 0.979436 25.7885 1.00152 28.8425 1.00002C33.7688 1.00861 34.0486 1.04923 34.9823 1.18477L35.0357 1.19252C39.304 1.80677 42.5433 4.83952 42.9562 10.1018C43.0122 10.8053 43.0122 33.1895 42.958 33.879C42.5695 38.8193 39.7275 41.6525 36.2345 42.5538C33.6182 43.231 10.4062 43.231 7.7865 42.5573C0.573932 40.6932 0.746895 33.6243 0.937369 25.8398C0.96845 24.5695 0.999998 23.2802 0.999998 21.9913C0.999998 20.2215 0.982712 18.6416 0.967182 17.2221ZM20.4636 6.48588C20.9702 6.48954 21.4807 6.49322 21.9932 6.49324C22.6029 6.49322 23.1925 6.48924 23.7629 6.48539C28.7169 6.45194 32.2268 6.42825 34.894 9.09549C37.5509 11.7508 37.532 15.2031 37.504 20.3193C37.5011 20.8611 37.498 21.4216 37.498 22.0017C37.498 22.5383 37.4999 23.055 37.5018 23.553C37.5158 27.2915 37.5259 29.9813 36.6842 32.1587C34.5558 37.6196 29.1463 37.5704 23.5931 37.52C23.0601 37.5151 22.5258 37.5103 21.993 37.5103C21.4826 37.5103 20.9737 37.514 20.4681 37.5177C14.7262 37.5595 9.41691 37.5983 7.3035 32.1587C6.46345 29.9962 6.47463 26.7804 6.48679 23.2808C6.48826 22.8581 6.48975 22.4313 6.48975 22.0017C6.48975 21.4729 6.48787 20.9626 6.48606 20.4699C6.47233 16.73 6.46232 14.0016 7.3035 11.843C9.42193 6.40615 14.691 6.4442 20.4636 6.48588Z" fill="#2C2B30"/>
</svg>
