<svg width="42" height="42" viewBox="0 0 42 42" fill="none" xmlns="http://www.w3.org/2000/svg">
<path d="M38.9709 0H3.02907C1.35608 0 0 1.35608 0 3.02907V38.9709C0 40.6439 1.35608 42 3.02907 42H38.9709C40.6439 42 42 40.6439 42 38.9709V3.02907C42 1.35608 40.6439 0 38.9709 0V0ZM14.8976 31.7461H9.78319V16.3591H14.8976V31.7461ZM12.3406 14.2581H12.3073C10.591 14.2581 9.48102 13.0766 9.48102 11.6001C9.48102 10.0902 10.625 8.94141 12.3745 8.94141C14.1241 8.94141 15.2008 10.0902 15.2341 11.6001C15.2341 13.0766 14.1241 14.2581 12.3406 14.2581ZM33.3393 31.7461H28.2255V23.5145C28.2255 21.4457 27.485 20.0349 25.6344 20.0349C24.2216 20.0349 23.3802 20.9865 23.0104 21.9052C22.8752 22.234 22.8422 22.6935 22.8422 23.1533V31.7461H17.728C17.728 31.7461 17.795 17.8027 17.728 16.3591H22.8422V18.5378C23.5218 17.4893 24.7379 15.998 27.4513 15.998C30.8162 15.998 33.3393 18.1972 33.3393 22.9232V31.7461Z" fill="#2C2B30"/>
</svg>
