<svg width="763" height="260" viewBox="0 0 763 260" fill="none" xmlns="http://www.w3.org/2000/svg">
<g clip-path="url(#clip0)">
<path d="M94.4503 105.763L45.5101 83.4599C43.8464 82.7017 43.1123 80.7383 43.8705 79.0746L49.362 67.0247C49.6882 66.3089 50.259 65.7323 50.9715 65.3988C61.2489 60.5903 73.0579 60.5282 83.371 65.2281C93.6841 69.9281 101.385 78.8812 104.498 89.7923C104.714 90.549 104.653 91.3578 104.327 92.0737L98.8356 104.124C98.0775 105.787 96.114 106.521 94.4503 105.763V105.763Z" fill="#FF5E82"/>
<path d="M94.4503 105.763C96.114 106.521 98.0775 105.787 98.8356 104.123L104.327 92.0736C104.653 91.3579 104.714 90.5488 104.498 89.7922C101.385 78.8811 93.6841 69.928 83.371 65.228L69.9802 94.6114L94.4503 105.763Z" fill="#B7457D"/>
<path d="M52.0698 133.912C51.7115 133.749 51.3821 133.522 51.0994 133.238L24.4578 106.545C23.4831 105.568 23.2163 104.089 23.7886 102.833L43.0087 60.6587C43.459 59.6706 44.3649 58.9663 45.4336 58.7735C46.5021 58.5806 47.5974 58.924 48.3644 59.6929L74.1289 85.508L110.515 88.0165C111.598 88.0907 112.576 88.6921 113.131 89.6252C113.687 90.5582 113.75 91.704 113.3 92.6921L94.0796 134.867C93.5073 136.122 92.216 136.892 90.8394 136.797L53.215 134.203C52.8156 134.175 52.4281 134.076 52.0698 133.912Z" fill="#A4E9FF"/>
<path d="M90.8394 136.797C92.216 136.892 93.5073 136.123 94.0796 134.867L113.3 92.6925C113.75 91.7044 113.687 90.5586 113.131 89.6256C112.576 88.6925 111.598 88.0911 110.515 88.0169L74.1289 85.5083L52.0698 133.913C52.4281 134.076 52.8156 134.175 53.215 134.203L90.8394 136.797Z" fill="#91BBFF"/>
<path d="M80.6253 71.2532C69.5513 66.2065 64.6479 53.0917 69.6946 42.0177C74.7413 30.9437 87.8561 26.0403 98.9301 31.087C110.004 36.1337 114.908 49.2485 109.861 60.3225C104.814 71.3966 91.6994 76.3 80.6253 71.2532Z" fill="#FFD6AA"/>
<path d="M109.861 60.3225C114.908 49.2484 110.004 36.1336 98.9301 31.0869L80.6253 71.2532C91.6994 76.2999 104.814 71.3965 109.861 60.3225Z" fill="#FAC68F"/>
<path d="M98.7944 123.191L95.7819 121.818C93.8441 120.935 92.9859 118.639 93.869 116.702L98.4452 106.66C99.3283 104.722 101.624 103.864 103.561 104.747L106.574 106.12C111.28 108.265 113.364 113.839 111.219 118.545C109.075 123.252 103.501 125.336 98.7944 123.191Z" fill="#FAC68F"/>
<path d="M32.5201 92.9876L29.5076 91.6147C24.8011 89.4699 22.7172 83.8961 24.862 79.1896C27.0069 74.4831 32.5806 72.3992 37.2871 74.5441L40.2996 75.9169C42.2374 76.8 43.0956 79.0953 42.2125 81.0332L37.6363 91.0747C36.7532 93.0125 34.4579 93.8707 32.5201 92.9876Z" fill="#FFD6AA"/>
</g>
<g clip-path="url(#clip1)">
<path d="M709.853 63.562L725.132 69.7351L719.731 83.1041L704.452 76.931L709.853 63.562Z" fill="#394D5C"/>
<path d="M671.544 61.6829C672.136 61.2699 672.661 60.7667 673.098 60.1924C673.466 59.7157 673.782 59.2029 674.043 58.661C674.134 58.474 674.22 58.2814 674.3 58.0833C675.578 54.9189 674.904 51.6627 672.795 50.8105L701.443 62.3848L714.56 29.9175L685.913 18.3432C688.022 19.1954 690.768 17.3215 692.047 14.157C692.279 13.5851 692.453 12.991 692.564 12.3836C692.633 12.0057 692.675 11.6236 692.689 11.2397C692.711 10.708 692.67 10.1753 692.565 9.65345C692.473 9.18446 692.31 8.73223 692.084 8.31103C692.012 8.18136 691.933 8.05546 691.847 7.93527C691.682 7.70212 691.486 7.49243 691.265 7.31131C691.047 7.13399 690.803 6.98996 690.543 6.88414C688.433 6.03173 685.686 7.90615 684.408 11.0706L666.66 54.9969C665.382 58.1613 666.056 61.4171 668.165 62.2695C669.318 62.6581 670.589 62.4371 671.544 61.6829V61.6829Z" fill="#FDBD40"/>
<path d="M719.19 18.4591L690.542 6.88477C692.652 7.73698 693.325 10.9928 692.047 14.1572C690.768 17.3216 688.022 19.196 685.913 18.3438L714.56 29.9181C716.67 30.7705 719.416 28.8961 720.695 25.7317C721.973 22.5673 721.299 19.3113 719.19 18.4591V18.4591Z" fill="#E97424"/>
<path d="M701.443 62.3849L672.795 50.8105C674.904 51.6628 675.578 54.919 674.3 58.0834C673.021 61.2479 670.275 63.1223 668.165 62.2701L696.813 73.8444C698.922 74.6968 701.669 72.8224 702.947 69.6579C704.226 66.4935 703.552 63.2371 701.443 62.3849Z" fill="#E97424"/>
<path d="M713.307 60.5137L724.766 65.1435L723.222 68.9633L711.763 64.3335L713.307 60.5137Z" fill="#AABECE"/>
<path d="M714.85 56.694L726.309 61.3238C727.364 61.7499 727.873 62.9507 727.447 64.0054C727.021 65.0605 725.82 65.5697 724.766 65.1436L713.307 60.5139C712.252 60.0877 711.742 58.8874 712.168 57.8323C712.594 56.7776 713.795 56.2679 714.85 56.694V56.694Z" fill="#394D5C"/>
<path d="M732.558 23.8604L736.378 25.4037L722.489 59.7804L718.669 58.2371L732.558 23.8604Z" fill="#5F79BA"/>
<path d="M720.598 53.4628C720.598 53.4628 717.94 49.0563 718.548 44.859L722.149 44.0923L719.147 40.6579C719.147 40.6579 722.483 29.787 732.172 24.8154L720.598 53.4628Z" fill="#87CEE9"/>
<path d="M724.418 55.0063C724.418 55.0063 729.392 53.6833 731.87 50.2419L729.812 47.1886L734.357 46.803C734.357 46.803 739.508 36.6657 735.992 26.3589L724.418 55.0063Z" fill="#87CEE9"/>
<path d="M708.04 35.0592L685.121 25.7997C684.594 25.5867 684.339 24.9864 684.552 24.4589C684.765 23.9313 685.366 23.6768 685.893 23.8897L708.811 33.1493C709.339 33.3624 709.593 33.9625 709.38 34.49C709.167 35.0176 708.567 35.2723 708.04 35.0592V35.0592Z" fill="#394D5C"/>
<path d="M704.181 44.6085L681.263 35.349C680.736 35.136 680.481 34.5357 680.694 34.0082C680.907 33.4806 681.508 33.2261 682.035 33.4391L704.953 42.6986C705.481 42.9117 705.735 43.5118 705.522 44.0394C705.309 44.5669 704.709 44.8216 704.181 44.6085V44.6085Z" fill="#394D5C"/>
<path d="M700.323 54.1573L677.405 44.8978C676.878 44.6848 676.623 44.0846 676.836 43.557C677.049 43.0295 677.65 42.7749 678.177 42.9879L701.095 52.2474C701.623 52.4605 701.877 53.0606 701.664 53.5882C701.451 54.1157 700.851 54.3705 700.323 54.1573V54.1573Z" fill="#394D5C"/>
<path d="M709.429 75.6096C708.902 75.3966 708.647 74.797 708.86 74.2697C708.86 74.2692 708.86 74.2688 708.86 74.2688L711.175 68.539C711.388 68.0119 711.988 67.7567 712.516 67.9698C713.043 68.1828 713.298 68.7831 713.085 69.3106L710.77 75.0404C710.557 75.5677 709.957 75.8224 709.43 75.6099C709.43 75.6098 709.43 75.6098 709.429 75.6096Z" fill="#AABECE"/>
<path d="M717.84 76.7862C717.313 76.5737 717.058 75.9737 717.271 75.4464C717.271 75.4464 717.271 75.4459 717.271 75.4454L718.428 72.5805L717.473 72.1947C716.946 71.9817 716.691 71.3815 716.904 70.8539C717.117 70.3268 717.718 70.0716 718.245 70.2848L720.155 71.0564C720.682 71.2694 720.937 71.869 720.725 72.3963L720.724 72.3972L719.181 76.2171C718.968 76.7444 718.368 76.9991 717.841 76.7866C717.841 76.7866 717.84 76.7864 717.84 76.7862V76.7862Z" fill="#AABECE"/>
<path d="M667.779 63.2254L696.427 74.7998C699.104 75.8815 702.388 73.7925 703.902 70.0446C705.231 66.756 704.691 63.4406 702.731 61.9463L715.181 31.13C717.629 31.4169 720.321 29.4069 721.649 26.1183C723.164 22.3705 722.253 18.5867 719.575 17.5049L690.928 5.93061C688.25 4.84883 684.967 6.93789 683.452 10.6857L665.705 54.612C664.191 58.3599 665.102 62.1437 667.779 63.2254ZM701.992 69.273C700.946 71.8609 698.751 73.5176 697.198 72.8903L671.922 62.6782C671.97 62.6481 672.013 62.6044 672.06 62.573C672.082 62.559 672.103 62.5483 672.124 62.5337L672.127 62.5315L672.135 62.5262L672.139 62.5245C672.213 62.4739 672.278 62.4055 672.351 62.3515C672.586 62.1822 672.811 61.9987 673.024 61.8026C673.037 61.7901 673.051 61.7814 673.064 61.769C673.145 61.692 673.215 61.5963 673.293 61.5151C673.501 61.3064 673.697 61.0873 673.882 60.8581C673.892 60.846 673.903 60.8364 673.913 60.8242L673.916 60.8184C674.14 60.5248 674.348 60.2179 674.537 59.9C674.596 59.8006 674.649 59.6952 674.706 59.5926C674.795 59.4323 674.89 59.2776 674.97 59.1114C675.07 58.9047 675.166 58.6894 675.254 58.4701C675.979 56.7873 676.163 54.9207 675.781 53.1288L701.056 63.3407C702.609 63.968 703.038 66.685 701.992 69.273ZM718.804 19.4148C720.356 20.0422 720.785 22.7587 719.739 25.3467C718.694 27.9346 716.498 29.5913 714.945 28.964L689.67 18.7519C691.19 17.7285 692.354 16.2578 693.002 14.5438C693.161 14.1402 693.295 13.7273 693.403 13.3067C693.439 13.1696 693.469 13.035 693.499 12.899C693.523 12.789 693.557 12.6793 693.577 12.5692C693.599 12.447 693.6 12.3275 693.617 12.2057C693.653 11.9529 693.684 11.7041 693.699 11.4571C693.702 11.3983 693.716 11.3373 693.718 11.2786L693.718 11.2791L693.718 11.2764C693.724 11.1203 693.712 10.9705 693.709 10.8173C693.705 10.5918 693.695 10.3711 693.673 10.1542C693.648 9.91369 693.62 9.67426 693.572 9.44623C693.568 9.42532 693.561 9.40718 693.556 9.38655C693.543 9.32707 693.542 9.26078 693.528 9.20231L718.804 19.4144L718.804 19.4148ZM685.362 11.4574C686.408 8.86944 688.603 7.21321 690.156 7.84053C690.333 7.91482 690.498 8.01735 690.643 8.14311C690.717 8.21205 690.785 8.28541 690.848 8.36346C690.923 8.44035 690.992 8.52286 691.055 8.60915C691.086 8.65473 691.115 8.70152 691.144 8.75061C691.211 8.87139 691.271 8.99639 691.322 9.12496C691.347 9.18505 691.378 9.23729 691.4 9.3005C691.429 9.38065 691.447 9.47187 691.471 9.55662C691.507 9.68459 691.543 9.81238 691.568 9.94928C691.588 10.0567 691.601 10.1691 691.614 10.2815C691.633 10.4359 691.646 10.5934 691.651 10.756C691.655 10.8493 691.658 10.9422 691.657 11.0379C691.655 11.1897 691.64 11.3472 691.627 11.5041C691.613 11.6757 691.597 11.8474 691.569 12.0215C691.539 12.2165 691.5 12.413 691.453 12.6113C691.432 12.6989 691.415 12.7865 691.39 12.8744C691.309 13.1791 691.208 13.479 691.092 13.7722C690.046 16.3601 687.85 18.0163 686.298 17.389C685.771 17.1761 685.17 17.4311 684.957 17.9582C684.744 18.4857 684.999 19.086 685.526 19.2989L713.219 30.4876L700.873 61.0449L673.181 49.8565C672.653 49.6433 672.053 49.8985 671.84 50.4256C671.627 50.9532 671.881 51.5532 672.409 51.7664C673.962 52.3937 674.39 55.1105 673.344 57.6985C673.235 57.9625 673.111 58.2202 672.974 58.4715C672.928 58.5585 672.882 58.6455 672.832 58.7303C672.717 58.9296 672.593 59.1181 672.465 59.2994C672.421 59.3621 672.38 59.4277 672.334 59.4881C672.249 59.6021 672.156 59.6998 672.066 59.8052C671.945 59.9461 671.826 60.0897 671.699 60.2153C671.627 60.2862 671.552 60.3445 671.479 60.4101C671.333 60.5442 671.179 60.6706 671.019 60.7877C670.874 60.8913 670.723 60.986 670.566 61.0711C670.503 61.1054 670.435 61.1378 670.365 61.1697C670.208 61.2442 670.045 61.3052 669.878 61.3525C669.828 61.3665 669.776 61.3763 669.725 61.3877C669.552 61.4263 669.375 61.4449 669.197 61.4426C669.166 61.4417 669.134 61.4369 669.103 61.4343C668.913 61.4239 668.727 61.3836 668.55 61.3158C666.998 60.6885 666.569 57.9715 667.614 55.3835L685.362 11.4572L685.362 11.4574Z" fill="black"/>
<path d="M735.275 47.2696C735.491 46.845 740.457 36.863 737.086 26.4007L737.333 25.7896C737.547 25.2627 737.292 24.6622 736.765 24.4492C736.765 24.4492 736.764 24.449 736.764 24.4488L732.944 22.9055C732.417 22.6921 731.817 22.9464 731.604 23.4735L731.604 23.4748L731.357 24.0859C721.665 29.27 718.303 39.9006 718.163 40.3553C718.058 40.6967 718.137 41.0674 718.372 41.3358L720.219 43.4491L718.333 43.8512C717.912 43.9411 717.59 44.2842 717.528 44.7112C716.985 48.4597 718.772 52.2477 719.459 53.5342L718.101 56.8966L715.236 55.7391C713.659 55.0974 711.861 55.8554 711.219 57.4317C710.725 58.6464 711.053 60.0401 712.037 60.9067L711.194 62.9925L710.239 62.6067C709.712 62.3933 709.112 62.648 708.899 63.1749L708.898 63.1758L703.497 76.5448C703.284 77.0717 703.538 77.6718 704.065 77.8852L704.066 77.8856L719.345 84.0587C719.872 84.2721 720.472 84.0174 720.686 83.4904C720.686 83.49 720.686 83.49 720.686 83.4895L726.087 70.121C726.3 69.5939 726.046 68.994 725.519 68.7806C725.518 68.7804 725.518 68.7802 725.518 68.7802L724.563 68.3944L725.406 66.3086C727.106 66.3868 728.548 65.0713 728.626 63.3708C728.686 62.0613 727.911 60.8571 726.695 60.3693L723.83 59.2119L725.188 55.849C726.576 55.4014 730.492 53.9168 732.706 50.8441C732.958 50.4937 732.965 50.0237 732.724 49.6655L731.646 48.0665L734.443 47.8295C734.799 47.7994 735.114 47.5877 735.275 47.2696V47.2696ZM719.498 45.7092L722.363 45.0997C722.92 44.9811 723.275 44.4335 723.156 43.8771C723.119 43.7054 723.04 43.546 722.924 43.4139L720.316 40.4306C721.032 38.4928 723.885 31.6843 730.056 27.3058L720.518 50.9134C719.818 49.2691 719.471 47.4961 719.498 45.7092ZM719.162 81.7634L705.793 76.362L710.423 64.9024L723.792 70.3038L719.162 81.7634ZM713.104 63.7646L713.876 61.8547L723.425 65.7128L722.653 67.6227L713.104 63.7646ZM726.492 63.6196C726.279 64.1465 725.679 64.4012 725.151 64.1887L713.692 59.559C713.165 59.3458 712.91 58.7457 713.123 58.2182C713.336 57.6906 713.936 57.4359 714.464 57.649L725.923 62.2788C726.45 62.4922 726.705 63.0923 726.492 63.6196ZM720.01 57.6685L733.127 25.2013L735.037 25.9729L721.92 58.4402L720.01 57.6685ZM733.674 45.8276L729.726 46.162C729.159 46.21 728.738 46.7083 728.786 47.2754C728.801 47.4504 728.86 47.6183 728.958 47.7643L730.596 50.1928C729.374 51.4974 727.893 52.5316 726.247 53.2282L735.785 29.6205C737.183 37.057 734.505 43.9364 733.674 45.8276Z" fill="black"/>
<path d="M685.122 25.7997L708.04 35.0592C708.567 35.2723 709.167 35.0176 709.38 34.49C709.594 33.9625 709.339 33.3624 708.811 33.1493L685.893 23.8897C685.366 23.6768 684.766 23.9313 684.552 24.4589C684.339 24.9864 684.594 25.5867 685.122 25.7997V25.7997Z" fill="black"/>
<path d="M681.263 35.349L704.182 44.6085C704.709 44.8216 705.309 44.5669 705.522 44.0394C705.735 43.5118 705.481 42.9117 704.953 42.6986L682.035 33.4391C681.508 33.2261 680.907 33.4806 680.694 34.0082C680.482 34.5359 680.736 35.136 681.263 35.349V35.349Z" fill="black"/>
<path d="M677.405 44.8978L700.323 54.1573C700.851 54.3705 701.451 54.1157 701.664 53.5882C701.877 53.0606 701.623 52.4605 701.095 52.2474L678.177 42.9879C677.65 42.7749 677.049 43.0295 676.836 43.557C676.623 44.0846 676.878 44.6848 677.405 44.8978V44.8978Z" fill="black"/>
<path d="M712.516 67.9698C711.989 67.7569 711.389 68.0111 711.175 68.538L711.175 68.539L708.86 74.2688C708.647 74.7959 708.902 75.3964 709.429 75.6096C709.956 75.8225 710.557 75.568 710.77 75.0404L713.085 69.3106C713.298 68.7837 713.044 68.1836 712.517 67.9702C712.516 67.97 712.516 67.97 712.516 67.9698Z" fill="black"/>
<path d="M720.155 71.0564L718.245 70.2848C717.718 70.0718 717.117 70.3268 716.904 70.8539C716.691 71.3815 716.946 71.9815 717.473 72.1947L718.428 72.5805L717.271 75.4454C717.058 75.973 717.312 76.5731 717.84 76.7862C718.368 76.9994 718.968 76.7447 719.181 76.2171L720.724 72.3972C720.938 71.8703 720.683 71.2702 720.156 71.0568C720.156 71.0568 720.155 71.0566 720.155 71.0564V71.0564Z" fill="black"/>
</g>
<g clip-path="url(#clip2)">
<path d="M491.194 148.638L558.13 103.489L570.692 122.112L503.755 167.262L491.194 148.638Z" fill="#FFDA45"/>
<path d="M550.666 108.523L558.13 103.489L570.692 122.112L563.228 127.147L550.666 108.523Z" fill="#FAC800"/>
<path d="M529.578 122.748L550.754 108.465L563.315 127.088L542.139 141.371L529.578 122.748Z" fill="#FFF5F5"/>
<path d="M619.661 164.82L553.239 209.621C547.807 213.286 540.433 211.852 536.769 206.42C533.105 200.988 534.538 193.614 539.97 189.95L606.392 145.148L619.661 164.82Z" fill="#F0F5FA"/>
<path d="M599.449 149.831L606.392 145.148L619.661 164.82L612.718 169.503L599.449 149.831Z" fill="#E4ECF2"/>
<path d="M624.01 163.78L554.117 210.923C547.976 215.066 539.61 213.439 535.467 207.298C531.325 201.157 532.951 192.79 539.092 188.648L608.985 141.504C609.704 141.019 610.68 141.209 611.165 141.928C611.65 142.647 611.46 143.623 610.741 144.108L540.848 191.251C536.143 194.425 534.897 200.836 538.071 205.542C541.245 210.247 547.655 211.494 552.361 208.32L622.254 161.176C622.973 160.691 623.949 160.881 624.434 161.6C624.919 162.319 624.729 163.295 624.01 163.78Z" fill="#6E9EFF"/>
<path d="M611.693 153.007L558.074 189.173C557.355 189.658 556.379 189.469 555.894 188.75C555.409 188.031 555.599 187.055 556.318 186.57L609.937 150.403L611.693 153.007Z" fill="#C5D7E6"/>
<path d="M616.116 159.564L576.734 186.128C576.015 186.613 575.039 186.423 574.554 185.704C574.069 184.985 574.259 184.009 574.977 183.524L614.36 156.961L616.116 159.564Z" fill="#C5D7E6"/>
<path d="M593.508 150.061L528.876 193.655C525.361 196.027 520.588 195.099 518.217 191.583C515.846 188.068 516.773 183.295 520.289 180.924L584.92 137.33L593.508 150.061L593.508 150.061Z" fill="#F0F5FA"/>
<path d="M577.977 142.013L584.92 137.33L593.508 150.061L586.565 154.744L577.977 142.013Z" fill="#E4ECF2"/>
<path d="M598.368 148.677L529.754 194.957C525.527 197.809 519.767 196.689 516.915 192.461C514.063 188.234 515.183 182.474 519.411 179.622L588.025 133.342C588.744 132.857 589.72 133.046 590.204 133.765C590.689 134.484 590.5 135.46 589.781 135.945L521.167 182.226C518.375 184.109 517.635 187.913 519.519 190.705C521.402 193.498 525.206 194.237 527.998 192.354L596.612 146.073C597.331 145.588 598.307 145.778 598.792 146.497C599.277 147.216 599.087 148.192 598.368 148.677Z" fill="#74D84B"/>
<path d="M590.274 145.268L571.994 157.598C571.275 158.083 570.299 157.893 569.814 157.174C569.329 156.455 569.519 155.479 570.238 154.994L588.518 142.664L590.274 145.268Z" fill="#C5D7E6"/>
<path d="M500.972 119.572L552.848 84.5807C556.753 81.9465 562.055 82.9771 564.689 86.8824C567.323 90.7878 566.292 96.0891 562.387 98.7233L510.511 133.714L500.972 119.572Z" fill="#F0F5FA"/>
<path d="M552.848 84.5806L545.905 89.2637C549.81 86.6294 555.112 87.66 557.746 91.5653C560.38 95.4708 559.349 100.772 555.444 103.406L562.387 98.7231C566.293 96.0889 567.323 90.7875 564.689 86.8822C562.055 82.9769 556.753 81.9463 552.848 84.5806Z" fill="#E4ECF2"/>
<path d="M563.265 100.025L506.965 138C506.246 138.485 505.27 138.295 504.785 137.576C504.3 136.857 504.49 135.881 505.209 135.396L561.509 97.4214C564.691 95.2756 565.533 90.9417 563.387 87.7604C561.241 84.5791 556.907 83.7365 553.726 85.8823L497.426 123.857C496.707 124.342 495.731 124.153 495.246 123.434C494.761 122.715 494.951 121.739 495.67 121.254L551.97 83.2787C556.587 80.1646 562.877 81.3872 565.991 86.0041C569.105 90.621 567.882 96.9109 563.265 100.025Z" fill="#FC435F"/>
<path d="M511.289 162.18L588.686 109.975L599.312 125.728L521.915 177.934L511.289 162.18Z" fill="#6E9EFF"/>
<path d="M565.051 125.917L588.686 109.975L599.312 125.728L575.677 141.67L565.051 125.917Z" fill="#BF6930"/>
<path d="M581.743 114.658L588.686 109.975L599.312 125.728L592.369 130.412L581.743 114.658Z" fill="#AD5F2C"/>
<path d="M544.985 154.7L527.278 166.643C525.841 167.613 523.888 167.234 522.919 165.796C521.949 164.358 522.328 162.406 523.766 161.436L541.472 149.493C542.91 148.523 544.862 148.903 545.832 150.341C546.802 151.779 546.423 153.731 544.985 154.7Z" fill="#FFF5F5"/>
<path d="M587.356 124.227L578.879 129.944C578.16 130.429 577.184 130.24 576.699 129.521C576.214 128.802 576.404 127.826 577.123 127.341L585.599 121.623C586.318 121.138 587.294 121.328 587.779 122.047C588.264 122.766 588.075 123.742 587.356 124.227V124.227Z" fill="#FFF5F5"/>
<path d="M553.161 124.64C552.442 125.125 551.466 124.935 550.981 124.216L548.797 120.977C548.312 120.258 548.501 119.282 549.22 118.797C549.939 118.312 550.915 118.501 551.4 119.22L553.585 122.46C554.07 123.179 553.88 124.155 553.161 124.64Z" fill="#677A8F"/>
<path d="M548.417 127.839C547.698 128.324 546.722 128.135 546.237 127.416L544.052 124.176C543.567 123.457 543.757 122.481 544.476 121.996C545.195 121.511 546.171 121.701 546.656 122.42L548.841 125.659C549.326 126.378 549.136 127.354 548.417 127.839Z" fill="#677A8F"/>
<path d="M543.673 131.04C542.954 131.524 541.978 131.335 541.493 130.616L539.308 127.377C538.823 126.658 539.013 125.682 539.732 125.197C540.451 124.712 541.427 124.901 541.912 125.62L544.096 128.86C544.581 129.579 544.392 130.555 543.673 131.04Z" fill="#677A8F"/>
<path d="M504.826 125.366L534.532 105.329C535.251 104.844 536.227 105.034 536.712 105.753C537.196 106.472 537.007 107.448 536.288 107.933L506.582 127.969L504.826 125.366Z" fill="#C5D7E6"/>
</g>
<g clip-path="url(#clip3)">
<path d="M254.608 117.604L251.117 119.579L277.027 165.374C277.027 165.374 273.106 169.397 260.125 172.33C251.373 174.306 247.318 180.19 245.604 183.814C245.24 184.584 244.919 185.699 244.177 186.119L244.131 186.145L244.084 186.171C243.342 186.591 242.222 186.292 241.373 186.207C237.385 185.81 230.253 186.256 224.051 192.74C214.852 202.356 209.384 203.645 209.384 203.645L183.474 157.849L179.983 159.825C179.045 160.356 178.715 161.546 179.245 162.484L206.259 210.23C206.79 211.168 207.98 211.498 208.918 210.968L239.425 193.708C240.325 193.199 241.446 193.229 242.291 193.825C244.113 195.111 246.586 195.315 248.656 194.144C250.726 192.973 251.825 190.748 251.661 188.524C251.585 187.492 252.137 186.516 253.037 186.007L283.544 168.747C284.481 168.216 284.812 167.026 284.281 166.088L257.267 118.341C256.737 117.403 255.546 117.073 254.608 117.604V117.604Z" fill="#F87C68"/>
<path d="M214.946 205.316L213.035 201.938C210.667 203.342 209.384 203.645 209.384 203.645L183.474 157.849L179.983 159.825C179.045 160.356 178.715 161.546 179.245 162.484L206.259 210.23C206.79 211.168 207.98 211.499 208.918 210.968L217.605 206.053C216.667 206.584 215.476 206.254 214.946 205.316Z" fill="#EC625E"/>
<path d="M248.003 116.516C245.844 117.978 240.977 120.645 232.027 122.666C219.046 125.598 216.396 137.125 216.396 137.125L216.086 139.399L241.967 185.144L244.096 186.083L244.131 186.145L244.177 186.119C244.919 185.699 245.506 185.056 245.871 184.285C247.584 180.661 251.639 174.778 260.392 172.801C273.373 169.869 277.764 165.579 277.764 165.579L250.314 117.061C249.85 116.24 248.785 115.988 248.003 116.516V116.516Z" fill="#DBEDFF"/>
<path d="M219.159 131.262C217.023 134.399 216.396 137.125 216.396 137.125L216.086 139.399L241.967 185.144L244.096 186.083L244.131 186.145L244.177 186.119C244.919 185.699 245.506 185.055 245.87 184.285C246.278 183.423 246.82 182.432 247.525 181.397L219.159 131.262Z" fill="#B5DCFF"/>
<path d="M249.29 128.028C249.26 128.045 249.229 128.061 249.197 128.076C245.754 129.69 241.624 131.047 236.921 132.109C232.136 133.189 228.286 135.612 225.476 139.309C225.024 139.904 224.175 140.019 223.58 139.567C222.985 139.115 222.87 138.267 223.322 137.672C226.528 133.454 230.903 130.695 236.325 129.47C240.838 128.451 244.782 127.158 248.049 125.627C248.725 125.31 249.531 125.601 249.848 126.278C250.15 126.922 249.9 127.683 249.29 128.028V128.028Z" fill="#8BCAFF"/>
<path d="M252.121 133.032C252.091 133.049 252.06 133.065 252.028 133.08C248.586 134.693 244.456 136.05 239.752 137.112C234.967 138.193 231.117 140.616 228.307 144.313C227.855 144.907 227.006 145.023 226.411 144.571C225.816 144.119 225.701 143.27 226.153 142.675C229.359 138.458 233.734 135.698 239.155 134.474C243.67 133.454 247.614 132.161 250.879 130.63C251.556 130.313 252.361 130.604 252.678 131.281C252.981 131.925 252.731 132.687 252.121 133.032V133.032Z" fill="#8BCAFF"/>
<path d="M266.277 158.052C266.247 158.069 266.216 158.086 266.184 158.1C262.741 159.714 258.611 161.071 253.907 162.133C249.123 163.214 245.273 165.636 242.463 169.333C242.011 169.928 241.162 170.043 240.567 169.592C239.972 169.139 239.857 168.291 240.309 167.696C243.515 163.478 247.889 160.719 253.311 159.494C257.824 158.475 261.769 157.182 265.035 155.651C265.712 155.334 266.517 155.625 266.834 156.302C267.137 156.946 266.886 157.707 266.277 158.052V158.052Z" fill="#8BCAFF"/>
<path d="M269.108 163.056C269.078 163.073 269.047 163.089 269.015 163.104C265.572 164.718 261.442 166.074 256.739 167.137C251.954 168.217 248.104 170.64 245.294 174.337C244.842 174.932 243.993 175.047 243.398 174.595C242.803 174.143 242.688 173.294 243.14 172.7C246.346 168.482 250.721 165.723 256.143 164.498C260.656 163.479 264.6 162.185 267.867 160.655C268.543 160.337 269.349 160.629 269.666 161.305C269.968 161.95 269.718 162.711 269.108 163.056V163.056Z" fill="#8BCAFF"/>
<path d="M254.952 138.036C254.922 138.053 254.891 138.069 254.859 138.084C251.416 139.698 247.286 141.055 242.583 142.117C237.799 143.198 233.948 145.62 231.138 149.317C230.686 149.912 229.837 150.027 229.242 149.575C228.648 149.123 228.532 148.275 228.984 147.68C232.19 143.462 236.565 140.703 241.987 139.478C246.5 138.459 250.444 137.166 253.711 135.635C254.387 135.318 255.193 135.609 255.51 136.286C255.812 136.93 255.562 137.691 254.952 138.036V138.036Z" fill="#8BCAFF"/>
<path d="M260.615 148.044C260.585 148.061 260.553 148.077 260.522 148.092C257.08 149.705 252.95 151.062 248.245 152.125C243.461 153.205 239.611 155.628 236.801 159.325C236.349 159.92 235.5 160.035 234.905 159.583C234.31 159.131 234.195 158.282 234.647 157.687C237.853 153.47 242.227 150.711 247.649 149.486C252.163 148.466 256.108 147.173 259.373 145.642C260.05 145.325 260.855 145.617 261.172 146.293C261.474 146.937 261.224 147.699 260.615 148.044V148.044Z" fill="#8BCAFF"/>
<path d="M257.784 143.04C257.753 143.057 257.722 143.073 257.69 143.088C254.248 144.702 250.117 146.058 245.414 147.121C240.63 148.201 236.78 150.624 233.969 154.321C233.517 154.916 232.669 155.031 232.074 154.579C231.479 154.127 231.363 153.278 231.815 152.684C235.021 148.466 239.396 145.707 244.818 144.482C249.331 143.463 253.276 142.169 256.542 140.639C257.218 140.322 258.024 140.613 258.341 141.29C258.643 141.934 258.393 142.695 257.784 143.04V143.04Z" fill="#8BCAFF"/>
<path d="M263.446 153.048C263.416 153.065 263.384 153.081 263.353 153.096C259.91 154.71 255.78 156.066 251.076 157.129C246.292 158.209 242.442 160.632 239.632 164.329C239.18 164.924 238.331 165.039 237.736 164.587C237.141 164.135 237.026 163.286 237.478 162.692C240.684 158.474 245.058 155.714 250.48 154.49C254.994 153.47 258.938 152.177 262.204 150.646C262.881 150.329 263.686 150.621 264.003 151.297C264.305 151.941 264.055 152.703 263.446 153.048V153.048Z" fill="#8BCAFF"/>
<path d="M182.452 153.603C184.817 152.504 189.61 149.706 195.953 143.076C205.151 133.459 216.396 137.124 216.396 137.124L244.131 186.145L244.084 186.171C243.342 186.591 242.488 186.763 241.64 186.678C237.651 186.281 230.52 186.727 224.317 193.21C215.118 202.827 209.179 204.382 209.179 204.382L181.729 155.864C181.265 155.043 181.597 154 182.452 153.603V153.603Z" fill="#DBEDFF"/>
<path d="M186.112 151.524C184.579 152.534 183.343 153.189 182.452 153.603C181.597 154.001 181.265 155.044 181.729 155.864L209.18 204.382C209.18 204.382 211.112 203.874 214.477 201.657L186.112 151.524Z" fill="#B5DCFF"/>
<path d="M191.657 160.635C191.048 160.98 190.266 160.802 189.87 160.211C189.453 159.591 189.618 158.75 190.238 158.334C193.233 156.323 196.372 153.607 199.571 150.264C203.413 146.247 208.032 143.918 213.298 143.343C214.041 143.262 214.708 143.798 214.79 144.541C214.871 145.283 214.335 145.951 213.592 146.032C208.976 146.537 204.916 148.59 201.526 152.134C198.193 155.618 194.903 158.46 191.747 160.58C191.718 160.6 191.687 160.618 191.657 160.635Z" fill="#8BCAFF"/>
<path d="M194.488 165.639C193.879 165.984 193.097 165.806 192.7 165.215C192.284 164.595 192.449 163.754 193.069 163.338C196.063 161.327 199.203 158.612 202.402 155.268C206.244 151.251 210.863 148.922 216.129 148.347C216.872 148.265 217.539 148.802 217.621 149.544C217.702 150.287 217.166 150.955 216.423 151.036C211.807 151.541 207.747 153.594 204.357 157.138C201.023 160.623 197.733 163.464 194.577 165.584C194.548 165.604 194.518 165.622 194.488 165.639V165.639Z" fill="#8BCAFF"/>
<path d="M208.644 190.659C208.035 191.004 207.253 190.826 206.856 190.236C206.44 189.615 206.605 188.775 207.225 188.358C210.22 186.347 213.359 183.632 216.558 180.288C220.4 176.272 225.018 173.943 230.285 173.367C231.027 173.286 231.695 173.822 231.776 174.565C231.858 175.308 231.321 175.976 230.579 176.057C225.963 176.561 221.903 178.614 218.512 182.158C215.18 185.643 211.89 188.484 208.733 190.604C208.704 190.624 208.674 190.642 208.644 190.659Z" fill="#8BCAFF"/>
<path d="M211.475 195.663C210.866 196.008 210.084 195.83 209.687 195.24C209.271 194.619 209.436 193.779 210.056 193.362C213.05 191.351 216.19 188.636 219.389 185.292C223.231 181.275 227.85 178.947 233.116 178.371C233.858 178.29 234.526 178.826 234.608 179.569C234.689 180.312 234.153 180.979 233.41 181.061C228.794 181.565 224.734 183.618 221.344 187.162C218.011 190.647 214.721 193.488 211.564 195.608C211.535 195.628 211.505 195.646 211.475 195.663V195.663Z" fill="#8BCAFF"/>
<path d="M197.32 170.643C196.71 170.988 195.929 170.81 195.532 170.219C195.115 169.599 195.28 168.759 195.9 168.342C198.895 166.331 202.035 163.616 205.233 160.272C209.075 156.256 213.694 153.927 218.96 153.351C219.703 153.27 220.371 153.806 220.452 154.549C220.533 155.292 219.997 155.959 219.254 156.041C214.638 156.545 210.578 158.598 207.188 162.142C203.855 165.626 200.565 168.468 197.409 170.588C197.38 170.608 197.35 170.626 197.32 170.643V170.643Z" fill="#8BCAFF"/>
<path d="M202.982 180.651C202.372 180.996 201.591 180.818 201.194 180.227C200.777 179.607 200.942 178.767 201.563 178.35C204.557 176.339 207.697 173.624 210.895 170.28C214.738 166.263 219.356 163.935 224.622 163.359C225.365 163.278 226.033 163.814 226.114 164.557C226.196 165.3 225.659 165.967 224.916 166.049C220.3 166.553 216.241 168.606 212.85 172.15C209.517 175.635 206.226 178.477 203.071 180.596C203.042 180.616 203.012 180.634 202.982 180.651Z" fill="#8BCAFF"/>
<path d="M200.151 175.647C199.541 175.992 198.76 175.814 198.363 175.223C197.946 174.603 198.111 173.763 198.732 173.346C201.726 171.335 204.866 168.62 208.064 165.276C211.907 161.259 216.525 158.931 221.791 158.355C222.534 158.274 223.202 158.81 223.283 159.553C223.364 160.296 222.828 160.963 222.085 161.045C217.469 161.549 213.41 163.602 210.019 167.146C206.686 170.631 203.396 173.472 200.24 175.592C200.211 175.612 200.181 175.63 200.151 175.647V175.647Z" fill="#8BCAFF"/>
<path d="M205.813 185.655C205.204 186 204.422 185.822 204.025 185.231C203.609 184.611 203.774 183.77 204.394 183.354C207.388 181.343 210.528 178.628 213.727 175.284C217.569 171.267 222.187 168.938 227.454 168.363C228.196 168.282 228.864 168.818 228.945 169.561C229.027 170.303 228.491 170.971 227.748 171.052C223.132 171.557 219.072 173.61 215.681 177.154C212.348 180.639 209.058 183.48 205.902 185.6C205.873 185.62 205.843 185.638 205.813 185.655V185.655Z" fill="#8BCAFF"/>
</g>
<g clip-path="url(#clip4)">
<path d="M349.53 105.522L317.672 71.3454C317.364 71.0156 317.079 70.6657 316.817 70.2982C313.875 65.9886 314.562 60.1692 318.428 56.6636L330.041 45.8308L362.732 96.9482L349.53 105.522Z" fill="#35495E"/>
<path d="M398.915 71.0482C399.301 72.1402 399.005 73.3569 398.161 74.1498L363.98 106.028C361.822 108.033 358.906 109.012 355.976 108.714C353.046 108.417 350.386 106.872 348.676 104.475C345.863 100.354 346.362 94.8187 349.868 91.2686L362.654 87.283L362.642 87.291L354.027 95.3408C353.065 96.2368 352.555 97.5169 352.638 98.8289C352.722 100.141 353.388 101.347 354.456 102.114C356.223 103.319 358.593 103.118 360.132 101.632L386.255 77.267L398.915 71.0482Z" fill="#2C3E50"/>
<path d="M362.642 87.2912L354.027 95.3409C353.065 96.237 352.555 97.5171 352.639 98.8291C352.722 100.141 353.388 101.347 354.456 102.114C356.223 103.319 358.594 103.118 360.132 101.632L386.255 77.2672L362.642 87.2912Z" fill="#F9EAB0"/>
<path d="M343.09 76.553L324.832 33.5378C324.214 32.0529 324.903 30.3471 326.379 29.7085L369.071 11.5871C373.849 9.48038 379.449 11.2203 382.192 15.6639C382.419 16.0509 382.622 16.4522 382.798 16.8653L401.056 59.8805L343.09 76.553Z" fill="#E64C3C"/>
<path d="M364.979 22.8183C364.907 22.8649 364.831 22.9053 364.752 22.9391L333.835 36.0628C333.109 36.3149 332.311 35.9608 332.011 35.2528C331.712 34.5449 332.012 33.7257 332.698 33.3794L363.611 20.2504C364.307 19.9538 365.115 20.239 365.472 20.9074C365.828 21.5758 365.614 22.4055 364.979 22.8183Z" fill="#3F5C6C"/>
<path d="M362.451 31.8178C362.38 31.8646 362.304 31.9046 362.224 31.9374L342.064 40.5006C341.328 40.7913 340.494 40.4419 340.184 39.713C339.875 38.9841 340.202 38.1413 340.923 37.8132L361.084 29.2479C361.782 28.9456 362.596 29.2303 362.953 29.902C363.311 30.5738 363.092 31.4074 362.451 31.8178V31.8178Z" fill="#3F5C6C"/>
<path d="M368.561 35.6276L340.321 47.604C339.579 47.919 339.232 48.7764 339.547 49.519L345.25 62.9663C345.565 63.709 346.422 64.0557 347.165 63.7407L375.404 51.7643C376.147 51.4493 376.494 50.5919 376.179 49.8493L370.476 36.402C370.161 35.6593 369.303 35.3126 368.561 35.6276Z" fill="#ECF0F1"/>
<path d="M382.185 15.6595C382.416 16.047 382.62 16.45 382.795 16.8658L401.046 59.8785L389.735 63.1325L375.055 28.5431L371.597 20.3763L368.053 12.0221L369.075 11.5848C373.849 9.48436 379.442 11.2225 382.185 15.6595V15.6595Z" fill="#C03A2B"/>
<path d="M387.326 54.5978L344.635 72.7277C344.478 72.7953 344.326 72.8761 344.182 72.9693C342.915 73.7969 342.49 75.4555 343.203 76.7906C343.916 78.1257 345.531 78.6948 346.924 78.1019L389.928 59.838C391.141 59.3299 392.517 59.3906 393.68 60.0036C394.843 60.6165 395.671 61.7174 395.937 63.0049C396.321 65.1034 395.173 67.1815 393.192 67.9741L350.35 86.1671C350.193 86.2346 350.041 86.3154 349.898 86.4087C348.624 87.2314 348.192 88.8921 348.903 90.2314C349.614 91.5708 351.231 92.1432 352.627 91.5492L395.644 73.2773C398.352 72.1246 400.432 69.8615 401.354 67.0662C402.276 64.2709 401.949 61.2141 400.457 58.6767C397.709 54.2341 392.108 52.4943 387.326 54.5978V54.5978Z" fill="#802F34"/>
<path d="M395.937 63.0046C396.321 65.1031 395.173 67.1811 393.192 67.9738L350.35 86.1667L346.924 78.1016L389.928 59.8377C391.141 59.3296 392.517 59.3903 393.68 60.0032C394.843 60.6162 395.671 61.7171 395.937 63.0046V63.0046Z" fill="#F9EAB0"/>
</g>
<g clip-path="url(#clip5)">
<path d="M755.232 251.336L717.249 258.711C716.883 258.782 716.512 258.829 716.139 258.852C711.821 259.027 708.036 255.99 707.27 251.737L704.759 238.827L755.004 238.301L755.232 251.336Z" fill="#35495E"/>
<path d="M752.693 201.524C753.63 201.733 754.354 202.474 754.541 203.415L761.929 241.41C762.39 243.805 761.798 246.282 760.303 248.209C758.808 250.137 756.556 251.327 754.122 251.476C749.994 251.643 746.325 248.863 745.37 244.843L748.182 234.114L748.183 234.126L750.055 243.709C750.262 244.778 750.938 245.698 751.896 246.215C752.854 246.733 753.993 246.793 755 246.381C756.622 245.668 757.521 243.915 757.153 242.182L751.505 213.144L752.693 201.524Z" fill="#2C3E50"/>
<path d="M748.183 234.126L750.055 243.709C750.263 244.778 750.938 245.697 751.896 246.215C752.854 246.732 753.993 246.793 755.001 246.38C756.622 245.668 757.521 243.915 757.153 242.182L751.505 213.144L748.183 234.126Z" fill="#F9EAB0"/>
<path d="M732.061 243.145L693.84 237.091C692.526 236.874 691.63 235.641 691.829 234.324L697.838 196.39C698.455 192.109 702.134 188.94 706.459 188.964C706.83 188.974 707.201 189.008 707.568 189.066L745.79 195.12L732.061 243.145Z" fill="#E64C3C"/>
<path d="M703.929 204.192C703.931 204.263 703.926 204.334 703.915 204.404L699.564 231.876C699.422 232.497 698.823 232.901 698.195 232.801C697.566 232.701 697.122 232.131 697.18 231.497L701.526 204.026C701.623 203.406 702.178 202.964 702.804 203.007C703.429 203.05 703.918 203.565 703.929 204.192Z" fill="#3F5C6C"/>
<path d="M709.141 209.916C709.142 209.987 709.137 210.058 709.125 210.128L706.292 228.044C706.173 228.689 705.561 229.122 704.914 229.019C704.266 228.917 703.818 228.317 703.904 227.666L706.736 209.749C706.83 209.126 707.387 208.68 708.015 208.723C708.644 208.767 709.134 209.286 709.141 209.916V209.916Z" fill="#3F5C6C"/>
<path d="M714.497 207.297L710.516 232.385C710.411 233.045 710.861 233.665 711.521 233.77L723.467 235.666C724.127 235.77 724.747 235.32 724.852 234.661L728.833 209.573C728.938 208.913 728.488 208.293 727.828 208.188L715.882 206.292C715.222 206.188 714.602 206.638 714.497 207.297Z" fill="#ECF0F1"/>
<path d="M706.453 188.966C706.826 188.974 707.199 189.008 707.567 189.068L745.784 195.125L743.106 204.497L712.372 199.627L705.119 198.472L697.696 197.295L697.838 196.386C698.458 192.11 702.133 188.946 706.453 188.966V188.966Z" fill="#C03A2B"/>
<path d="M736.055 202.443L730.053 240.381C730.031 240.522 730.021 240.663 730.024 240.805C730.049 242.058 731.027 243.085 732.278 243.17C733.528 243.255 734.637 242.371 734.831 241.132L740.877 202.916C741.052 201.841 741.699 200.901 742.64 200.353C743.581 199.806 744.717 199.707 745.738 200.085C747.38 200.737 748.336 202.455 748.023 204.194L741.999 242.265C741.978 242.405 741.968 242.547 741.97 242.689C741.989 243.945 742.966 244.977 744.218 245.065C745.471 245.154 746.583 244.269 746.778 243.028L752.823 204.8C753.202 202.392 752.526 199.937 750.967 198.063C749.409 196.19 747.119 195.078 744.682 195.012C740.356 194.992 736.676 198.162 736.055 202.443V202.443Z" fill="#802F34"/>
<path d="M745.738 200.085C747.38 200.737 748.335 202.455 748.023 204.194L741.999 242.265L734.831 241.133L740.877 202.916C741.052 201.841 741.699 200.901 742.639 200.354C743.58 199.806 744.717 199.707 745.738 200.085V200.085Z" fill="#F9EAB0"/>
</g>
<defs>
<clipPath id="clip0">
<rect width="113" height="113" fill="white" transform="translate(47.5173 7.65674) rotate(24.5)"/>
</clipPath>
<clipPath id="clip1">
<rect width="61.808" height="61.808" fill="white" transform="translate(686.154 4) rotate(22)"/>
</clipPath>
<clipPath id="clip2">
<rect width="107.023" height="107.023" fill="white" transform="translate(477 133.847) rotate(-34)"/>
</clipPath>
<clipPath id="clip3">
<rect width="89.6441" height="89.6441" fill="white" transform="translate(170 146.143) rotate(-29.5)"/>
</clipPath>
<clipPath id="clip4">
<rect width="84.6974" height="84.6974" fill="white" transform="translate(301 46.1294) rotate(-33)"/>
</clipPath>
<clipPath id="clip5">
<rect width="70.1403" height="70.1403" fill="white" transform="translate(692.224 259.354) rotate(-91)"/>
</clipPath>
</defs>
</svg>
