<svg width="774" height="282" viewBox="0 0 774 282" fill="none" xmlns="http://www.w3.org/2000/svg">
<path d="M255.391 197.81H201.609C199.78 197.81 198.298 196.328 198.298 194.5V181.258C198.298 180.471 198.578 179.71 199.088 179.111C206.447 170.473 217.167 165.52 228.5 165.52C239.834 165.52 250.554 170.473 257.912 179.111C258.422 179.71 258.702 180.471 258.702 181.258V194.5C258.702 196.328 257.22 197.81 255.391 197.81Z" fill="#FF5E82"/>
<path d="M255.391 197.81C257.22 197.81 258.702 196.328 258.702 194.5V181.258C258.702 180.471 258.422 179.71 257.912 179.111C250.554 170.473 239.834 165.52 228.5 165.52V197.81H255.391Z" fill="#B7457D"/>
<path d="M228.5 241C228.106 241 227.712 240.93 227.338 240.789L192.025 227.547C190.733 227.063 189.877 225.828 189.877 224.447V178.1C189.877 177.014 190.409 175.997 191.302 175.379C192.194 174.76 193.333 174.618 194.35 175L228.5 187.806L262.65 175C263.666 174.618 264.806 174.76 265.698 175.379C266.591 175.997 267.123 177.014 267.123 178.1V224.447C267.123 225.828 266.267 227.063 264.975 227.547L229.663 240.789C229.288 240.93 228.894 241 228.5 241Z" fill="#A4E9FF"/>
<path d="M264.975 227.547C266.267 227.063 267.123 225.828 267.123 224.447V178.1C267.123 177.014 266.591 175.997 265.698 175.379C264.806 174.76 263.666 174.618 262.65 175L228.5 187.806V241C228.894 241 229.288 240.93 229.663 240.789L264.975 227.547Z" fill="#91BBFF"/>
<path d="M228.5 172.141C216.33 172.141 206.43 162.24 206.43 150.07C206.43 137.901 216.33 128 228.5 128C240.67 128 250.57 137.901 250.57 150.07C250.57 162.24 240.67 172.141 228.5 172.141Z" fill="#FFD6AA"/>
<path d="M250.57 150.07C250.57 137.901 240.67 128 228.5 128V172.141C240.67 172.141 250.57 162.24 250.57 150.07Z" fill="#FAC68F"/>
<path d="M266.571 211.867H263.261C261.131 211.867 259.398 210.134 259.398 208.005V196.97C259.398 194.84 261.131 193.107 263.261 193.107H266.571C271.744 193.107 275.951 197.315 275.951 202.487C275.951 207.659 271.744 211.867 266.571 211.867Z" fill="#FAC68F"/>
<path d="M193.739 211.867H190.429C185.257 211.867 181.049 207.659 181.049 202.487C181.049 197.315 185.257 193.107 190.429 193.107H193.739C195.869 193.107 197.602 194.84 197.602 196.97V208.005C197.602 210.134 195.869 211.867 193.739 211.867Z" fill="#FFD6AA"/>
<g clip-path="url(#clip0)">
<path d="M561.685 173.214L580.22 158.471L593.12 174.688L574.585 189.431L561.685 173.214Z" fill="#394D5C"/>
<path d="M532.224 219.804C532.127 218.77 531.868 217.758 531.46 216.804C531.123 216.008 530.706 215.249 530.213 214.539C530.043 214.293 529.863 214.049 529.672 213.809C526.618 209.971 522.068 208.509 519.51 210.544L554.261 182.902L522.933 143.517L488.181 171.159C490.74 169.124 490.34 164.362 487.286 160.524C486.735 159.829 486.115 159.191 485.434 158.622C485.01 158.268 484.562 157.946 484.092 157.656C483.442 157.252 482.747 156.927 482.02 156.688C481.368 156.472 480.687 156.355 480 156.341C479.787 156.338 479.574 156.348 479.363 156.37C478.954 156.412 478.553 156.509 478.17 156.657C477.794 156.805 477.441 157.007 477.124 157.259C474.565 159.294 474.966 164.056 478.019 167.895L520.405 221.18C523.458 225.019 528.007 226.48 530.567 224.445C531.869 223.277 532.492 221.531 532.224 219.804Z" fill="#FDBD40"/>
<path d="M511.876 129.617L477.125 157.259C479.684 155.224 484.233 156.685 487.286 160.524C490.34 164.363 490.741 169.125 488.182 171.16L522.933 143.518C525.493 141.482 525.092 136.72 522.038 132.881C518.985 129.042 514.435 127.582 511.876 129.617Z" fill="#E97424"/>
<path d="M554.261 182.902L519.51 210.544C522.069 208.509 526.618 209.97 529.672 213.809C532.725 217.648 533.126 222.41 530.567 224.445L565.318 196.803C567.878 194.767 567.477 190.005 564.423 186.166C561.37 182.328 556.82 180.866 554.261 182.902Z" fill="#E97424"/>
<path d="M560.316 166.738L574.217 155.681L577.903 160.314L564.002 171.372L560.316 166.738Z" fill="#AABECE"/>
<path d="M556.631 162.104L570.531 151.047C571.811 150.029 573.673 150.241 574.691 151.521C575.709 152.801 575.497 154.663 574.217 155.681L560.317 166.738C559.037 167.755 557.175 167.544 556.157 166.264C555.139 164.984 555.351 163.122 556.631 162.104Z" fill="#394D5C"/>
<path d="M528.093 116.717L532.727 113.031L565.898 154.733L561.264 158.419L528.093 116.717Z" fill="#5F79BA"/>
<path d="M556.657 152.627C556.657 152.627 549.264 152.833 544.443 149.103L546.033 144.055L539.613 145.379C539.613 145.379 528.376 133.513 529.014 117.875L556.657 152.627Z" fill="#87CEE9"/>
<path d="M561.291 148.941C561.291 148.941 563.156 141.784 560.605 136.248L555.329 136.661L558.063 130.704C558.063 130.704 549.029 117.086 533.648 114.19L561.291 148.941Z" fill="#87CEE9"/>
<path d="M524.749 155.312L496.948 177.426C496.309 177.934 495.377 177.829 494.868 177.189C494.359 176.549 494.466 175.617 495.105 175.109L522.906 152.995C523.546 152.486 524.477 152.592 524.986 153.232C525.495 153.872 525.389 154.803 524.749 155.312Z" fill="#394D5C"/>
<path d="M533.963 166.896L506.162 189.01C505.523 189.518 504.591 189.413 504.082 188.773C503.573 188.133 503.68 187.201 504.319 186.693L532.121 164.579C532.76 164.07 533.691 164.176 534.2 164.816C534.709 165.456 534.603 166.387 533.963 166.896Z" fill="#394D5C"/>
<path d="M543.177 178.479L515.376 200.593C514.737 201.102 513.805 200.996 513.296 200.356C512.787 199.716 512.894 198.785 513.533 198.276L541.335 176.162C541.974 175.653 542.905 175.759 543.414 176.399C543.923 177.039 543.817 177.97 543.177 178.479Z" fill="#394D5C"/>
<path d="M576.455 182.271C575.815 182.779 574.885 182.674 574.376 182.035C574.375 182.034 574.375 182.034 574.375 182.034L568.846 175.083C568.338 174.444 568.443 173.512 569.083 173.003C569.723 172.495 570.654 172.6 571.163 173.24L576.692 180.191C577.201 180.83 577.095 181.761 576.456 182.27C576.455 182.27 576.455 182.27 576.455 182.271Z" fill="#AABECE"/>
<path d="M583.879 172.583C583.24 173.092 582.309 172.986 581.8 172.347C581.8 172.347 581.799 172.346 581.799 172.346L579.034 168.87L577.876 169.792C577.237 170.301 576.305 170.195 575.796 169.555C575.287 168.916 575.393 167.984 576.033 167.475L578.35 165.632C578.989 165.123 579.92 165.229 580.429 165.868L580.43 165.869L584.116 170.503C584.625 171.142 584.519 172.073 583.88 172.582C583.88 172.582 583.879 172.582 583.879 172.583Z" fill="#AABECE"/>
<path d="M531.489 225.604L566.24 197.961C569.488 195.378 569.199 189.792 565.582 185.246C562.409 181.256 557.88 179.585 554.624 180.98L524.888 143.598C526.98 140.738 526.37 135.949 523.197 131.96C519.581 127.414 514.203 125.875 510.955 128.459L476.204 156.101C472.956 158.685 473.245 164.271 476.861 168.817L519.247 222.103C522.863 226.649 528.241 228.187 531.489 225.604ZM563.265 187.088C565.763 190.228 566.281 194.147 564.397 195.645L533.736 220.034C533.732 219.953 533.708 219.868 533.702 219.787C533.7 219.75 533.702 219.716 533.698 219.679L533.697 219.675L533.696 219.661L533.697 219.655C533.686 219.526 533.647 219.396 533.631 219.267C533.585 218.853 533.515 218.442 533.421 218.036C533.414 218.011 533.413 217.987 533.407 217.962C533.368 217.807 533.298 217.651 533.251 217.496C533.138 217.089 533.002 216.688 532.847 216.294C532.838 216.273 532.834 216.253 532.826 216.232L532.821 216.225C532.612 215.735 532.376 215.258 532.111 214.798C532.029 214.653 531.935 214.512 531.847 214.368C531.709 214.144 531.583 213.916 531.432 213.697C531.244 213.426 531.042 213.154 530.83 212.888C529.239 210.791 527.034 209.239 524.522 208.449L555.183 184.061C557.066 182.562 560.768 183.949 563.265 187.088ZM512.798 130.776C514.682 129.277 518.383 130.664 520.88 133.803C523.377 136.942 523.896 140.861 522.012 142.359L491.351 166.748C491.147 164.123 490.131 161.626 488.445 159.603C488.054 159.117 487.632 158.657 487.182 158.226C487.036 158.083 486.889 157.95 486.74 157.816C486.619 157.708 486.506 157.588 486.383 157.485C486.245 157.372 486.096 157.286 485.956 157.178C485.666 156.954 485.376 156.739 485.078 156.546C485.007 156.5 484.94 156.44 484.868 156.395L484.869 156.396L484.865 156.394C484.674 156.277 484.478 156.186 484.284 156.081C484 155.926 483.717 155.782 483.43 155.657C483.111 155.518 482.792 155.383 482.473 155.281C482.444 155.271 482.416 155.268 482.387 155.259C482.303 155.234 482.22 155.187 482.136 155.164L512.798 130.775L512.798 130.776ZM479.178 166.974C476.681 163.835 476.163 159.916 478.047 158.418C478.265 158.249 478.51 158.115 478.77 158.023C478.908 157.98 479.049 157.946 479.191 157.922C479.34 157.883 479.492 157.856 479.645 157.837C479.723 157.832 479.802 157.828 479.884 157.827C480.083 157.828 480.281 157.842 480.478 157.869C480.571 157.88 480.659 157.878 480.754 157.895C480.874 157.916 481.001 157.958 481.124 157.988C481.31 158.033 481.495 158.079 481.684 158.144C481.832 158.195 481.982 158.259 482.132 158.321C482.338 158.408 482.545 158.502 482.752 158.611C482.871 158.672 482.989 158.735 483.108 158.804C483.297 158.913 483.483 159.044 483.67 159.171C483.875 159.31 484.078 159.452 484.277 159.61C484.499 159.786 484.717 159.973 484.932 160.172C485.027 160.261 485.124 160.344 485.217 160.437C485.54 160.754 485.844 161.092 486.128 161.446C488.626 164.585 489.143 168.504 487.26 170.002C486.621 170.51 486.514 171.442 487.023 172.082C487.532 172.722 488.463 172.827 489.103 172.319L522.696 145.597L552.182 182.665L518.589 209.386C517.949 209.895 517.843 210.827 518.352 211.466C518.861 212.106 519.792 212.212 520.432 211.703C522.315 210.205 526.016 211.592 528.514 214.731C528.766 215.055 529.002 215.392 529.219 215.741C529.295 215.861 529.371 215.98 529.442 216.102C529.61 216.387 529.758 216.675 529.894 216.963C529.941 217.063 529.994 217.161 530.038 217.261C530.119 217.449 530.176 217.634 530.244 217.821C530.335 218.072 530.43 218.322 530.497 218.571C530.535 218.711 530.555 218.846 530.586 218.983C530.65 219.261 530.699 219.543 530.732 219.827C530.759 220.081 530.771 220.337 530.766 220.593C530.764 220.697 530.757 220.804 530.748 220.914C530.729 221.163 530.691 221.41 530.631 221.653C530.613 221.726 530.589 221.797 530.567 221.869C530.493 222.113 530.391 222.348 530.262 222.568C530.239 222.606 530.21 222.643 530.185 222.681C530.038 222.91 529.856 223.114 529.646 223.288C527.762 224.786 524.06 223.399 521.563 220.26L479.178 166.974L479.178 166.974Z" fill="black"/>
<path d="M559.297 129.885C558.918 129.315 549.947 116.039 534.475 112.851L533.885 112.11C533.377 111.47 532.446 111.363 531.807 111.872C531.807 111.872 531.806 111.872 531.805 111.873L527.172 115.559C526.532 116.067 526.425 116.997 526.934 117.636L526.935 117.638L527.525 118.379C527.15 134.171 538.068 145.9 538.538 146.396C538.891 146.77 539.41 146.933 539.913 146.829L543.863 146.014L543.032 148.657C542.846 149.249 543.047 149.894 543.537 150.273C547.842 153.605 553.845 154.051 555.94 154.102L559.184 158.181L555.709 160.945C553.791 162.463 553.466 165.249 554.984 167.167C556.154 168.644 558.129 169.22 559.909 168.603L561.922 171.134L560.764 172.055C560.124 172.563 560.018 173.494 560.526 174.134L560.527 174.135L573.427 190.352C573.935 190.992 574.865 191.098 575.505 190.59L575.506 190.589L594.041 175.846C594.681 175.338 594.787 174.408 594.279 173.768C594.278 173.767 594.278 173.767 594.278 173.767L581.378 157.55C580.87 156.91 579.939 156.804 579.299 157.312C579.299 157.312 579.298 157.313 579.298 157.313L578.14 158.234L576.127 155.704C577.428 153.632 576.803 150.898 574.731 149.597C573.136 148.595 571.081 148.712 569.61 149.889L566.135 152.653L562.89 148.574C563.312 146.521 564.227 140.572 561.95 135.628C561.69 135.065 561.107 134.724 560.489 134.771L557.726 134.988L559.409 131.322C559.623 130.855 559.581 130.312 559.297 129.885ZM546.18 148.515L547.445 144.5C547.691 143.72 547.257 142.888 546.477 142.643C546.236 142.568 545.98 142.554 545.733 142.606L540.156 143.756C538.239 141.49 531.741 133.103 530.632 122.285L553.411 150.923C550.859 150.635 548.396 149.814 546.18 148.515ZM591.04 174.452L574.822 187.352L563.765 173.45L579.982 160.55L591.04 174.452ZM564.239 169.291L562.396 166.974L573.98 157.76L575.823 160.077L564.239 169.291ZM573.533 152.442C574.041 153.082 573.935 154.013 573.296 154.522L559.395 165.579C558.755 166.088 557.824 165.982 557.315 165.342C556.806 164.702 556.912 163.771 557.552 163.262L571.453 152.205C572.093 151.697 573.023 151.803 573.533 152.442ZM561.501 156.339L530.173 116.954L532.49 115.111L563.818 154.496L561.501 156.339ZM556.36 130.867L553.984 136.042C553.643 136.786 553.969 137.665 554.712 138.006C554.941 138.112 555.193 138.156 555.445 138.137L559.642 137.807C560.409 140.258 560.655 142.843 560.361 145.395L537.582 116.757C547.873 120.271 554.583 128.489 556.36 130.867Z" fill="black"/>
<path d="M496.948 177.426L524.749 155.312C525.389 154.803 525.495 153.872 524.986 153.232C524.477 152.592 523.546 152.486 522.906 152.995L495.105 175.109C494.466 175.617 494.359 176.549 494.868 177.189C495.377 177.829 496.309 177.934 496.948 177.426Z" fill="black"/>
<path d="M506.162 189.009L533.963 166.895C534.603 166.386 534.709 165.455 534.2 164.815C533.691 164.175 532.76 164.069 532.121 164.578L504.319 186.692C503.68 187.201 503.573 188.132 504.082 188.772C504.592 189.412 505.523 189.518 506.162 189.009Z" fill="black"/>
<path d="M515.376 200.593L543.178 178.479C543.818 177.97 543.924 177.039 543.415 176.399C542.906 175.759 541.975 175.653 541.335 176.162L513.534 198.276C512.894 198.785 512.788 199.716 513.297 200.356C513.806 200.996 514.737 201.102 515.376 200.593Z" fill="black"/>
<path d="M569.083 173.003C568.444 173.512 568.337 174.442 568.845 175.082L568.846 175.083L574.375 182.034C574.884 182.673 575.815 182.78 576.455 182.271C577.094 181.762 577.201 180.831 576.692 180.191L571.163 173.24C570.655 172.6 569.724 172.494 569.084 173.002C569.084 173.003 569.084 173.003 569.083 173.003Z" fill="black"/>
<path d="M578.35 165.632L576.033 167.475C575.394 167.984 575.287 168.916 575.796 169.555C576.305 170.195 577.236 170.301 577.876 169.792L579.034 168.87L581.799 172.346C582.308 172.986 583.239 173.092 583.879 172.583C584.519 172.074 584.625 171.143 584.116 170.503L580.43 165.869C579.922 165.229 578.991 165.123 578.351 165.631C578.351 165.631 578.351 165.632 578.35 165.632Z" fill="black"/>
</g>
<g clip-path="url(#clip1)">
<path d="M51.658 263.209L70.0585 264.496L68.9326 280.597L50.5321 279.31L51.658 263.209Z" fill="#394D5C"/>
<path d="M10.2254 274.461C10.7134 273.816 11.0976 273.099 11.3649 272.336C11.5908 271.702 11.75 271.047 11.8408 270.379C11.8731 270.149 11.8973 269.914 11.914 269.676C12.1805 265.865 10.3371 262.631 7.79683 262.454L42.2972 264.866L45.0314 225.765L10.531 223.353C13.0713 223.531 15.3467 220.586 15.6132 216.775C15.6625 216.086 15.6417 215.393 15.5499 214.708C15.4932 214.282 15.4053 213.861 15.2879 213.447C15.1275 212.873 14.8991 212.32 14.607 211.801C14.3464 211.334 14.017 210.909 13.6301 210.539C13.5096 210.425 13.3818 210.318 13.2485 210.22C12.9921 210.029 12.7108 209.874 12.4128 209.758C12.1191 209.644 11.81 209.575 11.496 209.553C8.9552 209.375 6.67972 212.32 6.41323 216.131L2.71404 269.032C2.44755 272.843 4.291 276.076 6.83182 276.254C8.19371 276.269 9.47032 275.594 10.2254 274.461Z" fill="#FDBD40"/>
<path d="M45.9963 211.966L11.496 209.553C14.0362 209.731 15.8797 212.964 15.6132 216.775C15.3467 220.586 13.0712 223.531 10.531 223.353L45.0313 225.766C47.5721 225.944 49.8476 222.998 50.1141 219.187C50.3806 215.376 48.5366 212.143 45.9963 211.966Z" fill="#E97424"/>
<path d="M42.2972 264.866L7.79681 262.454C10.3371 262.631 12.1805 265.865 11.914 269.676C11.6475 273.487 9.37203 276.432 6.83177 276.254L41.3321 278.667C43.873 278.845 46.1484 275.899 46.4149 272.088C46.6814 268.277 44.8374 265.044 42.2972 264.866Z" fill="#E97424"/>
<path d="M54.2798 258.77L68.0802 259.735L67.7585 264.335L53.9581 263.37L54.2798 258.77Z" fill="#AABECE"/>
<path d="M54.6015 254.17L68.4017 255.135C69.6718 255.224 70.6298 256.326 70.541 257.596C70.4521 258.867 69.3502 259.824 68.08 259.735L54.2798 258.77C53.0097 258.682 52.0516 257.58 52.1405 256.309C52.2293 255.039 53.3313 254.081 54.6015 254.17Z" fill="#394D5C"/>
<path d="M62.0961 213.091L66.6964 213.413L63.8014 254.813L59.2011 254.492L62.0961 213.091Z" fill="#5F79BA"/>
<path d="M59.6032 248.742C59.6032 248.742 55.2492 244.97 54.4441 240.292L58.0129 238.23L53.6296 235.612C53.6296 235.612 53.4209 222.885 62.0157 214.241L59.6032 248.742Z" fill="#87CEE9"/>
<path d="M64.2035 249.063C64.2035 249.063 69.0406 245.935 70.489 241.414L67.2419 238.875L71.9463 236.893C71.9463 236.893 73.9242 224.319 66.616 214.563L64.2035 249.063Z" fill="#87CEE9"/>
<path d="M39.8682 233.494L12.2677 231.564C11.6329 231.52 11.1536 230.969 11.198 230.334C11.2424 229.698 11.7937 229.22 12.4285 229.264L40.029 231.194C40.6643 231.238 41.1431 231.789 41.0987 232.425C41.0542 233.06 40.5035 233.539 39.8682 233.494Z" fill="#394D5C"/>
<path d="M39.064 244.994L11.4635 243.064C10.8287 243.02 10.3494 242.469 10.3938 241.834C10.4383 241.198 10.9895 240.72 11.6243 240.764L39.2248 242.694C39.8602 242.738 40.3389 243.289 40.2945 243.925C40.25 244.56 39.6993 245.039 39.064 244.994Z" fill="#394D5C"/>
<path d="M38.2598 256.494L10.6593 254.564C10.0245 254.52 9.54526 253.969 9.58968 253.334C9.63411 252.698 10.1854 252.22 10.8202 252.264L38.4207 254.194C39.056 254.238 39.5347 254.789 39.4903 255.425C39.4459 256.06 38.8952 256.539 38.2598 256.494Z" fill="#394D5C"/>
<path d="M55.3736 276.181C54.7389 276.137 54.2601 275.587 54.3039 274.952C54.304 274.952 54.304 274.951 54.304 274.951L54.7865 268.05C54.8309 267.416 55.3817 266.936 56.017 266.981C56.6518 267.025 57.1311 267.576 57.0867 268.211L56.6041 275.112C56.5603 275.747 56.0096 276.225 55.3748 276.182C55.3742 276.181 55.3742 276.181 55.3736 276.181Z" fill="#AABECE"/>
<path d="M64.7345 274.525C64.0996 274.481 63.6209 273.93 63.6647 273.295C63.6647 273.295 63.6648 273.295 63.6648 273.294L63.9061 269.844L62.756 269.763C62.1212 269.719 61.6419 269.168 61.6864 268.533C61.7308 267.898 62.2815 267.419 62.9169 267.463L65.217 267.624C65.8518 267.668 66.3306 268.219 66.2867 268.853L66.2867 268.855L65.965 273.455C65.9211 274.09 65.3704 274.568 64.7356 274.525C64.7356 274.525 64.735 274.525 64.7345 274.525Z" fill="#AABECE"/>
<path d="M6.75132 277.405L41.2517 279.817C44.4762 280.043 47.2493 276.683 47.5649 272.169C47.8419 268.209 46.1206 264.866 43.5167 263.953L46.1118 226.841C48.8174 226.3 50.9872 223.229 51.2641 219.269C51.5797 214.755 49.3012 211.042 46.0767 210.817L11.5763 208.404C8.3518 208.179 5.5787 211.538 5.26308 216.052L1.56389 268.953C1.24827 273.466 3.5268 277.179 6.75132 277.405ZM45.2648 272.009C45.0468 275.125 43.2824 277.648 41.4125 277.518L10.9727 275.389C11.0129 275.341 11.044 275.279 11.0833 275.229C11.101 275.207 11.1202 275.188 11.1374 275.165L11.1393 275.162L11.1461 275.154L11.1496 275.151C11.2111 275.071 11.2574 274.976 11.3157 274.893C11.5071 274.632 11.6832 274.359 11.8426 274.076C11.8522 274.058 11.8644 274.044 11.874 274.026C11.9331 273.916 11.9748 273.79 12.0297 273.677C12.1787 273.383 12.3121 273.081 12.4297 272.774C12.4358 272.757 12.4441 272.743 12.4502 272.727L12.4513 272.72C12.5892 272.329 12.7042 271.931 12.795 271.527C12.8239 271.401 12.8437 271.27 12.8689 271.141C12.9075 270.94 12.9554 270.742 12.9837 270.538C13.0183 270.283 13.0455 270.021 13.064 269.757C13.2537 267.715 12.8039 265.664 11.7774 263.888L42.2167 266.017C44.0866 266.148 45.4827 268.892 45.2648 272.009ZM45.9158 213.117C47.7857 213.247 49.1819 215.991 48.964 219.108C48.746 222.224 46.9816 224.748 45.1117 224.617L14.6718 222.488C15.936 220.873 16.6663 218.905 16.7632 216.856C16.7938 216.371 16.7937 215.885 16.7622 215.4C16.7538 215.242 16.7388 215.088 16.724 214.933C16.7115 214.807 16.7099 214.679 16.6929 214.555C16.674 214.417 16.6332 214.29 16.6097 214.154C16.5607 213.872 16.5079 213.597 16.4379 213.329C16.4211 213.265 16.4148 213.195 16.3969 213.132L16.3968 213.133L16.3959 213.13C16.3479 212.962 16.2834 212.806 16.2271 212.644C16.1449 212.406 16.0584 212.174 15.9595 211.951C15.8494 211.704 15.737 211.458 15.6075 211.232C15.5962 211.211 15.5817 211.194 15.5697 211.174C15.5353 211.115 15.5117 211.045 15.4761 210.988L45.9159 213.116L45.9158 213.117ZM7.56322 216.213C7.78116 213.096 9.54558 210.573 11.4155 210.704C11.6299 210.722 11.8407 210.774 12.0387 210.858C12.1409 210.906 12.2394 210.96 12.3334 211.021C12.4395 211.077 12.5412 211.142 12.6385 211.211C12.6867 211.249 12.7342 211.289 12.7815 211.331C12.8953 211.437 13.002 211.549 13.1009 211.668C13.1484 211.724 13.1994 211.768 13.245 211.828C13.3028 211.904 13.354 211.994 13.4086 212.076C13.4916 212.2 13.574 212.324 13.6482 212.461C13.7066 212.568 13.7588 212.683 13.8122 212.798C13.885 212.956 13.954 213.119 14.0158 213.291C14.0519 213.389 14.087 213.487 14.1189 213.589C14.1696 213.751 14.2077 213.924 14.2483 214.096C14.2927 214.283 14.3348 214.471 14.3659 214.666C14.4009 214.884 14.4278 215.107 14.4459 215.334C14.454 215.435 14.4661 215.534 14.4707 215.636C14.489 215.989 14.486 216.343 14.4631 216.695C14.2451 219.812 12.4807 222.334 10.6108 222.204C9.97601 222.159 9.4247 222.639 9.38031 223.273C9.33588 223.909 9.81517 224.459 10.45 224.504L43.8008 226.836L41.2275 263.636L7.87717 261.304C7.24183 261.26 6.69107 261.739 6.64669 262.374C6.60226 263.009 7.08099 263.56 7.71633 263.604C9.58623 263.735 10.9818 266.479 10.7639 269.596C10.7388 269.915 10.6965 270.232 10.6376 270.547C10.6183 270.656 10.599 270.764 10.5758 270.872C10.5219 271.124 10.4557 271.367 10.3821 271.604C10.3569 271.686 10.3359 271.77 10.308 271.85C10.2561 272.002 10.1907 272.138 10.1315 272.281C10.0522 272.473 9.97494 272.667 9.88263 272.845C9.83093 272.945 9.77115 273.033 9.71647 273.128C9.60687 273.321 9.48706 273.509 9.3566 273.689C9.23813 273.85 9.11013 274.003 8.97322 274.147C8.91718 274.206 8.85672 274.264 8.79345 274.322C8.65172 274.455 8.49969 274.577 8.33796 274.685C8.28933 274.717 8.23764 274.745 8.18695 274.775C8.01624 274.876 7.83406 274.957 7.6445 275.016C7.61085 275.026 7.57524 275.032 7.5406 275.04C7.33571 275.095 7.12362 275.116 6.91157 275.105C5.04167 274.974 3.64553 272.23 3.86347 269.114L7.56266 216.213L7.56322 216.213Z" fill="black"/>
<path d="M73.0855 237.072C73.1681 236.545 75.0021 224.201 67.795 214.229L67.8465 213.493C67.8914 212.859 67.4127 212.307 66.7779 212.263C66.7779 212.263 66.7774 212.263 66.7768 212.263L62.1766 211.941C61.5418 211.896 60.9911 212.375 60.9468 213.009L60.9466 213.011L60.8952 213.747C52.3705 222.618 52.4686 235.098 52.4772 235.63C52.4833 236.03 52.6955 236.397 53.0387 236.602L55.7363 238.213L53.8677 239.293C53.4498 239.535 53.226 240.011 53.3078 240.487C54.0266 244.665 57.2387 248.08 58.4152 249.212L58.1321 253.261L54.6819 253.02C52.7817 252.882 51.1295 254.311 50.9917 256.211C50.8859 257.675 51.7174 259.045 53.0641 259.628L52.8885 262.139L51.7384 262.059C51.1037 262.014 50.5529 262.493 50.508 263.128L50.5079 263.129L49.3821 279.229C49.3371 279.864 49.8159 280.415 50.4506 280.459L50.4517 280.46L68.8522 281.746C69.487 281.791 70.0377 281.312 70.0826 280.678C70.0827 280.677 70.0827 280.677 70.0827 280.677L71.2085 264.577C71.2529 263.942 70.7747 263.391 70.14 263.346C70.1394 263.346 70.1389 263.346 70.1389 263.346L68.9888 263.266L69.1645 260.754C71.0017 260.249 72.0813 258.35 71.5764 256.513C71.1871 255.098 69.9459 254.084 68.4821 253.985L65.0319 253.744L65.3151 249.694C66.6376 248.738 70.2932 245.803 71.587 241.766C71.7337 241.306 71.579 240.803 71.1988 240.505L69.4981 239.176L72.3936 237.956C72.7619 237.801 73.0238 237.466 73.0855 237.072ZM55.7506 240.868L58.5894 239.228C59.1412 238.909 59.3297 238.204 59.0107 237.652C58.912 237.482 58.7723 237.34 58.6033 237.24L54.7954 234.966C54.8871 232.655 55.5691 224.42 60.624 217.625L58.6359 246.056C57.3221 244.547 56.3391 242.78 55.7506 240.868ZM67.863 279.366L51.7626 278.24L52.7276 264.44L68.828 265.565L67.863 279.366ZM55.1886 262.301L55.3494 260.001L66.8495 260.805L66.6887 263.105L55.1886 262.301ZM69.3909 257.516C69.346 258.15 68.7953 258.629 68.1604 258.585L54.3602 257.62C53.7248 257.576 53.2461 257.025 53.2905 256.39C53.335 255.754 53.8857 255.276 54.521 255.32L68.3213 256.285C68.956 256.33 69.4347 256.881 69.3909 257.516ZM60.4316 253.423L63.1658 214.322L65.4659 214.483L62.7317 253.583L60.4316 253.423ZM70.8824 236.091L66.795 237.812C66.208 238.06 65.9322 238.736 66.1794 239.323C66.2555 239.504 66.3769 239.662 66.532 239.784L69.115 241.803C68.2661 243.614 67.0468 245.227 65.5358 246.538L67.5239 218.107C71.5838 225.54 71.1131 233.79 70.8824 236.091Z" fill="black"/>
<path d="M12.2677 231.564L39.8682 233.494C40.5036 233.538 41.0543 233.059 41.0987 232.424C41.1431 231.789 40.6644 231.238 40.0291 231.194L12.4286 229.264C11.7938 229.219 11.2425 229.698 11.1981 230.333C11.1537 230.969 11.6329 231.519 12.2677 231.564Z" fill="black"/>
<path d="M11.4635 243.064L39.064 244.994C39.6994 245.039 40.2501 244.56 40.2945 243.925C40.3389 243.289 39.8602 242.738 39.2249 242.694L11.6244 240.764C10.9896 240.72 10.4383 241.198 10.3939 241.834C10.35 242.469 10.8287 243.02 11.4635 243.064Z" fill="black"/>
<path d="M10.6593 254.564L38.2598 256.494C38.8952 256.539 39.4459 256.06 39.4903 255.425C39.5347 254.789 39.056 254.238 38.4207 254.194L10.8202 252.264C10.1854 252.22 9.63411 252.698 9.58968 253.334C9.54526 253.969 10.0245 254.52 10.6593 254.564Z" fill="black"/>
<path d="M56.017 266.981C55.3822 266.936 54.8315 267.415 54.7866 268.049L54.7865 268.05L54.304 274.951C54.2596 275.586 54.7383 276.137 55.3736 276.181C56.0084 276.226 56.5597 275.747 56.6041 275.112L57.0867 268.211C57.1316 267.577 56.6529 267.026 56.0181 266.981C56.0176 266.981 56.0176 266.981 56.017 266.981Z" fill="black"/>
<path d="M65.217 267.624L62.9169 267.463C62.2821 267.419 61.7308 267.898 61.6864 268.533C61.6419 269.168 62.1207 269.719 62.756 269.763L63.9061 269.844L63.6648 273.294C63.6204 273.929 64.0991 274.48 64.7345 274.525C65.3698 274.569 65.9205 274.09 65.965 273.455L66.2867 268.855C66.3316 268.22 65.8529 267.669 65.2181 267.624C65.2181 267.624 65.2176 267.624 65.217 267.624Z" fill="black"/>
</g>
<g clip-path="url(#clip2)">
<path d="M341.717 40.6787L412.273 41.2944L412.102 60.9249L341.546 60.3092L341.717 40.6787Z" fill="#FFDA45"/>
<path d="M404.406 41.2256L412.273 41.2942L412.102 60.9247L404.235 60.8561L404.406 41.2256Z" fill="#FAC800"/>
<path d="M382.177 41.0317L404.498 41.2265L404.327 60.857L382.005 60.6622L382.177 41.0317Z" fill="#FFF5F5"/>
<path d="M426.23 115.922L356.217 115.311C350.491 115.261 345.89 110.578 345.939 104.852C345.989 99.1263 350.672 94.5249 356.398 94.5749L426.411 95.1858L426.23 115.922Z" fill="#F0F5FA"/>
<path d="M419.093 95.1226L426.411 95.1864L426.23 115.922L418.912 115.858L419.093 95.1226Z" fill="#E4ECF2"/>
<path d="M429.877 117.326L356.205 116.683C349.732 116.627 344.511 111.314 344.567 104.841C344.624 98.3671 349.936 93.1465 356.41 93.203L430.082 93.846C430.84 93.8526 431.449 94.4723 431.443 95.2302C431.436 95.988 430.816 96.597 430.058 96.5904L356.386 95.9475C351.426 95.9042 347.355 99.9043 347.312 104.865C347.268 109.825 351.269 113.895 356.229 113.939L429.901 114.582C430.659 114.588 431.268 115.208 431.262 115.966C431.255 116.724 430.635 117.333 429.877 117.326Z" fill="#6E9EFF"/>
<path d="M426.339 103.471L369.82 102.978C369.062 102.971 368.453 102.351 368.46 101.593C368.467 100.836 369.086 100.227 369.844 100.233L426.363 100.726L426.339 103.471Z" fill="#C5D7E6"/>
<path d="M426.278 110.383L384.766 110.021C384.009 110.014 383.4 109.394 383.406 108.636C383.413 107.879 384.032 107.27 384.79 107.276L426.302 107.638L426.278 110.383Z" fill="#C5D7E6"/>
<path d="M414.7 92.3474L346.574 91.7528C342.868 91.7205 339.89 88.6902 339.922 84.9843C339.955 81.2786 342.985 78.3006 346.691 78.333L414.817 78.9275L414.7 92.3474L414.7 92.3474Z" fill="#F0F5FA"/>
<path d="M407.499 78.8633L414.817 78.9271L414.7 92.347L407.381 92.2831L407.499 78.8633Z" fill="#E4ECF2"/>
<path d="M418.886 93.7561L346.562 93.125C342.105 93.0861 338.511 89.4289 338.55 84.9723C338.589 80.5157 342.246 76.9218 346.703 76.9607L419.027 77.5918C419.785 77.5984 420.394 78.2182 420.387 78.976C420.38 79.7338 419.761 80.3429 419.003 80.3363L346.679 79.7051C343.736 79.6794 341.32 82.0529 341.294 84.9962C341.269 87.9395 343.642 90.3548 346.586 90.3805L418.91 91.0117C419.668 91.0183 420.277 91.6381 420.27 92.3959C420.263 93.1537 419.644 93.7627 418.886 93.7561Z" fill="#74D84B"/>
<path d="M414.744 87.2947L395.475 87.1265C394.718 87.1199 394.109 86.5002 394.115 85.7423C394.122 84.9845 394.742 84.3755 395.499 84.3821L414.768 84.5502L414.744 87.2947Z" fill="#C5D7E6"/>
<path d="M363.146 24.5845L417.828 25.0617C421.945 25.0976 425.253 28.4639 425.217 32.5804C425.181 36.697 421.814 40.0049 417.698 39.969L363.016 39.4918L363.146 24.5845Z" fill="#F0F5FA"/>
<path d="M417.828 25.0614L410.51 24.9976C414.626 25.0335 417.934 28.3998 417.898 32.5163C417.862 36.6329 414.496 39.9408 410.38 39.9049L417.698 39.9688C421.815 40.0047 425.181 36.6966 425.217 32.5801C425.253 28.4637 421.945 25.0974 417.828 25.0614Z" fill="#E4ECF2"/>
<path d="M417.686 41.3415L358.341 40.8236C357.583 40.817 356.974 40.1972 356.981 39.4394C356.988 38.6816 357.607 38.0725 358.365 38.0792L417.71 38.597C421.063 38.6263 423.815 35.922 423.845 32.5687C423.874 29.2153 421.169 26.4632 417.816 26.434L358.471 25.9161C357.714 25.9095 357.105 25.2897 357.111 24.5319C357.118 23.7741 357.737 23.165 358.495 23.1716L417.84 23.6895C422.707 23.732 426.631 27.7258 426.589 32.5924C426.547 37.459 422.553 41.3839 417.686 41.3415Z" fill="#FC435F"/>
<path d="M349.487 60.3784L431.069 61.0904L430.925 77.6956L349.342 76.9836L349.487 60.3784Z" fill="#6E9EFF"/>
<path d="M406.156 60.873L431.069 61.0905L430.925 77.6957L406.011 77.4782L406.156 60.873Z" fill="#BF6930"/>
<path d="M423.751 61.0264L431.069 61.0902L430.925 77.6954L423.606 77.6316L423.751 61.0264Z" fill="#AD5F2C"/>
<path d="M377.457 71.6703L358.793 71.5074C357.277 71.4942 356.059 70.2547 356.073 68.7391C356.086 67.2234 357.325 66.0054 358.841 66.0186L377.505 66.1815C379.02 66.1947 380.238 67.4342 380.225 68.9498C380.212 70.4655 378.973 71.6835 377.457 71.6703Z" fill="#FFF5F5"/>
<path d="M423.057 70.6962L414.122 70.6182C413.364 70.6116 412.755 69.9919 412.762 69.234C412.768 68.4762 413.388 67.8672 414.146 67.8738L423.081 67.9518C423.838 67.9584 424.447 68.5781 424.441 69.336C424.434 70.0938 423.815 70.7028 423.057 70.6962Z" fill="#FFF5F5"/>
<path d="M398.226 54.0673C397.468 54.0607 396.859 53.4409 396.865 52.6831L396.895 49.2687C396.902 48.5109 397.521 47.9018 398.279 47.9085C399.037 47.9151 399.646 48.5348 399.64 49.2926L399.61 52.7071C399.603 53.4649 398.984 54.0739 398.226 54.0673Z" fill="#677A8F"/>
<path d="M393.225 54.0234C392.467 54.0167 391.858 53.397 391.864 52.6392L391.894 49.2247C391.901 48.4669 392.521 47.8579 393.278 47.8645C394.036 47.8711 394.645 48.4909 394.639 49.2487L394.609 52.6631C394.602 53.4209 393.983 54.03 393.225 54.0234Z" fill="#677A8F"/>
<path d="M388.224 53.9799C387.466 53.9733 386.857 53.3535 386.864 52.5957L386.893 49.1813C386.9 48.4235 387.52 47.8144 388.278 47.8211C389.035 47.8277 389.644 48.4474 389.638 49.2052L389.608 52.6197C389.601 53.3775 388.982 53.9865 388.224 53.9799Z" fill="#677A8F"/>
<path d="M363.055 30.666L394.366 30.9393C395.124 30.9459 395.733 31.5656 395.727 32.3235C395.72 33.0813 395.1 33.6903 394.342 33.6837L363.031 33.4104L363.055 30.666Z" fill="#C5D7E6"/>
</g>
<g clip-path="url(#clip3)">
<path d="M131.087 81.4548L127.637 78.4025L87.6028 123.653C87.6028 123.653 81.7692 120.901 73.7328 107.903C68.3144 99.1398 60.4106 96.9365 55.8359 96.4306C54.8628 96.3229 53.5328 96.3917 52.7996 95.7431L52.7537 95.7025L52.7079 95.662C51.9748 95.0133 51.8807 93.6848 51.6554 92.7323C50.5958 88.2533 47.4456 80.6766 38.0872 76.3666C24.2075 69.9742 20.7643 64.5195 20.7643 64.5195L60.7987 19.2688L57.3487 16.2165C56.4219 15.3966 55.0061 15.4832 54.1861 16.4099L12.4458 63.5888C11.6259 64.5156 11.7126 65.9315 12.6393 66.7513L42.7832 93.4205C43.6725 94.2072 44.0586 95.436 43.7274 96.5762C43.0127 99.0354 43.7155 101.796 45.7609 103.606C47.8064 105.416 50.6324 105.777 52.9863 104.768C54.0777 104.3 55.3442 104.533 56.2335 105.32L86.3774 131.989C87.3042 132.809 88.7201 132.723 89.54 131.796L131.28 84.6171C132.101 83.6906 132.014 82.2746 131.087 81.4548Z" fill="#F87C68"/>
<path d="M21.0294 71.1826L23.9821 67.8451C21.5723 65.7992 20.7646 64.5198 20.7646 64.5198L60.799 19.2691L57.3487 16.2165C56.4219 15.3966 55.0061 15.4832 54.1861 16.4099L12.4458 63.5888C11.6259 64.5156 11.7125 65.9314 12.6393 66.7514L21.2227 74.3453C20.2959 73.5253 20.2094 72.1094 21.0294 71.1826Z" fill="#EC625E"/>
<path d="M129.799 73.8768C127.405 72.0785 122.69 67.7916 117.149 58.8301C109.113 45.8328 95.6075 47.2649 95.6075 47.2649L93.0223 47.7778L53.0317 92.979L52.8077 95.6413L52.7535 95.7026L52.7991 95.7429C53.5324 96.3917 54.4509 96.7885 55.4238 96.896C59.9986 97.4017 67.9023 99.6052 73.3208 108.369C81.3571 121.366 87.6561 124.53 87.6561 124.53L130.071 76.5892C130.789 75.7781 130.665 74.5273 129.799 73.8768Z" fill="#DBEDFF"/>
<path d="M103.006 48.073C98.8011 46.9266 95.6076 47.2648 95.6076 47.2648L93.0224 47.7777L53.0318 92.9788L52.8078 95.6411L52.7536 95.7024L52.7992 95.7428C53.5325 96.3915 54.4509 96.7883 55.4239 96.8958C56.5123 97.0161 57.7904 97.2345 59.1772 97.6124L103.006 48.073Z" fill="#B5DCFF"/>
<path d="M117.781 79.5777C117.751 79.5511 117.722 79.5234 117.694 79.4943C114.655 76.3597 111.638 72.3828 108.726 67.6735C105.765 62.8829 101.695 59.6084 96.6304 57.9395C95.8154 57.671 95.373 56.7927 95.6412 55.978C95.9098 55.1631 96.788 54.7203 97.6028 54.9888C103.38 56.8929 108.012 60.6111 111.368 66.0398C114.162 70.5586 117.041 74.358 119.924 77.332C120.521 77.9479 120.506 78.9313 119.89 79.5284C119.303 80.0974 118.383 80.1104 117.781 79.5777Z" fill="#8BCAFF"/>
<path d="M113.407 84.5221C113.377 84.4955 113.348 84.468 113.319 84.4387C110.281 81.3051 107.264 77.328 104.352 72.6179C101.39 67.8275 97.3203 64.5526 92.256 62.8839C91.4411 62.6153 90.9984 61.7372 91.2668 60.9224C91.5354 60.1075 92.4136 59.6647 93.2283 59.9332C99.006 61.8373 103.637 65.5553 106.994 70.9842C109.789 75.5041 112.667 79.3033 115.549 82.2762C116.147 82.8922 116.132 83.8754 115.516 84.4727C114.929 85.0419 114.009 85.0548 113.407 84.5221Z" fill="#8BCAFF"/>
<path d="M91.5338 109.245C91.5038 109.218 91.4746 109.191 91.4465 109.161C88.4076 106.027 85.3906 102.05 82.4791 97.3405C79.5172 92.5505 75.4475 89.2756 70.3832 87.6066C69.5681 87.3382 69.1257 86.4598 69.394 85.6451C69.6626 84.8302 70.5408 84.3874 71.3555 84.6559C77.1331 86.56 81.7645 90.2779 85.1212 95.7068C87.9151 100.226 90.7936 104.025 93.6768 106.999C94.2741 107.615 94.2587 108.598 93.6427 109.196C93.0561 109.765 92.1359 109.778 91.5338 109.245Z" fill="#8BCAFF"/>
<path d="M87.1591 114.189C87.1292 114.163 87.1 114.135 87.0719 114.106C84.0332 110.972 81.016 106.995 78.1043 102.285C75.1425 97.4949 71.0728 94.2202 66.0085 92.5513C65.1937 92.2827 64.7511 91.4045 65.0193 90.5898C65.288 89.7749 66.1661 89.3321 66.9809 89.6006C72.7585 91.5047 77.3897 95.2229 80.7464 100.652C83.5405 105.17 86.4192 108.97 89.3022 111.944C89.8995 112.56 89.8841 113.543 89.268 114.14C88.6816 114.709 87.7613 114.722 87.1591 114.189Z" fill="#8BCAFF"/>
<path d="M109.032 89.4665C109.002 89.44 108.973 89.4123 108.945 89.3831C105.906 86.2484 102.889 82.2713 99.9773 77.5622C97.0154 72.7722 92.9458 69.4973 87.8814 67.8283C87.0665 67.5597 86.624 66.6815 86.8922 65.8668C87.1608 65.0519 88.039 64.6091 88.8537 64.8776C94.6314 66.7817 99.2628 70.4996 102.619 75.9285C105.413 80.4474 108.292 84.2466 111.175 87.2208C111.772 87.8367 111.757 88.8201 111.141 89.4173C110.554 89.9862 109.634 89.9992 109.032 89.4665Z" fill="#8BCAFF"/>
<path d="M100.283 99.3559C100.253 99.3295 100.224 99.3018 100.196 99.2728C97.1576 96.1391 94.1405 92.162 91.2282 87.4519C88.2664 82.6615 84.1967 79.3867 79.1324 77.7179C78.3174 77.4494 77.875 76.571 78.1432 75.7563C78.4119 74.9415 79.2901 74.4986 80.1048 74.7671C85.8824 76.6712 90.5137 80.3893 93.8703 85.8182C96.665 90.3381 99.5436 94.1373 102.426 97.1101C103.023 97.7261 103.008 98.7094 102.392 99.3067C101.806 99.8755 100.885 99.8886 100.283 99.3559Z" fill="#8BCAFF"/>
<path d="M104.657 94.4113C104.627 94.3848 104.598 94.3571 104.57 94.3279C101.531 91.1933 98.5142 87.2164 95.6026 82.5071C92.6409 77.7171 88.5716 74.4419 83.5068 72.7731C82.6919 72.5045 82.2494 71.6263 82.5176 70.8116C82.7862 69.9967 83.6644 69.5539 84.4791 69.8224C90.2568 71.7265 94.8882 75.4444 98.2446 80.8734C101.039 85.3922 103.917 89.1916 106.8 92.1654C107.398 92.7814 107.382 93.7648 106.766 94.3619C106.18 94.9309 105.26 94.944 104.657 94.4113Z" fill="#8BCAFF"/>
<path d="M95.9084 104.3C95.8786 104.274 95.8494 104.246 95.8211 104.217C92.7824 101.083 89.7654 97.1058 86.8537 92.3962C83.8919 87.6061 79.8223 84.3312 74.7578 82.6624C73.9428 82.3939 73.5003 81.5157 73.7686 80.7008C74.0372 79.886 74.9154 79.4431 75.7301 79.7116C81.5078 81.6157 86.1393 85.3335 89.4958 90.7625C92.29 95.2817 95.1686 99.081 98.0516 102.054C98.6487 102.67 98.6335 103.654 98.0176 104.251C97.431 104.82 96.5105 104.833 95.9084 104.3Z" fill="#8BCAFF"/>
<path d="M65.0271 16.5719C67.1038 18.7288 71.9334 22.8863 81.5033 27.2938C95.3831 33.686 95.6075 47.2649 95.6075 47.2649L52.7535 95.7026L52.7077 95.6621C51.9746 95.0134 51.4688 94.1502 51.2434 93.1975C50.1839 88.7184 47.0336 81.1421 37.6753 76.832C23.7955 70.4395 19.887 64.5731 19.887 64.5731L62.3016 16.6321C63.0194 15.821 64.276 15.7916 65.0271 16.5719Z" fill="#DBEDFF"/>
<path d="M68.6533 19.7681C66.9832 18.4815 65.8096 17.3846 65.0271 16.5721C64.276 15.7918 63.0194 15.8212 62.3018 16.6324L19.8871 64.5734C19.8871 64.5734 21.1617 66.4819 24.826 69.3059L68.6533 19.7681Z" fill="#B5DCFF"/>
<path d="M60.8335 29.1945C60.2314 28.6618 60.1321 27.7469 60.6254 27.095C61.143 26.4108 62.1173 26.2758 62.8013 26.7934C66.1045 29.2925 70.2262 31.6866 75.052 33.9093C80.8497 36.5793 85.1044 40.723 87.6983 46.2254C88.064 47.0014 87.7315 47.927 86.9555 48.2929C86.1794 48.6588 85.2541 48.326 84.888 47.5501C82.6145 42.7269 78.8678 39.087 73.7525 36.7308C68.7236 34.4148 64.4086 31.9048 60.9269 29.2707C60.8946 29.2466 60.8634 29.2209 60.8335 29.1945Z" fill="#8BCAFF"/>
<path d="M56.459 34.1388C55.8569 33.6061 55.7576 32.6909 56.251 32.0392C56.7687 31.3551 57.7428 31.2201 58.4269 31.7379C61.7291 34.2366 65.8508 36.6307 70.6775 38.8536C76.4752 41.5236 80.7298 45.6673 83.3237 51.1698C83.6895 51.9457 83.357 52.8713 82.5809 53.2372C81.8049 53.6032 80.8794 53.2705 80.5135 52.4944C78.2401 47.671 74.4932 44.0315 69.3779 41.6751C64.348 39.3585 60.0329 36.8487 56.5524 34.215C56.5199 34.1908 56.4888 34.1652 56.459 34.1388Z" fill="#8BCAFF"/>
<path d="M34.5862 58.8619C33.984 58.3292 33.8849 57.4142 34.378 56.7625C34.8956 56.0782 35.87 55.9433 36.554 56.4609C39.8573 58.9601 43.979 61.3542 48.8046 63.5764C54.602 66.2466 58.8569 70.3903 61.4508 75.8928C61.8165 76.6687 61.4841 77.5943 60.708 77.9602C59.9321 78.326 59.0065 77.9935 58.6405 77.2174C56.3669 72.3943 52.6205 68.7539 47.5051 66.3979C42.4763 64.0821 38.1613 61.5723 34.6794 58.938C34.6472 58.914 34.616 58.8883 34.5862 58.8619Z" fill="#8BCAFF"/>
<path d="M30.2117 63.8063C29.6095 63.2736 29.5104 62.3586 30.0035 61.7068C30.5211 61.0226 31.4954 60.8876 32.1794 61.4053C35.4826 63.9044 39.6043 66.2984 44.4301 68.5211C50.2278 71.1911 54.4825 75.3349 57.0764 80.8373C57.4422 81.6132 57.1097 82.5388 56.3336 82.9047C55.5575 83.2707 54.6322 82.9379 54.2661 82.162C51.9928 77.3385 48.2458 73.699 43.1306 71.3426C38.1017 69.0267 33.7867 66.5167 30.305 63.8825C30.2728 63.8583 30.2415 63.8327 30.2117 63.8063Z" fill="#8BCAFF"/>
<path d="M52.0843 39.0836C51.4821 38.5509 51.383 37.6359 51.8761 36.9842C52.3937 36.2999 53.3681 36.165 54.0521 36.6826C57.3554 39.1818 61.4771 41.5759 66.3028 43.7981C72.1001 46.4683 76.355 50.612 78.9489 56.1144C79.3147 56.8904 78.9822 57.816 78.2061 58.1819C77.4302 58.5477 76.5046 58.2152 76.1386 57.4391C73.865 52.616 70.1186 48.9756 65.0032 46.6196C59.9744 44.3038 55.6594 41.794 52.1775 39.1597C52.1453 39.1357 52.1141 39.11 52.0843 39.0836Z" fill="#8BCAFF"/>
<path d="M43.3354 48.9729C42.7332 48.4401 42.6339 47.525 43.1273 46.8732C43.6451 46.1891 44.6191 46.0542 45.3034 46.5718C48.6055 49.0707 52.7272 51.4647 57.5538 53.6876C63.3517 56.3575 67.6062 60.5014 70.2001 66.0038C70.5659 66.7797 70.2334 67.7053 69.4573 68.0713C68.6812 68.4372 67.7556 68.1047 67.3898 67.3285C65.1165 62.5051 61.3695 58.8655 56.2543 56.5091C51.2243 54.1926 46.9092 51.6827 43.4286 49.0492C43.3962 49.0248 43.3652 48.9992 43.3354 48.9729Z" fill="#8BCAFF"/>
<path d="M47.7098 44.028C47.1077 43.4953 47.0084 42.5804 47.5017 41.9286C48.0193 41.2443 48.9936 41.1094 49.6776 41.627C52.9808 44.1261 57.1025 46.5202 61.9283 48.7428C67.7259 51.4127 71.9808 55.5564 74.5746 61.059C74.9403 61.8349 74.6078 62.7605 73.8318 63.1264C73.0557 63.4924 72.1302 63.1597 71.7643 62.3837C69.4908 57.5601 65.744 53.9204 60.6289 51.5644C55.6 49.2485 51.2849 46.7384 47.8034 44.1043C47.7709 44.0801 47.7397 44.0544 47.7098 44.028Z" fill="#8BCAFF"/>
<path d="M38.9609 53.9174C38.3587 53.3847 38.2593 52.4697 38.7528 51.8178C39.2706 51.1337 40.2447 50.9988 40.9289 51.5164C44.2316 54.0155 48.3533 56.4096 53.1793 58.6322C58.9767 61.3024 63.2316 65.4461 65.8255 70.9485C66.1912 71.7245 65.8587 72.6501 65.0827 73.016C64.3066 73.3819 63.381 73.0494 63.0152 72.2732C60.7416 67.4501 56.995 63.8098 51.8798 61.4537C46.8505 59.1377 42.5354 56.6278 39.0541 53.9938C39.0217 53.9694 38.9907 53.9438 38.9609 53.9174Z" fill="#8BCAFF"/>
</g>
<g clip-path="url(#clip4)">
<path d="M697.56 17.2653L745.769 44.5527C746.234 44.816 746.682 45.1099 747.108 45.4323C751.972 49.2564 753.269 56.0819 750.149 61.4241L740.879 77.814L685.688 31.6673L697.56 17.2653Z" fill="#35495E"/>
<path d="M654.007 73.8548C653.182 72.7576 653.083 71.2762 653.755 70.0786L681.04 21.845C682.764 18.8088 685.713 16.6623 689.132 15.9539C692.551 15.2456 696.11 16.044 698.899 18.1451C703.549 21.8015 704.957 28.2391 702.26 33.5033L689.222 42.5689L689.233 42.5555L696.104 30.3816C696.873 29.0254 696.992 27.3962 696.431 25.9422C695.869 24.4882 694.685 23.3627 693.205 22.8752C690.777 22.1429 688.168 23.2158 686.958 25.4446L666.105 62.3092L654.007 73.8548Z" fill="#2C3E50"/>
<path d="M689.233 42.5555L696.104 30.3816C696.873 29.0254 696.992 27.3962 696.431 25.9422C695.869 24.4883 694.685 23.3627 693.205 22.8752C690.777 22.1429 688.168 23.2159 686.958 25.4446L666.105 62.3092L689.233 42.5555Z" fill="#F9EAB0"/>
<path d="M715.17 47.7267L751.152 89.8573C752.38 91.3161 752.209 93.4908 750.767 94.7391L708.954 130.451C704.302 134.537 697.349 134.566 692.664 130.519C692.268 130.163 691.896 129.781 691.55 129.377L655.567 87.2462L715.17 47.7267Z" fill="#E64C3C"/>
<path d="M709.577 116.293C709.642 116.214 709.713 116.141 709.79 116.075L740.071 90.2123C740.803 89.6682 741.831 89.7844 742.422 90.478C743.014 91.1716 742.966 92.205 742.313 92.8413L712.039 118.708C711.357 119.292 710.342 119.258 709.701 118.629C709.06 118 709.006 116.986 709.577 116.293Z" fill="#3F5C6C"/>
<path d="M709.226 105.215C709.291 105.136 709.362 105.064 709.44 104.998L729.184 88.1277C729.913 87.5363 730.981 87.6341 731.59 88.348C732.2 89.0619 732.13 90.1318 731.432 90.7597L711.689 107.633C711.007 108.224 709.986 108.192 709.342 107.56C708.698 106.928 708.648 105.907 709.226 105.215Z" fill="#3F5C6C"/>
<path d="M700.96 103.085L728.622 79.4744C729.349 78.8535 729.436 77.7603 728.815 77.0328L717.572 63.8604C716.951 63.1329 715.857 63.0465 715.13 63.6674L687.468 87.2782C686.74 87.8992 686.654 88.9923 687.275 89.7198L698.518 102.892C699.139 103.62 700.232 103.706 700.96 103.085Z" fill="#ECF0F1"/>
<path d="M692.673 130.522C692.273 130.166 691.899 129.783 691.554 129.375L655.58 87.2452L667.21 79.5327L696.142 113.412L702.963 121.414L709.95 129.597L708.951 130.455C704.3 134.533 697.356 134.561 692.673 130.522Z" fill="#C03A2B"/>
<path d="M672.977 88.3248L714.787 52.6032C714.941 52.4707 715.083 52.3253 715.212 52.1687C716.35 50.7811 716.24 48.754 714.957 47.4985C713.675 46.2431 711.646 46.1752 710.283 47.3422L668.166 83.3271C666.976 84.3339 665.398 84.7559 663.864 84.4775C662.331 84.199 661.002 83.2493 660.242 81.8885C659.06 79.6521 659.618 76.893 661.574 75.2906L703.532 39.4441C703.686 39.3116 703.829 39.1662 703.958 39.0095C705.105 37.6251 705.002 35.5931 703.72 34.3321C702.439 33.0711 700.405 33.0006 699.04 34.1698L656.912 70.1679C654.26 72.4369 652.714 75.7378 652.669 79.2272C652.623 82.7167 654.083 86.0567 656.674 88.394C661.366 92.4377 668.319 92.4082 672.977 88.3248Z" fill="#802F34"/>
<path d="M660.242 81.8888C659.06 79.6525 659.618 76.8933 661.575 75.2909L703.533 39.4444L710.283 47.3426L668.166 83.3274C666.976 84.3342 665.398 84.7562 663.865 84.4778C662.331 84.1993 661.002 83.2497 660.242 81.8888Z" fill="#F9EAB0"/>
</g>
<defs>
<clipPath id="clip0">
<rect width="88.8283" height="88.8283" fill="white" transform="translate(470.411 160.707) rotate(-38.5)"/>
</clipPath>
<clipPath id="clip1">
<rect width="69.1844" height="69.1844" fill="white" transform="translate(5.82611 208) rotate(4)"/>
</clipPath>
<clipPath id="clip2">
<rect width="93.5276" height="93.5276" fill="white" transform="translate(338.816 23) rotate(0.499999)"/>
</clipPath>
<clipPath id="clip3">
<rect width="102.936" height="102.936" fill="white" transform="translate(68.4714 0.263184) rotate(41.5)"/>
</clipPath>
<clipPath id="clip4">
<rect width="100.421" height="100.421" fill="white" transform="translate(773.611 67.1226) rotate(129.5)"/>
</clipPath>
</defs>
</svg>
