<svg width="706" height="262" viewBox="0 0 706 262" fill="none" xmlns="http://www.w3.org/2000/svg">
<g clip-path="url(#clip0)">
<path fill-rule="evenodd" clip-rule="evenodd" d="M453.345 206.674L461.47 211.085C462.015 211.382 462.706 211.177 463.002 210.631C470.21 197.356 477.415 184.087 484.619 170.817C484.916 170.272 484.711 169.581 484.165 169.285L476.041 164.874L461.839 184.224L453.345 206.674Z" fill="#EFF6FF"/>
<path fill-rule="evenodd" clip-rule="evenodd" d="M490.048 144.8C480.379 139.55 468.778 143.526 462.912 152.838C461.86 155.255 462.199 163.038 463.717 164.048L476.041 164.873L480.237 157.145C481.874 154.131 485.675 153.005 488.689 154.641L493.88 157.46L498.443 155.216L498.316 149.289L490.048 144.8Z" fill="#FDE588"/>
<path fill-rule="evenodd" clip-rule="evenodd" d="M458.636 160.316L455.035 166.62C453.333 169.673 455.456 170.952 457.075 172.612L460.912 176.554L468.478 178.803L476.041 164.874L464.638 158.682C463.168 157.884 460.082 157.681 458.636 160.316Z" fill="#7E707D"/>
<path fill-rule="evenodd" clip-rule="evenodd" d="M498.316 149.289L493.88 157.459C493.484 158.188 493.722 159.188 494.488 159.515L513.958 167.759C514.722 168.077 515.27 167.52 516.014 167.15L520.667 164.822C521.414 164.447 520.741 163.249 520.059 162.767L500.371 148.68C499.692 148.192 498.715 148.554 498.316 149.289Z" fill="#EFF6FF"/>
<path fill-rule="evenodd" clip-rule="evenodd" d="M433.103 175.097L416.985 173.222L403.433 186.763C403.504 189.849 403.486 192.799 403.609 195.118C403.733 200.3 403.957 205.24 406.638 210.271C416.477 228.735 442.503 226.644 452.102 208.965L453.346 206.674L457.13 199.703L460.912 192.738L456.621 181.814L442.948 187.787L440.216 192.572C438.091 196.295 432.652 196.055 432.795 189.836L433.088 176.947C433.102 176.331 433.106 175.708 433.103 175.097Z" fill="#FDE588"/>
<path fill-rule="evenodd" clip-rule="evenodd" d="M441.935 182.435C440.941 184.267 441.409 186.499 442.947 187.787C443.166 187.973 443.406 188.133 443.67 188.277C445.76 189.411 448.374 188.637 449.509 186.547C450.643 184.457 449.869 181.844 447.779 180.709C447.573 180.597 447.365 180.499 447.152 180.427C445.193 179.736 442.961 180.546 441.935 182.435Z" fill="#FE8D94"/>
<path fill-rule="evenodd" clip-rule="evenodd" d="M430.878 115.84L446.844 121.022L448.951 117.141C449.294 116.509 449.002 115.815 448.314 115.59L434.861 111.23C434.173 111.005 433.325 111.333 432.985 111.959L430.878 115.84L430.878 115.84Z" fill="#85BEEF"/>
<path fill-rule="evenodd" clip-rule="evenodd" d="M416.69 124.678C415.826 126.269 416.921 128.127 419.137 128.825C421.347 129.519 423.842 128.799 424.705 127.209C425.569 125.618 424.474 123.76 422.264 123.066C420.048 122.368 417.553 123.088 416.69 124.678Z" fill="#85BEEF"/>
<path fill-rule="evenodd" clip-rule="evenodd" d="M434.367 126.708C433.503 128.298 434.598 130.157 436.808 130.851C439.024 131.549 441.519 130.829 442.382 129.239C443.246 127.648 442.151 125.79 439.935 125.092C437.725 124.398 435.23 125.117 434.367 126.708Z" fill="#85BEEF"/>
<path fill-rule="evenodd" clip-rule="evenodd" d="M474.863 153.447L470.34 161.778L476.041 164.874L480.237 157.145C481.874 154.131 485.674 153.005 488.689 154.642L493.879 157.46L495.859 153.814L489.606 150.419C483.308 146.999 476.5 150.432 474.863 153.447Z" fill="#FDD76F"/>
<path fill-rule="evenodd" clip-rule="evenodd" d="M448.461 202.074C438.31 217.989 432.443 220.484 421.97 222.439C433.034 225.228 445.944 220.305 452.102 208.965L460.912 192.738L455.211 189.643L448.461 202.074L448.461 202.074Z" fill="#FDD76F"/>
<path fill-rule="evenodd" clip-rule="evenodd" d="M462.912 152.838C460.822 151.704 458.203 152.475 457.065 154.57C455.961 156.603 456.665 159.141 458.637 160.316L458.8 160.412C460.89 161.547 463.503 160.772 464.638 158.682C465.776 156.587 465.002 153.973 462.912 152.838Z" fill="#FE8D94"/>
<path fill-rule="evenodd" clip-rule="evenodd" d="M470.34 161.778L476.041 164.873L468.478 178.803L462.777 175.708L470.34 161.778Z" fill="#6A5C6B"/>
<path fill-rule="evenodd" clip-rule="evenodd" d="M429.997 159.389L414.655 161.52L400.835 171.42C402.891 175.012 403.304 181.125 403.432 186.763L433.103 175.097C433.091 167.916 432.048 161.075 429.997 159.389Z" fill="#EFF6FF"/>
<path fill-rule="evenodd" clip-rule="evenodd" d="M426.333 150.515L397.17 162.546C394.736 163.551 393.559 166.377 394.564 168.811C395.572 171.254 398.301 172.171 400.835 171.42L429.997 159.389C432.431 158.384 433.608 155.559 432.603 153.124C431.595 150.682 428.776 149.507 426.333 150.515Z" fill="#FDE588"/>
<path fill-rule="evenodd" clip-rule="evenodd" d="M450.784 174.066L447.152 180.427C447.365 180.499 447.573 180.597 447.779 180.709C449.869 181.844 450.643 184.457 449.509 186.547L460.912 192.739L464.693 185.774L468.478 178.803L457.075 172.612C455.054 171.514 452.017 172.014 450.784 174.066Z" fill="#7E707D"/>
<path fill-rule="evenodd" clip-rule="evenodd" d="M455.035 166.62C453.005 165.718 450.58 166.513 449.502 168.5C448.451 170.435 449.037 172.82 450.784 174.066C450.93 174.167 451.078 174.263 451.234 174.347C453.323 175.482 455.937 174.708 457.075 172.612C458.21 170.522 457.436 167.909 455.346 166.774C455.242 166.718 455.142 166.67 455.035 166.62Z" fill="#FE8D94"/>
<path fill-rule="evenodd" clip-rule="evenodd" d="M462.777 175.708L458.992 182.678L455.21 189.643L460.912 192.739L464.693 185.774L468.478 178.803L462.777 175.708Z" fill="#6A5C6B"/>
<path fill-rule="evenodd" clip-rule="evenodd" d="M426.292 199.308C422.792 199.4 420.027 202.315 420.119 205.815C420.209 209.32 423.123 212.085 426.623 211.993C430.126 211.895 432.893 208.989 432.798 205.48C432.706 201.981 429.797 199.219 426.292 199.308Z" fill="#FE8D94"/>
<path fill-rule="evenodd" clip-rule="evenodd" d="M457.829 207.823C457.533 208.368 456.842 208.573 456.296 208.277L461.47 211.085C462.015 211.382 462.706 211.177 463.002 210.631C470.21 197.356 477.415 184.087 484.62 170.818C484.916 170.272 484.711 169.581 484.166 169.285L478.992 166.476C479.538 166.772 479.742 167.463 479.446 168.009L457.829 207.823Z" fill="#D9EEFF"/>
<path fill-rule="evenodd" clip-rule="evenodd" d="M426.333 150.515L421.438 152.534C423.617 152.134 425.87 153.297 426.746 155.423C427.375 156.947 427.152 158.618 426.308 159.899C425.796 160.677 425.056 161.315 424.136 161.694C424.168 161.718 424.199 161.743 424.23 161.767L429.997 159.389C432.431 158.384 433.608 155.558 432.603 153.124C431.595 150.681 428.776 149.507 426.333 150.515Z" fill="#FDD76F"/>
<path fill-rule="evenodd" clip-rule="evenodd" d="M424.23 161.767C425.938 163.319 426.929 168.503 427.18 174.409C427.229 175.387 427.25 176.387 427.251 177.399L433.103 175.097C433.091 167.916 432.048 161.075 429.997 159.389L424.23 161.767Z" fill="#D9EEFF"/>
<path fill-rule="evenodd" clip-rule="evenodd" d="M427.232 179.255L427.082 185.694C426.958 191.358 430.116 194.441 434.591 194.47C433.505 193.731 432.741 192.223 432.795 189.836L433.087 176.947C433.102 176.331 433.106 175.709 433.103 175.097L427.251 177.399C427.251 178.016 427.245 178.63 427.232 179.255Z" fill="#FDD76F"/>
<path fill-rule="evenodd" clip-rule="evenodd" d="M495.859 153.814L493.88 157.46C493.484 158.189 493.722 159.188 494.488 159.515L513.958 167.759C514.722 168.077 515.27 167.52 516.013 167.15L520.667 164.823C521.414 164.447 520.741 163.249 520.059 162.767L517.892 161.212L515.507 162.4C514.77 162.773 513.997 163.662 513.268 163.266L495.859 153.814Z" fill="#D9EEFF"/>
<path fill-rule="evenodd" clip-rule="evenodd" d="M480.914 228.044L471.168 225.689C470.425 225.508 469.514 225.928 469.136 226.623L468.317 228.133L466.814 230.901L477.906 233.585C478.648 233.765 479.56 233.345 479.937 232.651L481.577 229.63C481.954 228.936 481.656 228.224 480.914 228.044Z" fill="#85BEEF"/>
<path fill-rule="evenodd" clip-rule="evenodd" d="M460.978 241.649C461.947 239.864 461.034 237.494 458.938 236.356C456.842 235.218 454.357 235.742 453.387 237.528C452.418 239.314 453.332 241.683 455.427 242.821C457.523 243.959 460.008 243.435 460.978 241.649Z" fill="#85BEEF"/>
<path d="M415.025 127.343C415.453 128.404 416.301 129.3 417.426 129.911C417.8 130.114 418.205 130.286 418.636 130.421C421.619 131.358 424.931 130.298 426.174 128.008L431.684 117.861L444.414 121.992L442.852 124.871C442.207 124.27 441.384 123.797 440.437 123.498C440.437 123.498 440.436 123.498 440.436 123.498C437.452 122.561 434.141 123.621 432.897 125.911C432.307 126.998 432.238 128.228 432.702 129.375C433.131 130.434 433.977 131.329 435.099 131.938C435.473 132.141 435.877 132.312 436.306 132.447C439.293 133.387 442.607 132.329 443.852 130.037L448.297 121.849C448.297 121.849 448.297 121.849 448.298 121.848L450.42 117.939C450.449 117.887 450.474 117.834 450.496 117.78C450.821 117.085 450.854 116.304 450.578 115.608C450.276 114.851 449.64 114.265 448.829 114L435.38 109.641C433.933 109.168 432.236 109.836 431.516 111.162L429.424 115.015L429.424 115.015L425.175 122.84C424.531 122.241 423.709 121.768 422.765 121.472C419.778 120.532 416.464 121.59 415.22 123.881C414.631 124.967 414.561 126.197 415.025 127.343ZM437.309 129.257C436.424 128.979 435.951 128.488 435.802 128.121C435.714 127.902 435.724 127.713 435.836 127.507C436.263 126.721 437.892 126.204 439.434 126.688C440.323 126.968 440.798 127.461 440.947 127.829C441.035 128.047 441.025 128.236 440.913 128.442C440.486 129.228 438.855 129.744 437.309 129.257ZM434.409 112.842L447.142 116.969L446.037 119.003L433.307 114.872L434.409 112.842ZM421.762 124.661C421.762 124.662 421.762 124.662 421.763 124.662C421.994 124.735 422.198 124.822 422.375 124.918C422.873 125.189 423.16 125.527 423.27 125.798C423.358 126.017 423.348 126.206 423.236 126.412C422.809 127.198 421.18 127.715 419.639 127.231C418.75 126.951 418.274 126.458 418.125 126.09C418.037 125.872 418.047 125.683 418.159 125.477C418.585 124.691 420.217 124.175 421.762 124.661Z" fill="black"/>
<path d="M522.66 164.463C522.753 163.219 521.876 162.004 521.031 161.407L501.347 147.322C500.665 146.834 499.828 146.67 498.987 146.863C498.658 146.938 498.342 147.069 498.052 147.243L490.846 143.33C488.136 141.859 485.229 141.018 482.204 140.831C481.283 140.773 480.489 141.474 480.432 142.396C480.39 143.066 480.75 143.669 481.304 143.97C481.511 144.082 481.746 144.153 481.997 144.168C484.532 144.325 486.972 145.032 489.251 146.269L496.049 149.961L493.209 155.193L489.487 153.172C485.657 151.092 480.848 152.517 478.768 156.347L475.37 162.606L466.695 157.897C467.117 155.956 466.541 153.918 465.174 152.488C467.516 149.289 470.691 146.802 474.25 145.411C475.11 145.075 475.535 144.105 475.199 143.245C474.862 142.385 473.893 141.961 473.033 142.296C468.775 143.961 464.996 146.961 462.263 150.812C459.691 150.19 456.917 151.34 455.596 153.772C454.338 156.089 454.778 158.878 456.487 160.708L454.233 164.654C451.799 164.267 449.273 165.417 448.033 167.702C446.834 169.91 447.174 172.545 448.684 174.373L446.303 178.542C443.984 178.319 441.645 179.467 440.467 181.637C439.331 183.728 439.579 186.204 440.894 188.013L438.765 191.743C438.014 193.058 436.789 193.515 435.968 193.287C434.986 193.014 434.424 191.739 434.467 189.874L434.759 176.985C434.768 176.592 434.742 172.673 434.658 171.163C434.445 167.33 433.87 162.642 432.398 159.846C433.146 159.198 433.741 158.379 434.134 157.435C434.8 155.833 434.805 154.076 434.149 152.486C433.491 150.892 432.248 149.646 430.649 148.982C429.049 148.316 427.29 148.311 425.695 148.969L396.532 161C396.532 161 396.532 161 396.532 161.001C393.233 162.363 391.658 166.153 393.018 169.449C393.582 170.815 394.57 171.871 395.799 172.538C396.994 173.187 398.417 173.467 399.898 173.306C401.647 177.453 401.738 184.395 401.812 190.067C401.836 191.922 401.859 193.676 401.938 195.182C402.078 201.011 402.405 205.883 405.162 211.057C407.556 215.55 410.903 219.05 415.111 221.461C415.274 221.555 415.439 221.646 415.605 221.737C419.355 223.773 423.661 224.856 428.094 224.873C438.726 224.915 448.487 219.125 453.571 209.763L454.017 208.941L460.672 212.554C462.03 213.292 463.734 212.787 464.472 211.429L486.089 171.615C486.826 170.257 486.321 168.553 484.963 167.815L478.308 164.202L481.707 157.943C482.907 155.733 485.681 154.911 487.891 156.111L492.024 158.354C492.037 158.668 492.093 158.98 492.198 159.282C492.45 160.004 492.935 160.58 493.583 160.931C493.665 160.976 493.749 161.017 493.837 161.054L513.316 169.302C514.676 169.869 515.738 169.24 516.374 168.863C516.511 168.782 516.64 168.706 516.762 168.645L521.418 166.316C522.147 165.95 522.599 165.275 522.66 164.463ZM458.534 155.368C459.229 154.088 460.835 153.613 462.114 154.307C463.39 155 463.864 156.605 463.169 157.884C462.476 159.16 460.874 159.635 459.598 158.942C458.318 158.247 457.841 156.644 458.534 155.368ZM450.971 169.298C451.664 168.021 453.269 167.548 454.548 168.243C455.824 168.935 456.299 170.537 455.606 171.814C454.911 173.093 453.308 173.571 452.031 172.878C450.752 172.183 450.276 170.577 450.971 169.298ZM443.405 183.233C444.098 181.957 445.702 181.483 446.982 182.178C448.258 182.871 448.732 184.473 448.039 185.749C447.346 187.025 445.744 187.5 444.468 186.807C443.189 186.113 442.712 184.509 443.405 183.233ZM400.283 169.839C398.761 170.26 396.831 169.921 396.109 168.173C395.452 166.581 396.214 164.75 397.808 164.092L426.97 152.061C427.739 151.744 428.589 151.747 429.364 152.069C430.138 152.394 430.74 152.993 431.058 153.762C431.373 154.526 431.369 155.374 431.046 156.15C430.723 156.926 430.124 157.528 429.359 157.843L400.283 169.839ZM450.632 208.167C446.137 216.446 437.506 221.566 428.108 221.53C419.462 221.496 412.174 217.106 408.113 209.485C405.698 204.953 405.409 200.469 405.281 195.079C405.28 195.063 405.28 195.046 405.279 195.03C405.202 193.585 405.18 191.855 405.156 190.023C405.147 189.327 405.137 188.612 405.125 187.886L415.98 183.534C416.837 183.191 417.254 182.218 416.91 181.36C416.567 180.504 415.594 180.087 414.736 180.431L405.026 184.323C404.848 179.999 404.398 175.603 403.093 172.297L429.472 161.414C430.453 163.284 431.314 167.925 431.422 173.951L422.7 177.298C421.838 177.629 421.407 178.596 421.738 179.458C421.886 179.845 422.163 180.145 422.5 180.328C422.915 180.553 423.422 180.602 423.898 180.42L431.401 177.541L431.124 189.798C431.055 192.787 432.125 195.055 434.036 196.092C434.358 196.267 434.704 196.407 435.073 196.509C437.523 197.19 440.235 195.911 441.668 193.401L443.571 190.067C445.803 190.932 448.321 190.362 449.969 188.7L458.644 193.41L450.632 208.167ZM460.24 190.472L451.565 185.761C452.043 183.556 451.23 181.226 449.432 179.805L451.46 176.253C453.609 176.944 455.967 176.349 457.536 174.765L466.211 179.474L460.24 190.472ZM467.806 176.536L459.131 171.826C459.585 169.732 458.875 167.525 457.263 166.091L459.362 162.416C461.417 162.945 463.612 162.334 465.099 160.835L473.774 165.545L467.806 176.536ZM461.792 209.358L455.612 206.002L457.802 201.971L463.981 205.326L461.792 209.358ZM465.576 202.387L459.397 199.032L461.583 195.006L467.762 198.361L465.576 202.387ZM469.358 195.422L463.179 192.067L465.365 188.041L471.544 191.396L469.358 195.422ZM473.14 188.457L466.96 185.102L469.15 181.07L475.329 184.425L473.14 188.457ZM482.892 170.496L476.924 181.487L470.745 178.132L476.713 167.141L482.892 170.496ZM515.269 165.653C515.042 165.766 514.844 165.883 514.67 165.986C514.59 166.034 514.492 166.092 514.412 166.136L495.435 158.1L499.696 150.252L518.771 163.902L515.269 165.653Z" fill="black"/>
<path d="M426.247 197.637C424.108 197.693 422.119 198.58 420.645 200.134C419.172 201.687 418.392 203.72 418.448 205.858C418.503 208 419.388 209.991 420.941 211.466C421.46 211.959 422.032 212.374 422.645 212.706C423.864 213.368 425.243 213.702 426.667 213.665C426.668 213.664 426.669 213.664 426.67 213.664C431.09 213.541 434.589 209.849 434.47 205.436C434.354 201.023 430.665 197.525 426.247 197.637ZM426.578 210.322C425.332 210.354 424.148 209.899 423.243 209.041C422.338 208.181 421.823 207.021 421.791 205.771C421.758 204.525 422.213 203.34 423.071 202.434C423.93 201.529 425.089 201.012 426.334 200.98C427.181 200.958 427.982 201.164 428.678 201.542C430.098 202.313 431.081 203.799 431.127 205.525C431.196 208.097 429.156 210.248 426.578 210.322Z" fill="black"/>
<path d="M483.185 227.947C482.846 227.183 482.162 226.626 481.307 226.419L471.562 224.064C470.082 223.705 468.407 224.462 467.667 225.825L461.798 236.635C461.265 235.943 460.57 235.34 459.736 234.886C456.833 233.31 453.326 234.137 451.918 236.73C450.51 239.323 451.727 242.714 454.63 244.29C457.533 245.866 461.04 245.039 462.447 242.447C462.484 242.379 467.67 232.828 467.67 232.828L477.512 235.21C478.992 235.568 480.666 234.811 481.406 233.448L483.046 230.428C483.48 229.63 483.53 228.725 483.185 227.947ZM456.225 241.352C454.964 240.668 454.338 239.282 454.856 238.326C455.376 237.37 456.879 237.141 458.14 237.826C459.4 238.51 460.027 239.896 459.508 240.852C458.989 241.808 457.486 242.037 456.225 241.352ZM478.274 231.954L469.321 229.787L469.786 228.931C469.786 228.929 469.787 228.928 469.787 228.928L470.602 227.426C470.633 227.383 470.738 227.326 470.798 227.32L479.754 229.484L478.471 231.847C478.44 231.891 478.335 231.947 478.274 231.954Z" fill="black"/>
</g>
<g clip-path="url(#clip1)">
<path d="M162.664 179.368L153.392 181.701C150.238 182.64 146.946 183.757 143.589 185.046C140.259 186.324 137.091 187.684 134.14 189.085L125.689 193.546C116.952 198.711 111.823 203.828 113.021 206.949C114.9 211.844 131.851 210.542 150.612 203.341C169.373 196.139 182.841 185.764 180.962 180.869C179.767 177.757 172.569 177.38 162.664 179.368Z" fill="#DBEDFF"/>
<path d="M125.217 202.221C123.95 198.92 126.34 194.639 131.066 190.707L125.689 193.546C116.952 198.711 111.823 203.828 113.021 206.949C114.485 210.762 125.096 210.814 138.585 207.246C131.803 207.549 126.562 205.725 125.217 202.221Z" fill="#B5DCFF"/>
<path d="M158.475 174.754C158.162 175.955 157.322 176.938 156.205 177.479C154.921 178.102 153.903 179.27 153.527 180.792C152.932 183.202 154.241 185.73 156.552 186.636C159.266 187.701 162.273 186.245 163.152 183.512C163.597 182.128 163.406 180.692 162.743 179.519C162.148 178.465 162.094 177.187 162.529 176.057L177.777 136.386C178.707 133.967 177.413 131.264 174.946 130.47C172.479 129.677 169.852 131.121 169.198 133.628L158.475 174.754Z" fill="#FFE97B"/>
<path d="M125.719 187.329C126.755 188.012 128.036 188.181 129.228 187.835C130.6 187.439 132.138 187.626 133.435 188.505C135.49 189.898 136.209 192.652 135.098 194.872C133.793 197.48 130.585 198.41 128.103 196.967C126.846 196.236 126.027 195.042 125.735 193.726C125.472 192.544 124.657 191.559 123.577 191.009L85.7005 171.732C83.3908 170.556 82.5434 167.681 83.8462 165.441C85.149 163.201 88.0669 162.516 90.2307 163.942L125.719 187.329Z" fill="#FFE97B"/>
<path d="M157.571 180.968C157.946 179.446 158.964 178.278 160.249 177.655C161.366 177.114 162.205 176.131 162.518 174.93L173.242 133.804C173.602 132.422 174.562 131.365 175.763 130.825C175.508 130.683 175.235 130.563 174.946 130.47C172.479 129.677 169.852 131.12 169.198 133.628L158.475 174.754C158.162 175.955 157.322 176.938 156.205 177.479C154.921 178.102 153.903 179.27 153.527 180.792C152.932 183.202 154.241 185.729 156.552 186.636C157.787 187.12 159.082 187.081 160.211 186.639C158.143 185.615 157.01 183.24 157.571 180.968Z" fill="#F4DD45"/>
<path d="M130.437 194.548C129.181 193.818 128.361 192.623 128.069 191.308C127.806 190.126 126.991 189.14 125.912 188.591L88.0347 169.313C85.9165 168.235 85.0296 165.728 85.9019 163.592C85.0704 163.964 84.3416 164.59 83.8465 165.441C82.5437 167.682 83.3911 170.556 85.7006 171.732L123.578 191.01C124.657 191.559 125.472 192.544 125.735 193.727C126.027 195.042 126.847 196.236 128.103 196.967C130.585 198.41 133.794 197.48 135.098 194.872C135.125 194.818 135.146 194.762 135.172 194.707C133.718 195.424 131.944 195.424 130.437 194.548Z" fill="#F4DD45"/>
<path d="M152.737 208.876C170.29 202.138 183.565 193.057 183.663 187.906L180.962 180.869C182.841 185.764 169.155 195.57 150.393 202.772C131.632 209.974 114.9 211.844 113.021 206.949L115.364 213.053C117.243 217.948 133.975 216.078 152.737 208.876Z" fill="#477B9E"/>
<path d="M126.626 209.243C119.19 210.238 114.017 209.545 113.021 206.949L115.364 213.053C116.36 215.648 121.533 216.341 128.969 215.347L126.626 209.243Z" fill="#365E7D"/>
<path d="M162.965 235.522C144.204 242.723 127.471 244.594 125.592 239.699L127.792 245.429C129.671 250.324 146.403 248.454 165.165 241.252C183.926 234.05 197.612 224.244 195.733 219.349L193.892 214.552C193.793 219.702 180.518 228.784 162.965 235.522Z" fill="#477B9E"/>
<path d="M139.198 241.993C131.761 242.987 126.589 242.294 125.592 239.699L127.792 245.429C128.788 248.025 133.961 248.718 141.397 247.723L139.198 241.993Z" fill="#365E7D"/>
<path d="M152.591 208.497C133.829 215.698 117.097 217.568 115.218 212.674L125.738 240.078C127.617 244.973 144.349 243.103 163.11 235.901C181.872 228.699 195.558 218.893 193.679 213.998L183.159 186.593C185.038 191.488 171.352 201.295 152.591 208.497Z" fill="#F87C68"/>
<path d="M128.824 214.967C121.387 215.962 116.215 215.269 115.218 212.673L125.738 240.078C126.734 242.673 131.907 243.366 139.343 242.371L128.824 214.967Z" fill="#EC625E"/>
<path d="M175.473 129.072C172.174 128.012 168.662 129.932 167.785 133.296L157.061 174.422L157.062 174.422C156.866 175.172 156.334 175.806 155.602 176.161C153.85 177.01 152.577 178.584 152.109 180.479C152.101 180.512 152.095 180.545 152.087 180.577C150.259 181.137 148.39 181.753 146.514 182.418C145.722 182.695 145.307 183.57 145.588 184.363C145.869 185.155 146.739 185.57 147.532 185.289C149.083 184.739 150.629 184.222 152.149 183.744C152.694 185.759 154.169 187.365 156.056 188.105C161.007 190.047 165.966 185.615 164.808 180.576C168.868 179.857 172.374 179.581 175.028 179.777C177.557 179.963 179.266 180.594 179.601 181.466C180.721 184.386 170.293 193.577 149.908 201.402C129.566 209.211 115.627 209.384 114.503 206.455C114.167 205.58 115.021 203.96 116.788 202.121C118.642 200.192 121.451 198.041 124.97 195.851C127.509 200.436 134.169 200.304 136.52 195.604C137.419 193.808 137.45 191.63 136.5 189.746C137.951 189.083 139.448 188.434 140.969 187.806C141.746 187.485 142.116 186.594 141.795 185.817C141.474 185.039 140.587 184.677 139.806 184.99C137.966 185.75 136.163 186.543 134.427 187.35C134.401 187.332 134.376 187.313 134.35 187.295C132.734 186.2 130.735 185.882 128.865 186.423C128.084 186.65 127.264 186.535 126.617 186.108L91.129 162.721C88.2182 160.803 84.3267 161.74 82.5902 164.727C80.8446 167.728 81.9782 171.567 85.0701 173.14L122.947 192.418C123.258 192.576 123.524 192.786 123.743 193.029C117.906 196.621 109.785 202.662 111.66 207.546L126.431 246.027C127.646 249.191 132.338 250.34 140.377 249.442C147.561 248.639 156.58 246.254 165.771 242.725C179.416 237.487 200.155 226.512 197.215 218.855L192.244 205.904C191.942 205.118 191.062 204.726 190.276 205.028C189.491 205.329 189.099 206.21 189.4 206.995L192.318 214.595C192.802 215.858 190.885 218.855 185.536 222.733L184.302 193.714L186.854 200.361C187.155 201.146 188.036 201.538 188.821 201.237C189.606 200.935 189.998 200.054 189.697 199.269L182.444 180.375C180.575 175.505 170.54 176.434 163.829 177.658C163.826 177.326 163.884 176.986 164.011 176.655L179.26 136.984C180.505 133.743 178.775 130.134 175.473 129.072ZM86.4514 170.425C84.9212 169.647 84.3573 167.746 85.2229 166.258C86.0887 164.769 88.0184 164.319 89.453 165.264L124.941 188.651L124.941 188.651C126.334 189.57 128.073 189.824 129.712 189.349C132.663 188.495 135.114 191.608 133.796 194.242C132.395 197.044 128.105 196.837 127.26 193.363C126.885 191.794 125.822 190.463 124.329 189.703L86.4514 170.425ZM121.71 216.954C127.616 217.22 135.322 215.585 141.055 213.995L139.376 238.335L121.71 216.954ZM119.204 218.702L137.705 241.093C131.135 241.791 127.705 240.847 127.22 239.584L119.204 218.702ZM143.987 215.763L160.605 235.288C154.118 237.665 147.805 239.433 142.285 240.428L143.987 215.763ZM145.386 212.708C147.95 211.896 150.566 210.98 153.197 209.97C155.828 208.96 158.385 207.89 160.834 206.778L161.528 231.673L145.386 212.708ZM163.918 208.111L181.687 225.303C176.919 228.257 171.044 231.168 164.633 233.742L163.918 208.111ZM164.914 204.837C170.236 202.183 177.058 198.241 181.27 194.091L182.448 221.801L164.914 204.837ZM151 204.246C159.69 200.91 176.06 193.338 181.269 185.813L181.798 187.191C182.047 187.84 181.615 188.688 181.29 189.273C180.364 190.837 178.29 192.985 174.789 195.494C168.256 200.175 159.581 204.257 152.106 207.127C144.633 209.995 135.454 212.767 127.465 213.66C123.187 214.138 120.208 213.93 118.473 213.388C116.694 212.773 116.803 212.445 116.172 210.802C125.004 212.89 142.081 207.669 151 204.246ZM193.985 218.94L194.372 219.947C195.494 222.87 185.047 232.064 164.679 239.882C144.337 247.69 130.398 247.864 129.274 244.935L128.888 243.929C137.746 246.025 155.179 240.651 163.707 237.378C163.71 237.377 163.714 237.376 163.717 237.375C163.72 237.373 163.723 237.372 163.726 237.37C172.261 234.094 188.807 226.423 193.985 218.94ZM176.416 135.891L161.168 175.562C160.584 177.08 160.661 178.726 161.371 180.117C161.562 180.492 162.253 181.57 161.762 183.098C161.149 185.005 159.06 186.012 157.168 185.27C155.6 184.655 154.653 182.88 155.066 181.209C155.316 180.195 155.996 179.354 156.93 178.902C158.466 178.157 159.588 176.805 160.009 175.19C160.009 175.19 160.009 175.19 160.009 175.19L170.732 134.064C171.166 132.399 172.904 131.446 174.541 131.972C176.175 132.497 177.035 134.284 176.416 135.891Z" fill="black"/>
<path d="M137.391 173.044L139.171 177.679C139.472 178.465 140.353 178.857 141.138 178.555C141.923 178.254 142.315 177.373 142.014 176.588L140.235 171.952C139.933 171.167 139.052 170.775 138.267 171.076C137.482 171.378 137.09 172.258 137.391 173.044Z" fill="black"/>
<path d="M128.675 178.046C128.145 178.699 128.246 179.658 128.9 180.187L132.759 183.312C133.413 183.842 134.372 183.74 134.901 183.087C135.43 182.433 135.329 181.474 134.676 180.945L130.817 177.821C130.163 177.291 129.204 177.392 128.675 178.046Z" fill="black"/>
<path d="M148.317 171.103L147.54 176.007C147.408 176.837 147.975 177.617 148.806 177.749C149.637 177.88 150.417 177.313 150.548 176.483L151.325 171.579C151.456 170.748 150.89 169.968 150.059 169.837C149.228 169.706 148.448 170.272 148.317 171.103Z" fill="black"/>
</g>
<g clip-path="url(#clip2)">
<path d="M606.832 39.2701L612.76 49.7476L579.83 68.3782L573.902 57.9006C572.779 55.9158 572.491 53.5661 573.1 51.3685C573.71 49.1709 575.167 47.3055 577.152 46.1825L595.114 36.0203C597.098 34.8974 599.448 34.6089 601.646 35.2183C603.843 35.8277 605.709 37.2852 606.832 39.2701Z" fill="#787680"/>
<path d="M608.269 52.2886L609.539 54.5338C610.101 55.5262 610.245 56.701 609.94 57.7998C609.636 58.8986 608.907 59.8314 607.915 60.3928L591.45 69.7081C590.457 70.2696 589.283 70.4139 588.184 70.1091C587.085 69.8044 586.152 69.0757 585.591 68.0833L584.321 65.8381L608.269 52.2886Z" fill="#2D2D30"/>
<path d="M613.666 37.3799L618.747 46.3606L612.76 49.748L607.678 40.7673L613.666 37.3799Z" fill="#D8D7DA"/>
<path d="M616.244 132.74L610.317 122.263L643.246 103.632L649.174 114.11C650.297 116.094 650.585 118.444 649.976 120.642C649.366 122.839 647.909 124.705 645.924 125.828L627.963 135.99C625.978 137.113 623.628 137.401 621.43 136.792C619.233 136.183 617.367 134.725 616.244 132.74Z" fill="#787680"/>
<path d="M614.807 119.722L613.537 117.477C612.975 116.485 612.831 115.31 613.136 114.211C613.44 113.112 614.169 112.179 615.161 111.618L631.626 102.303C632.619 101.741 633.793 101.597 634.892 101.902C635.991 102.206 636.924 102.935 637.485 103.927L638.756 106.173L614.807 119.722Z" fill="#2D2D30"/>
<path d="M648.327 112.613L643.246 103.632L649.233 100.245L654.314 109.225L648.327 112.613Z" fill="#D8D7DA"/>
<path d="M624.34 35.2922L626.034 38.2858L617.053 43.3668L614.512 38.8765L621.996 34.6423C622.393 34.4177 622.863 34.36 623.303 34.4818C623.742 34.6037 624.115 34.8952 624.34 35.2922Z" fill="#CCA400"/>
<path d="M659.907 98.1572L661.601 101.151C661.826 101.548 661.883 102.018 661.762 102.457C661.64 102.897 661.348 103.27 660.951 103.494L653.467 107.729L650.927 103.238L659.907 98.1572Z" fill="#CCA400"/>
<path d="M650.671 113.263L655.161 110.722C655.558 110.498 655.849 110.125 655.971 109.685C656.093 109.246 656.035 108.776 655.811 108.379L661.798 104.991C662.591 104.541 663.173 103.795 663.417 102.917C663.661 102.038 663.546 101.098 663.098 100.304L663.024 100.173C668.491 94.2346 672.027 86.7762 673.164 78.7845C674.368 70.169 672.7 61.3968 668.416 53.8253C664.132 46.2539 657.472 40.3054 649.467 36.9005C642.031 33.7589 633.817 32.9485 625.911 34.5764L625.837 34.4454C625.387 33.6524 624.641 33.0702 623.762 32.8265C622.883 32.5828 621.944 32.6975 621.15 33.1455L615.162 36.5329C614.938 36.1359 614.565 35.8444 614.125 35.7225C613.686 35.6006 613.216 35.6583 612.819 35.8829L608.328 38.4235C606.979 36.0438 604.74 34.2968 602.104 33.5657C599.468 32.8346 596.649 33.1792 594.267 34.5238L576.305 44.6859C573.925 46.0356 572.178 48.2741 571.447 50.9104C570.716 53.5466 571.061 56.3652 572.405 58.7477L578.333 69.2252C578.558 69.6222 578.931 69.9137 579.37 70.0356C579.81 70.1575 580.28 70.0998 580.677 69.8752L583.67 68.1815L584.094 68.9299C584.881 70.318 586.187 71.337 587.725 71.7635C589.263 72.19 590.907 71.989 592.297 71.2047L608.761 61.8894C610.149 61.1021 611.168 59.7963 611.595 58.2585C612.021 56.7207 611.82 55.0765 611.036 53.6867L610.613 52.9383L619.593 47.8573C619.99 47.6327 620.282 47.2596 620.404 46.8201C620.526 46.3805 620.468 45.9106 620.243 45.5136L619.397 44.0168L626.881 39.7826C627.228 39.5858 627.496 39.2743 627.639 38.9015C627.782 38.5287 627.79 38.1178 627.663 37.7393C634.565 36.5316 641.669 37.3396 648.124 40.0662C655.432 43.1756 661.512 48.6066 665.422 55.519C669.333 62.4313 670.857 70.4398 669.759 78.3055C668.771 85.2425 665.805 91.7478 661.215 97.0421C660.956 96.7383 660.6 96.5341 660.206 96.4645C659.813 96.3949 659.408 96.4643 659.061 96.6607L651.577 100.895L650.73 99.3981C650.505 99.0011 650.132 98.7096 649.693 98.5877C649.253 98.4658 648.783 98.5235 648.386 98.7481L639.405 103.829L638.982 103.081C638.195 101.693 636.889 100.674 635.351 100.247C633.813 99.8208 632.169 100.022 630.779 100.806L614.315 110.121C612.926 110.909 611.907 112.214 611.481 113.752C611.055 115.29 611.255 116.934 612.04 118.324L612.463 119.072L609.47 120.766C609.073 120.991 608.781 121.364 608.659 121.803C608.537 122.243 608.595 122.713 608.82 123.11L614.748 133.587C616.097 135.967 618.336 137.714 620.972 138.445C623.608 139.176 626.427 138.832 628.809 137.487L646.771 127.325C649.15 125.975 650.897 123.737 651.629 121.1C652.36 118.464 652.015 115.645 650.671 113.263ZM607.619 54.632L608.043 55.3804C608.379 55.976 608.465 56.6807 608.282 57.3398C608.1 57.9989 607.663 58.5585 607.068 58.8959L590.603 68.2111C590.007 68.5474 589.303 68.6337 588.644 68.4509C587.984 68.2681 587.425 67.8312 587.087 67.2362L586.664 66.4878L607.619 54.632ZM622.843 36.1391L623.69 37.6359L617.703 41.0233L616.856 39.5265L622.843 36.1391ZM580.48 66.0348L575.399 57.054C574.503 55.4656 574.274 53.5867 574.761 51.8293C575.248 50.072 576.413 48.5796 577.999 47.6795L595.96 37.5174C597.549 36.6214 599.428 36.392 601.185 36.8793C602.942 37.3667 604.435 38.5311 605.335 40.1172L610.416 49.0979L580.48 66.0348ZM616.403 45.7105L613.409 47.4042L610.022 41.417L613.016 39.7234L616.403 45.7105ZM615.457 117.379L615.033 116.63C614.697 116.035 614.611 115.33 614.794 114.671C614.976 114.012 615.413 113.452 616.008 113.115L632.473 103.8C633.069 103.463 633.773 103.377 634.432 103.56C635.091 103.743 635.651 104.179 635.988 104.774L636.412 105.523L615.457 117.379ZM659.257 100.501L660.104 101.998L654.117 105.385L653.27 103.888L659.257 100.501ZM648.583 102.589L651.97 108.576L648.977 110.269L645.589 104.282L648.583 102.589ZM627.116 134.493C625.527 135.389 623.648 135.619 621.891 135.131C620.134 134.644 618.641 133.48 617.741 131.894L612.66 122.913L642.596 105.976L647.677 114.957C648.573 116.545 648.802 118.424 648.315 120.181C647.828 121.939 646.663 123.431 645.077 124.331L627.116 134.493Z" fill="black"/>
</g>
<g clip-path="url(#clip3)">
<path d="M314.66 36.3066C296.191 25.6439 272.576 31.9717 261.913 50.4401C251.25 68.9084 257.578 92.524 276.046 103.187C294.515 113.849 318.13 107.522 328.793 89.0533C339.456 70.585 333.128 46.9694 314.66 36.3066ZM289.231 80.3496C283.385 76.9742 281.374 69.4717 284.75 63.6251C288.126 57.7785 295.628 55.7683 301.475 59.1438C307.321 62.5192 309.331 70.0217 305.956 75.8683C302.58 81.7149 295.078 83.7251 289.231 80.3496Z" fill="#0D8EBC"/>
<path d="M305.956 75.8683C302.58 81.715 295.078 83.7251 289.231 80.3497L276.046 103.187C294.515 113.85 318.13 107.522 328.793 89.0533C339.456 70.585 333.128 46.9694 314.66 36.3066L301.475 59.1438C307.321 62.5192 309.331 70.0217 305.956 75.8683Z" fill="#0A617D"/>
<path d="M305.242 52.6187C295.797 47.1661 283.678 50.4135 278.225 59.8578C272.772 69.3021 276.02 81.4218 285.464 86.8744C294.908 92.3271 307.028 89.0796 312.481 79.6353C317.933 70.1911 314.686 58.0714 305.242 52.6187ZM291.115 77.0871C287.067 74.7502 285.675 69.5561 288.012 65.5085C290.349 61.461 295.543 60.0692 299.591 62.4061C303.638 64.7429 305.03 69.9371 302.693 73.9846C300.356 78.0322 295.162 79.4239 291.115 77.0871Z" fill="#F9F9F9"/>
<path d="M299.591 62.4065C303.638 64.7433 305.03 69.9375 302.693 73.985C300.356 78.0326 295.162 79.4243 291.115 77.0875L285.464 86.8748C294.908 92.3275 307.028 89.08 312.481 79.6357C317.933 70.1915 314.686 58.0718 305.242 52.6191L299.591 62.4065Z" fill="#D5D3EA"/>
<path d="M341.648 103.039C341.322 102.232 340.642 101.621 339.806 101.382L309.939 92.838C308.693 92.4814 307.364 93.0189 306.716 94.1417L292.94 118.001C292.497 117.565 291.991 117.178 291.428 116.853C287.831 114.775 283.214 116.013 281.136 119.61C279.059 123.208 280.296 127.825 283.894 129.902C287.492 131.98 292.109 130.742 294.186 127.145L305.797 107.033L330.064 113.975L320.924 129.807C320.48 129.371 319.975 128.984 319.412 128.659C315.814 126.582 311.197 127.819 309.119 131.416C307.042 135.014 308.279 139.631 311.877 141.709C315.475 143.786 320.092 142.549 322.169 138.951L341.476 105.511C341.911 104.757 341.974 103.845 341.648 103.039Z" fill="#FF6B6B"/>
<path d="M341.648 103.039C341.322 102.232 340.643 101.621 339.806 101.382L324.873 97.11L317.252 110.31L330.064 113.975L320.924 129.807C320.48 129.371 319.975 128.984 319.412 128.659C315.814 126.582 311.197 127.819 309.12 131.417C307.042 135.015 308.279 139.632 311.877 141.709C315.475 143.786 320.092 142.549 322.169 138.951L341.476 105.511C341.911 104.757 341.975 103.846 341.648 103.039Z" fill="#EC3D93"/>
</g>
<g clip-path="url(#clip4)">
<path d="M49.7184 111.405L41.2017 85.6688L28.4218 93.7879L15.9674 101.7L21.4517 118.31C20.4825 118.289 19.4979 118.395 18.5279 118.717C13.9753 120.23 11.417 125.18 12.9321 129.732C14.2751 133.774 18.4059 136.165 22.4814 135.592C27.8748 134.834 31.2395 129.362 29.5307 124.228L22.8991 104.17L29.3088 100.098L38.0396 94.5512L41.6364 105.48C40.6599 105.462 39.6767 105.577 38.7185 105.895C34.1637 107.41 31.6849 112.323 33.2054 116.895C34.5777 121.022 38.6658 123.33 42.6547 122.769C48.0603 122.01 51.4328 116.561 49.7184 111.405Z" fill="#99BBFF"/>
<path d="M41.6364 105.48C40.6598 105.462 39.6767 105.577 38.7185 105.895C34.1637 107.409 31.6849 112.323 33.2054 116.895C34.5777 121.021 38.6658 123.33 42.6547 122.769C48.0603 122.009 51.4328 116.561 49.7184 111.405L41.2017 85.6688L28.4218 93.7879L29.3086 100.098L38.0394 94.5509L41.6364 105.48Z" fill="#8095FF"/>
<path d="M66.6932 32.6559L57.1978 34.9816L57.4169 61.7645C55.7007 60.7818 53.7747 60.2073 51.7434 60.1986C45.3388 60.1831 40.1164 65.3175 40.0887 71.7445C40.0505 78.8558 46.3485 84.2651 53.312 83.2864C58.9218 82.498 63.2616 77.6806 63.2893 71.8533C63.2894 71.8415 63.03 39.522 63.03 39.522L67.504 38.427L92.2833 32.3817L92.4551 53.2083C90.7727 52.2427 88.8545 51.6424 86.7799 51.6333C80.4134 51.6056 75.1533 56.7267 75.1252 63.1792C75.087 70.2905 81.385 75.6998 88.3486 74.7212C93.9584 73.9328 98.2982 69.1153 98.3254 63.2851C98.3257 63.2733 98.0307 25.001 98.0307 25.001L66.6932 32.6559Z" fill="#99BBFF"/>
<path d="M92.4551 53.2084C90.7727 52.2428 88.8544 51.6425 86.7799 51.6333C80.4134 51.6057 75.1532 56.7268 75.1252 63.1793C75.087 70.2906 81.385 75.6999 88.3485 74.7212C93.9583 73.9328 98.2981 69.1154 98.3254 63.2852C98.3257 63.2734 98.0307 25.0011 98.0307 25.0011L66.6931 32.656L67.5042 38.427L92.2834 32.3817L92.4551 53.2084Z" fill="#8095FF"/>
<path d="M85.8425 80.2991L79.2077 101.314C78.4363 100.73 77.5772 100.239 76.6029 99.9319C75.4542 99.5681 74.29 99.4564 73.1672 99.5616C69.7784 99.8795 66.7649 102.187 65.6846 105.605C63.7586 111.701 68.8526 117.734 75.1758 116.845C75.316 116.825 75.4415 116.756 75.58 116.73C78.6232 116.149 81.2809 114.005 82.2794 110.853L82.279 110.85L87.1581 95.3994L91.4974 103.745L96.6419 101.071L85.8425 80.2991Z" fill="#FFD480"/>
<path d="M82.2795 110.853L82.2791 110.85L87.1581 95.3993L91.4974 103.745L96.6419 101.071L85.8425 80.2989L79.2077 101.314C78.4363 100.729 77.5772 100.239 76.6029 99.9317C75.4543 99.5679 74.29 99.4562 73.1672 99.5615L75.58 116.729C78.6232 116.149 81.2809 114.005 82.2795 110.853Z" fill="#FFBB33"/>
<path d="M32.4839 55.1823L16.0344 47.3269L11.3587 45.0941L18.5987 65.5723L18.7073 65.8797C18.6862 65.8795 18.6644 65.8896 18.6433 65.8896C17.6966 65.8922 16.7372 66.0066 15.7912 66.3352C11.2404 67.9493 8.8944 72.9235 10.4901 77.4402C11.929 81.4976 15.9743 83.7113 19.8864 83.1615C20.2881 83.1051 20.6514 82.9722 21.029 82.8662C25.8183 81.5234 28.5888 76.42 26.8993 71.6386L21.4946 56.3636L29.9819 60.4194L32.4839 55.1823Z" fill="#FFD480"/>
<path d="M26.8993 71.6389L21.4946 56.3638L29.9818 60.4196L32.4837 55.1826L16.0342 47.3271L18.5984 65.5724L18.7071 65.8798C18.6859 65.8796 18.6641 65.8897 18.643 65.8897L21.0289 82.8663C25.8182 81.5236 28.5888 76.4203 26.8993 71.6389Z" fill="#FFBB33"/>
</g>
<defs>
<clipPath id="clip0">
<rect width="114.146" height="114.146" fill="white" transform="translate(427.466 101) rotate(28.5)"/>
</clipPath>
<clipPath id="clip1">
<rect width="104" height="104" fill="white" transform="translate(80 164.271) rotate(-21)"/>
</clipPath>
<clipPath id="clip2">
<rect width="110.064" height="110.064" fill="white" transform="translate(651.795) rotate(60.5)"/>
</clipPath>
<clipPath id="clip3">
<rect width="96.439" height="96.439" fill="white" transform="translate(281.219 17) rotate(30)"/>
</clipPath>
<clipPath id="clip4">
<rect width="99.0009" height="99.0009" fill="white" transform="translate(0 38.7783) rotate(-8)"/>
</clipPath>
</defs>
</svg>
