<svg width="693" height="256" viewBox="0 0 693 256" fill="none" xmlns="http://www.w3.org/2000/svg">
<g clip-path="url(#clip0)">
<path d="M313.73 201.789C324.555 212.614 342.223 212.811 352.987 201.926C358.074 196.783 360.717 190.132 360.92 183.422C361.069 178.452 364.065 173.992 368.587 171.924C370.479 171.059 372.254 169.858 373.824 168.32C381.198 161.092 381.05 149.149 373.749 141.848L364.152 132.251C356.851 124.95 344.908 124.802 337.68 132.176C336.142 133.746 334.941 135.521 334.076 137.413C332.008 141.935 327.548 144.931 322.578 145.08C315.868 145.282 309.217 147.926 304.074 153.012C293.189 163.777 293.386 181.445 304.211 192.27L313.73 201.789Z" fill="#FAC574"/>
<path d="M341.513 175.025C347.332 175.025 352.05 170.307 352.05 164.487C352.05 158.668 347.332 153.95 341.513 153.95C335.693 153.95 330.975 158.668 330.975 164.487C330.975 170.307 335.693 175.025 341.513 175.025Z" fill="#685E67"/>
<path d="M348.964 171.938C344.849 176.053 338.176 176.053 334.061 171.938C331.029 168.905 330.231 164.486 331.669 160.722C332.182 162.066 332.979 163.324 334.061 164.409C338.176 168.524 344.849 168.524 348.964 164.409C350.049 163.324 350.846 162.066 351.359 160.722C352.795 164.486 351.997 168.905 348.964 171.938Z" fill="#554E55"/>
<path d="M373.822 168.321C372.253 169.859 370.479 171.059 368.587 171.923C364.065 173.992 361.07 178.453 360.919 183.422C360.716 190.134 358.073 196.784 352.987 201.927C342.222 212.812 324.555 212.615 313.731 201.791L308.029 196.089C318.853 206.913 336.523 207.111 347.285 196.225C352.371 191.082 355.017 184.432 355.217 177.723C355.368 172.752 358.363 168.291 362.885 166.224C364.777 165.358 366.554 164.158 368.123 162.619C375.497 155.392 375.348 143.448 368.046 136.146L373.748 141.848C381.049 149.15 381.198 161.092 373.822 168.321Z" fill="#E8B66B"/>
<path d="M359.244 155.095L405.268 107.335L398.665 100.731L350.905 146.755C350.388 147.253 350.381 148.078 350.888 148.585L357.415 155.112C357.922 155.619 358.747 155.612 359.244 155.095Z" fill="#C76D3D"/>
<path d="M359.245 155.094C358.746 155.611 357.922 155.62 357.414 155.113L352.824 150.522C353.332 151.03 354.158 151.023 354.655 150.504L400.677 102.745L405.267 107.335L359.245 155.094Z" fill="#AA5E33"/>
<path d="M423.082 101.367C422.592 101.367 422.101 101.18 421.726 100.806L405.194 84.2736C404.445 83.5248 404.445 82.3104 405.194 81.5616C405.943 80.8128 407.157 80.8128 407.906 81.5616L424.438 98.0935C425.187 98.8423 425.187 100.057 424.438 100.806C424.064 101.18 423.573 101.367 423.082 101.367Z" fill="#685E67"/>
<path d="M417.933 105.424C417.442 105.424 416.951 105.237 416.577 104.862L401.137 89.4226C400.388 88.6738 400.388 87.4594 401.137 86.7106C401.886 85.9616 403.101 85.9618 403.849 86.7106L419.289 102.15C420.038 102.899 420.038 104.114 419.289 104.862C418.914 105.237 418.424 105.424 417.933 105.424Z" fill="#685E67"/>
<path d="M412.511 109.208C412.02 109.208 411.529 109.021 411.154 108.646L397.353 94.845C396.605 94.0962 396.605 92.8818 397.353 92.133C398.103 91.3839 399.317 91.3842 400.066 92.133L413.867 105.934C414.615 106.683 414.615 107.897 413.867 108.646C413.492 109.02 413.001 109.208 412.511 109.208Z" fill="#685E67"/>
<path d="M424.438 98.0939L418.009 91.6641C417.109 92.5724 416.21 93.4817 415.307 94.3872L421.726 100.806C422.1 101.18 422.591 101.367 423.082 101.367C423.573 101.367 424.064 101.18 424.438 100.806C425.187 100.057 425.187 98.8427 424.438 98.0939Z" fill="#554E55"/>
<path d="M413.418 96.2798C412.515 97.1843 411.613 98.0906 410.709 98.9948L416.577 104.862C416.951 105.237 417.442 105.424 417.933 105.424C418.423 105.424 418.915 105.237 419.289 104.862C420.038 104.114 420.038 102.899 419.289 102.15L413.418 96.2798Z" fill="#554E55"/>
<path d="M408.821 100.888C407.918 101.793 407.016 102.699 406.115 103.607L411.154 108.647C411.529 109.021 412.02 109.208 412.511 109.208C413.001 109.208 413.492 109.021 413.867 108.647C414.616 107.898 414.616 106.683 413.867 105.935L408.821 100.888Z" fill="#554E55"/>
<path d="M404.325 107.971L398.029 101.674C397.503 101.148 397.452 100.312 397.91 99.7266L409.796 84.5399C410.92 83.1035 413.048 82.9743 414.337 84.264L421.735 91.6619C423.025 92.9516 422.895 95.0791 421.459 96.2031L406.272 108.089C405.687 108.548 404.851 108.497 404.325 107.971Z" fill="#FAC574"/>
<path d="M422.852 95.1127L406.272 108.089C405.686 108.548 404.852 108.497 404.327 107.971L399.213 102.857C399.739 103.383 400.574 103.436 401.16 102.977L417.74 90.0006C418.435 89.4549 418.498 88.4234 417.874 87.7998L422.986 92.9119C423.611 93.5373 423.548 94.5688 422.852 95.1127Z" fill="#E8B66B"/>
<path d="M331.129 185.967C330.639 185.967 330.148 185.78 329.773 185.406L320.594 176.226C319.845 175.477 319.845 174.263 320.594 173.514C321.343 172.765 322.557 172.765 323.306 173.514L332.485 182.694C333.234 183.442 333.234 184.657 332.485 185.406C332.111 185.78 331.62 185.967 331.129 185.967Z" fill="#FEF0DC"/>
<path d="M325.926 191.171C325.435 191.171 324.944 190.984 324.569 190.61L315.39 181.43C314.641 180.682 314.641 179.467 315.39 178.718C316.139 177.97 317.353 177.97 318.102 178.718L327.282 187.898C328.031 188.647 328.031 189.861 327.282 190.61C326.907 190.984 326.416 191.171 325.926 191.171Z" fill="#FEF0DC"/>
<path d="M409.607 98.3111C409.116 98.3111 408.625 98.1239 408.251 97.7495C407.502 97.0005 407.502 95.7863 408.251 95.0373L411.383 91.9045C412.132 91.1557 413.347 91.1554 414.095 91.9045C414.844 92.6535 414.844 93.8677 414.095 94.6167L410.963 97.7495C410.589 98.1239 410.097 98.3111 409.607 98.3111Z" fill="#C76D3D"/>
<path d="M378.527 136.439C378.036 136.439 377.545 136.252 377.171 135.878L370.122 128.829C369.373 128.08 369.373 126.866 370.122 126.117C370.871 125.368 372.085 125.368 372.834 126.117L379.883 133.166C380.632 133.915 380.632 135.129 379.883 135.878C379.509 136.252 379.018 136.439 378.527 136.439Z" fill="#8E4D29"/>
<path d="M385.294 129.672C384.804 129.672 384.313 129.485 383.938 129.11L376.889 122.061C376.141 121.312 376.141 120.098 376.889 119.349C377.638 118.6 378.853 118.6 379.602 119.349L386.65 126.398C387.399 127.147 387.399 128.361 386.65 129.11C386.276 129.485 385.785 129.672 385.294 129.672Z" fill="#8E4D29"/>
<path d="M392.062 122.904C391.571 122.904 391.08 122.717 390.706 122.343L383.657 115.294C382.908 114.545 382.908 113.331 383.657 112.582C384.406 111.833 385.62 111.833 386.369 112.582L393.418 119.631C394.167 120.38 394.167 121.594 393.418 122.343C393.044 122.717 392.552 122.904 392.062 122.904Z" fill="#8E4D29"/>
<path d="M397.412 116.466C396.922 116.466 396.431 116.279 396.056 115.904L390.095 109.943C389.346 109.194 389.346 107.98 390.095 107.231C390.844 106.482 392.058 106.482 392.807 107.231L398.768 113.192C399.517 113.941 399.517 115.155 398.768 115.904C398.394 116.279 397.903 116.466 397.412 116.466Z" fill="#8E4D29"/>
<path d="M371.966 143.535C371.475 143.535 370.984 143.348 370.609 142.973L363.017 135.381C362.268 134.632 362.268 133.417 363.017 132.669C363.766 131.92 364.98 131.92 365.729 132.669L373.322 140.261C374.07 141.01 374.07 142.224 373.322 142.973C372.947 143.348 372.456 143.535 371.966 143.535Z" fill="#8E4D29"/>
<path d="M365.137 150.364C364.646 150.364 364.155 150.176 363.781 149.802L356.188 142.209C355.439 141.461 355.439 140.246 356.188 139.497C356.937 138.748 358.152 138.748 358.9 139.497L366.493 147.09C367.242 147.839 367.242 149.053 366.493 149.802C366.119 150.176 365.628 150.364 365.137 150.364Z" fill="#8E4D29"/>
</g>
<g clip-path="url(#clip1)">
<path d="M502.474 207.579L512.522 206.256L516.68 237.836L506.632 239.159C504.728 239.41 502.803 238.894 501.28 237.725C499.756 236.556 498.76 234.83 498.509 232.927L496.241 215.701C495.991 213.797 496.507 211.872 497.676 210.349C498.844 208.826 500.57 207.829 502.474 207.579Z" fill="#787680"/>
<path d="M513.089 210.562L515.243 210.279C516.194 210.154 517.157 210.412 517.918 210.996C518.68 211.58 519.178 212.443 519.304 213.395L521.383 229.186C521.508 230.137 521.25 231.1 520.665 231.862C520.081 232.623 519.218 233.121 518.266 233.247L516.113 233.53L513.089 210.562Z" fill="#2D2D30"/>
<path d="M503.154 201.648L511.766 200.514L512.522 206.256L503.909 207.39L503.154 201.648Z" fill="#D8D7DA"/>
<path d="M578.406 229.71L568.357 231.033L564.2 199.452L574.248 198.129C576.152 197.879 578.077 198.395 579.6 199.563C581.123 200.732 582.12 202.458 582.37 204.362L584.638 221.588C584.889 223.491 584.373 225.416 583.204 226.94C582.035 228.463 580.309 229.459 578.406 229.71Z" fill="#787680"/>
<path d="M567.79 226.727L565.637 227.01C564.685 227.135 563.723 226.877 562.961 226.293C562.2 225.709 561.701 224.846 561.576 223.894L559.497 208.103C559.372 207.152 559.63 206.189 560.214 205.427C560.799 204.666 561.662 204.168 562.613 204.042L564.767 203.759L567.79 226.727Z" fill="#2D2D30"/>
<path d="M572.813 198.318L564.2 199.452L563.444 193.71L572.057 192.576L572.813 198.318Z" fill="#D8D7DA"/>
<path d="M504.89 192.657L507.761 192.279L508.895 200.892L504.589 201.459L503.644 194.282C503.594 193.901 503.697 193.516 503.931 193.211C504.165 192.907 504.51 192.707 504.89 192.657Z" fill="#CCA400"/>
<path d="M565.181 184.72L568.052 184.342C568.432 184.292 568.818 184.395 569.122 184.629C569.427 184.862 569.626 185.208 569.676 185.588L570.621 192.766L566.315 193.333L565.181 184.72Z" fill="#CCA400"/>
<path d="M574.059 196.694L573.492 192.388C573.442 192.007 573.243 191.662 572.938 191.428C572.633 191.194 572.248 191.091 571.868 191.141L571.112 185.399C571.011 184.638 570.612 183.948 570.003 183.481C569.394 183.014 568.624 182.807 567.863 182.906L567.737 182.923C564.826 176.782 560.119 171.669 554.239 168.261C547.894 164.604 540.52 163.14 533.258 164.096C525.997 165.052 519.253 168.375 514.071 173.55C509.273 178.363 506.05 184.52 504.827 191.205L504.702 191.221C503.941 191.323 503.251 191.722 502.783 192.331C502.316 192.94 502.109 193.709 502.209 194.47L502.964 200.212C502.584 200.262 502.239 200.462 502.005 200.766C501.771 201.071 501.668 201.456 501.718 201.837L502.285 206.143C500.002 206.446 497.932 207.643 496.53 209.47C495.128 211.297 494.508 213.606 494.806 215.89L497.074 233.116C497.377 235.399 498.573 237.469 500.401 238.871C502.228 240.273 504.537 240.893 506.821 240.595L516.869 239.272C517.25 239.222 517.595 239.023 517.829 238.718C518.062 238.413 518.166 238.028 518.115 237.648L517.737 234.777L518.455 234.682C519.787 234.505 520.994 233.807 521.812 232.741C522.63 231.675 522.992 230.329 522.818 228.996L520.739 213.206C520.562 211.874 519.864 210.667 518.798 209.849C517.733 209.031 516.386 208.669 515.053 208.843L514.336 208.938L513.202 200.325C513.152 199.944 512.952 199.599 512.648 199.365C512.343 199.131 511.958 199.028 511.577 199.078L510.142 199.267L509.197 192.09C509.153 191.757 508.994 191.449 508.748 191.22C508.502 190.991 508.184 190.855 507.849 190.834C509.083 185.066 511.954 179.775 516.118 175.597C520.85 170.873 527.007 167.84 533.636 166.967C540.266 166.094 546.998 167.43 552.791 170.769C557.895 173.727 562.038 178.094 564.723 183.347C564.404 183.453 564.132 183.667 563.954 183.952C563.775 184.237 563.702 184.575 563.745 184.909L564.69 192.086L563.255 192.275C562.874 192.325 562.529 192.524 562.295 192.829C562.061 193.134 561.958 193.519 562.008 193.899L563.142 202.512L562.424 202.607C561.093 202.784 559.885 203.482 559.067 204.548C558.25 205.613 557.888 206.96 558.062 208.292L560.141 224.083C560.317 225.415 561.015 226.622 562.081 227.44C563.147 228.258 564.494 228.619 565.826 228.446L566.544 228.351L566.922 231.222C566.972 231.603 567.171 231.948 567.476 232.182C567.781 232.415 568.166 232.519 568.546 232.469L578.595 231.146C580.878 230.843 582.948 229.646 584.35 227.819C585.752 225.992 586.372 223.683 586.074 221.399L583.806 204.173C583.503 201.89 582.306 199.82 580.479 198.418C578.652 197.016 576.343 196.396 574.059 196.694ZM514.714 211.809L515.431 211.714C516.002 211.64 516.58 211.795 517.037 212.145C517.493 212.496 517.793 213.013 517.868 213.584L519.947 229.374C520.022 229.945 519.867 230.523 519.516 230.98C519.166 231.436 518.648 231.735 518.077 231.811L517.36 231.906L514.714 211.809ZM505.079 194.092L506.515 193.903L507.271 199.645L505.835 199.834L505.079 194.092ZM515.055 236.59L506.443 237.724C504.92 237.922 503.381 237.509 502.163 236.574C500.945 235.639 500.147 234.26 499.945 232.738L497.677 215.512C497.478 213.99 497.892 212.451 498.827 211.232C499.761 210.014 501.141 209.217 502.663 209.014L511.276 207.88L515.055 236.59ZM510.52 202.138L510.898 205.009L505.156 205.765L504.778 202.894L510.52 202.138ZM566.166 225.48L565.448 225.575C564.877 225.649 564.3 225.494 563.843 225.144C563.386 224.793 563.087 224.276 563.012 223.705L560.933 207.914C560.858 207.344 561.013 206.766 561.364 206.309C561.714 205.853 562.232 205.553 562.802 205.478L563.52 205.383L566.166 225.48ZM566.805 185.966L568.241 185.777L568.997 191.519L567.561 191.708L566.805 185.966ZM565.068 194.957L570.81 194.201L571.188 197.072L565.446 197.828L565.068 194.957ZM583.203 221.777C583.401 223.299 582.988 224.838 582.053 226.056C581.118 227.275 579.739 228.072 578.217 228.275L569.604 229.409L565.824 200.699L574.437 199.565C575.96 199.367 577.499 199.78 578.717 200.715C579.935 201.649 580.733 203.029 580.935 204.551L583.203 221.777Z" fill="black"/>
</g>
<g clip-path="url(#clip2)">
<path d="M36.5096 151.826C16.346 158.769 5.62836 180.743 12.5712 200.907C19.5141 221.071 41.4884 231.788 61.6521 224.845C81.8157 217.902 92.5332 195.928 85.5904 175.765C78.6475 155.601 56.6732 144.883 36.5096 151.826ZM53.0668 199.912C46.6837 202.11 39.7025 198.705 37.5046 192.322C35.3067 185.938 38.7117 178.957 45.0948 176.76C51.4779 174.562 58.4591 177.966 60.657 184.35C62.8549 190.733 59.4499 197.714 53.0668 199.912Z" fill="#0D8EBC"/>
<path d="M60.657 184.35C62.8549 190.733 59.4499 197.714 53.0668 199.912L61.652 224.845C81.8156 217.902 92.5332 195.928 85.5904 175.764C78.6475 155.601 56.6732 144.883 36.5096 151.826L45.0948 176.76C51.4779 174.562 58.4591 177.966 60.657 184.35Z" fill="#0A617D"/>
<path d="M42.6419 169.636C32.3307 173.186 26.8304 184.464 30.3808 194.775C33.9312 205.086 45.2086 210.586 55.5197 207.036C65.8309 203.485 71.3313 192.208 67.7808 181.897C64.2304 171.586 52.9531 166.085 42.6419 169.636ZM51.8404 196.35C47.4213 197.872 42.5881 195.514 41.0665 191.095C39.5449 186.676 41.9022 181.843 46.3213 180.321C50.7404 178.8 55.5735 181.157 57.0951 185.576C58.6167 189.995 56.2594 194.828 51.8404 196.35Z" fill="#F9F9F9"/>
<path d="M46.3213 180.321C50.7403 178.8 55.5735 181.157 57.0951 185.576C58.6167 189.995 56.2594 194.828 51.8404 196.35L55.5197 207.036C65.8309 203.485 71.3313 192.208 67.7808 181.897C64.2304 171.586 52.9531 166.085 42.6419 169.636L46.3213 180.321Z" fill="#D5D3EA"/>
<path d="M104.579 175.238C103.756 174.955 102.849 175.067 102.12 175.541L76.0776 192.476C74.9908 193.183 74.5244 194.539 74.9465 195.765L83.916 221.814C83.2959 221.863 82.6722 221.99 82.0574 222.202C78.1293 223.554 76.034 227.851 77.3865 231.779C78.739 235.707 83.0352 237.802 86.9632 236.449C90.8913 235.097 92.9867 230.801 91.6341 226.873L84.0737 204.916L105.233 191.155L111.185 208.44C110.565 208.489 109.941 208.617 109.326 208.828C105.398 210.181 103.303 214.477 104.655 218.405C106.008 222.333 110.304 224.428 114.232 223.076C118.16 221.723 120.255 217.427 118.903 213.499L106.332 176.99C106.048 176.167 105.402 175.521 104.579 175.238Z" fill="#FF6B6B"/>
<path d="M104.579 175.238C103.756 174.955 102.849 175.066 102.12 175.541L89.0988 184.008L94.0612 198.42L105.233 191.155L111.185 208.44C110.565 208.489 109.941 208.616 109.326 208.828C105.398 210.181 103.303 214.477 104.655 218.405C106.008 222.333 110.304 224.428 114.232 223.076C118.16 221.723 120.255 217.427 118.903 213.499L106.332 176.989C106.048 176.167 105.402 175.521 104.579 175.238Z" fill="#EC3D93"/>
</g>
<g clip-path="url(#clip3)">
<path d="M600.922 73.8133L595.565 70.4003C594.084 69.457 593.649 67.4955 594.593 66.0151C595.536 64.5345 597.498 64.0996 598.978 65.0429L604.335 68.4559C605.813 69.3975 607.779 68.9617 608.721 67.4838L611.859 62.558C612.802 61.0774 614.763 60.6425 616.244 61.5858C617.724 62.5291 618.159 64.4906 617.216 65.971L614.078 70.8968C611.255 75.3283 605.354 76.6366 600.922 73.8133Z" fill="#713708"/>
<path d="M582.647 84.7662C579.688 82.8812 578.818 78.9545 580.703 75.9958L597.768 49.2085L608.483 56.0345L591.418 82.8218C589.533 85.7808 585.606 86.6514 582.647 84.7662Z" fill="#994C0F"/>
<path d="M624.216 43.1603L613.636 59.7687L605.07 61.3916L586.319 49.4458C581.872 46.613 580.638 40.6296 583.471 36.1829L590.297 25.4679C593.096 21.0748 598.938 19.8255 603.385 22.6587L622.136 34.6045L624.216 43.1603Z" fill="#FE318F"/>
<path d="M618.96 51.4113L613.635 59.769L605.07 61.3919L586.319 49.4461C581.872 46.6133 580.637 40.6298 583.47 36.1831L586.815 30.9327L618.96 51.4113Z" fill="#FD0F7F"/>
<path d="M672.896 72.8011C672.514 71.0907 673.596 69.3931 675.309 69.0134L681.511 67.6362C683.224 67.256 684.92 68.3359 685.299 70.0491C685.681 71.7594 684.599 73.4571 682.886 73.8368L676.684 75.214C674.971 75.594 673.275 74.5142 672.896 72.8011Z" fill="#1BD9DE"/>
<path d="M659.79 101.732L658.416 95.5287C658.037 93.8158 659.118 92.1179 660.829 91.741C662.542 91.3613 664.237 92.4413 664.617 94.1541L665.99 100.358C666.37 102.071 665.289 103.768 663.577 104.145C661.865 104.525 660.169 103.445 659.79 101.732Z" fill="#1BD9DE"/>
<path d="M683.25 92.3685C682.294 93.8685 680.364 94.2965 678.864 93.3407L670.828 88.2211C669.328 87.2653 668.9 85.3357 669.856 83.8359C670.812 82.3357 672.741 81.9079 674.241 82.8638L682.277 87.9833C683.778 88.9389 684.205 90.8683 683.25 92.3685Z" fill="#1BD9DE"/>
<path d="M668.408 56.5519L644.517 94.0541C643.834 95.1257 634.824 98.2731 634.901 99.4522L631.188 91.2121C625.806 78.9709 616.053 68.389 605.981 61.9725L605.07 61.3922L622.135 34.6045L623.046 35.1848C633.654 41.9428 646.563 45.7979 660.302 45.5124L669.69 45.3173L668.408 56.5519Z" fill="#CAE8F9"/>
<path d="M608.245 44.585C607.289 46.085 605.36 46.513 603.86 45.5572L598.502 42.1442C597.002 41.1884 596.575 39.2588 597.53 37.759C598.486 36.2587 600.415 35.831 601.915 36.7868L607.273 40.1998C608.773 41.1556 609.201 43.085 608.245 44.585Z" fill="#E1E4FB"/>
<path d="M656.462 75.3028L644.516 94.0539C643.834 95.1255 634.824 98.2729 634.901 99.4519L631.188 91.2119C625.806 78.9706 616.052 68.3888 605.98 61.9722L605.07 61.392L613.602 47.9983L656.462 75.3028Z" fill="#B7E0F6"/>
<path d="M608.245 44.5848C607.289 46.0848 605.36 46.5128 603.86 45.557L598.502 42.144C597.002 41.1882 596.575 39.2587 597.53 37.7588L608.245 44.5848Z" fill="#C5C9F7"/>
<path d="M677.179 54.6076L646.461 102.825C644.584 105.771 640.637 106.646 637.69 104.769C637.369 104.564 637.116 104.252 636.863 103.94C635.586 102.751 634.866 101.162 634.901 99.452C634.824 98.2732 635.063 97.07 635.746 95.9984L666.464 47.7811C667.249 46.5487 668.414 45.7846 669.69 45.3173C670.967 44.8505 672.341 44.8221 673.671 45.2172C674.221 45.4172 674.752 45.5295 675.234 45.8368C678.181 47.714 679.056 51.661 677.179 54.6076Z" fill="#FE318F"/>
<path d="M661.82 78.7161L646.461 102.825C644.584 105.771 640.637 106.646 637.69 104.769C637.369 104.564 637.116 104.252 636.863 103.94C635.586 102.751 634.866 101.162 634.901 99.4518C634.824 98.2731 635.063 97.0698 635.746 95.9982L651.105 71.8897L661.82 78.7161Z" fill="#FD0F7F"/>
</g>
<g clip-path="url(#clip4)">
<path d="M200.718 120.405L192.202 94.6688L179.422 102.788L166.967 110.7L172.452 127.31C171.483 127.289 170.498 127.395 169.528 127.717C164.975 129.23 162.417 134.18 163.932 138.732C165.275 142.774 169.406 145.165 173.481 144.592C178.875 143.834 182.24 138.362 180.531 133.228L173.899 113.17L180.309 109.098L189.04 103.551L192.636 114.48C191.66 114.462 190.677 114.577 189.719 114.895C185.164 116.41 182.685 121.323 184.205 125.895C185.578 130.022 189.666 132.33 193.655 131.769C199.06 131.01 202.433 125.561 200.718 120.405Z" fill="#99BBFF"/>
<path d="M192.636 114.48C191.66 114.462 190.677 114.577 189.719 114.895C185.164 116.409 182.685 121.323 184.205 125.895C185.578 130.021 189.666 132.33 193.655 131.769C199.06 131.009 202.433 125.561 200.718 120.405L192.202 94.6688L179.422 102.788L180.309 109.098L189.039 103.551L192.636 114.48Z" fill="#8095FF"/>
<path d="M217.693 41.6559L208.198 43.9816L208.417 70.7645C206.701 69.7818 204.775 69.2073 202.743 69.1986C196.339 69.1831 191.116 74.3175 191.089 80.7445C191.05 87.8558 197.348 93.2651 204.312 92.2864C209.922 91.498 214.262 86.6806 214.289 80.8533C214.289 80.8415 214.03 48.522 214.03 48.522L218.504 47.427L243.283 41.3817L243.455 62.2083C241.773 61.2427 239.854 60.6424 237.78 60.6333C231.413 60.6056 226.153 65.7267 226.125 72.1792C226.087 79.2905 232.385 84.6998 239.349 83.7212C244.958 82.9328 249.298 78.1153 249.325 72.2851C249.326 72.2733 249.031 34.001 249.031 34.001L217.693 41.6559Z" fill="#99BBFF"/>
<path d="M243.455 62.2084C241.773 61.2428 239.854 60.6425 237.78 60.6333C231.413 60.6057 226.153 65.7268 226.125 72.1793C226.087 79.2906 232.385 84.6999 239.349 83.7212C244.958 82.9328 249.298 78.1154 249.325 72.2852C249.326 72.2734 249.031 34.0011 249.031 34.0011L217.693 41.656L218.504 47.427L243.283 41.3817L243.455 62.2084Z" fill="#8095FF"/>
<path d="M236.843 89.2991L230.208 110.314C229.436 109.73 228.577 109.239 227.603 108.932C226.454 108.568 225.29 108.456 224.167 108.562C220.778 108.88 217.765 111.187 216.685 114.605C214.759 120.701 219.853 126.734 226.176 125.845C226.316 125.825 226.442 125.756 226.58 125.73C229.623 125.149 232.281 123.005 233.279 119.853L233.279 119.85L238.158 104.399L242.497 112.745L247.642 110.071L236.843 89.2991Z" fill="#FFD480"/>
<path d="M233.279 119.853L233.279 119.85L238.158 104.399L242.497 112.745L247.642 110.071L236.843 89.2989L230.208 110.314C229.436 109.729 228.577 109.239 227.603 108.932C226.454 108.568 225.29 108.456 224.167 108.562L226.58 125.729C229.623 125.149 232.281 123.005 233.279 119.853Z" fill="#FFBB33"/>
<path d="M183.484 64.1823L167.034 56.3269L162.359 54.0941L169.599 74.5723L169.707 74.8797C169.686 74.8795 169.664 74.8896 169.643 74.8896C168.697 74.8922 167.737 75.0066 166.791 75.3352C162.24 76.9493 159.894 81.9235 161.49 86.4402C162.929 90.4976 166.974 92.7113 170.886 92.1615C171.288 92.1051 171.651 91.9722 172.029 91.8662C176.818 90.5234 179.589 85.42 177.899 80.6386L172.495 65.3636L180.982 69.4194L183.484 64.1823Z" fill="#FFD480"/>
<path d="M177.899 80.6389L172.495 65.3638L180.982 69.4196L183.484 64.1826L167.034 56.3271L169.598 74.5724L169.707 74.8798C169.686 74.8796 169.664 74.8897 169.643 74.8897L172.029 91.8663C176.818 90.5236 179.589 85.4203 177.899 80.6389Z" fill="#FFBB33"/>
</g>
<defs>
<clipPath id="clip0">
<rect width="129" height="129" fill="white" transform="translate(296 81)"/>
</clipPath>
<clipPath id="clip1">
<rect width="92.6637" height="92.6637" fill="white" transform="translate(486 160.095) rotate(-7.5)"/>
</clipPath>
<clipPath id="clip2">
<rect width="96.439" height="96.439" fill="white" transform="translate(0 164.397) rotate(-19)"/>
</clipPath>
<clipPath id="clip3">
<rect width="105.265" height="105.265" fill="white" transform="translate(669.77) rotate(77.5)"/>
</clipPath>
<clipPath id="clip4">
<rect width="99.0009" height="99.0009" fill="white" transform="translate(151 47.7783) rotate(-8)"/>
</clipPath>
</defs>
</svg>
