<svg width="313" height="89" viewBox="0 0 313 89" fill="none" xmlns="http://www.w3.org/2000/svg">
<g clip-path="url(#clip0)">
<path d="M302.89 22.5397L290.833 15.1661C289.379 14.2748 287.564 15.3755 287.607 17.0396C287.692 20.2886 285.495 23.8814 284.557 25.4155C283.618 26.9496 281.421 30.5412 278.49 31.946C276.988 32.6657 276.838 34.7833 278.291 35.6713L290.348 43.0455C296.027 46.5183 305.687 39.2005 306.096 38.8866C306.235 38.7799 306.33 38.6253 306.361 38.4527C306.454 37.9467 308.568 26.0125 302.89 22.5397ZM286.363 35.4224C286.647 33.4081 287.648 32.6778 289.619 32.9036C289.535 33.5259 288.367 35.6553 286.363 35.4224ZM297.038 36.1842C296.655 35.7995 296.341 35.3347 296.214 34.8041L296.213 34.8034C296.127 34.4334 296.133 34.0478 296.231 33.6806L296.232 33.68C296.317 33.367 296.447 33.0682 296.619 32.7929C297.338 31.6228 298.395 31.1711 299.829 31.6211C298.085 32.6742 297.181 34.1495 297.038 36.1842ZM293.56 26.3558C292.416 24.7028 292.687 23.5404 294.289 22.4528C295.466 24.1419 295.133 25.289 293.56 26.3558Z" fill="#E56161"/>
<path d="M294.291 22.4516C294.346 22.532 294.403 22.6188 294.458 22.7117C294.401 22.6181 294.344 22.5308 294.289 22.4528L294.291 22.4516Z" fill="#B2EBF2"/>
<path d="M297.623 19.3182C299.217 23.1591 299.759 27.3555 299.193 31.4754C299.408 31.5055 299.621 31.5542 299.828 31.621C299.572 31.7754 299.327 31.9461 299.093 32.1323C298.363 36.5436 296.374 40.6501 293.366 43.958C298.915 44.3292 305.753 39.1496 306.096 38.8866C306.235 38.7799 306.33 38.6252 306.361 38.4527C306.454 37.9467 308.568 26.0125 302.89 22.5396L297.623 19.3182Z" fill="#D65858"/>
<path d="M301.854 31.022C299.381 29.5125 296.891 29.6491 295.414 32.0531C295.413 32.0544 295.413 32.0555 295.412 32.0562C294.032 34.3251 294.786 36.6445 297.428 38.2598C297.472 38.2861 297.518 38.308 297.567 38.3254C297.567 38.3256 297.567 38.3257 297.567 38.3257C297.567 38.3257 297.568 38.3256 297.568 38.3254C297.677 38.3629 297.794 38.3729 297.909 38.3546C298.023 38.3363 298.131 38.2902 298.223 38.2204C298.315 38.1507 298.389 38.0593 298.438 37.9544C298.487 37.8495 298.509 37.7342 298.503 37.6187C298.502 37.6185 298.502 37.6183 298.502 37.618C298.502 37.6178 298.502 37.6176 298.503 37.6174C298.492 37.3631 298.185 35.6584 299.037 34.2719C299.898 32.8665 301.674 32.3071 301.69 32.3022C301.82 32.2626 301.937 32.1862 302.025 32.082C302.113 31.9779 302.169 31.8505 302.186 31.7153C302.204 31.58 302.181 31.4426 302.123 31.3196C302.064 31.1966 301.97 31.0932 301.854 31.022ZM297.038 36.1842C296.334 35.4784 295.986 34.639 296.231 33.6807C296.232 33.6807 296.232 33.68 296.232 33.68C296.317 33.3671 296.447 33.0682 296.619 32.7929C297.338 31.6229 298.395 31.1711 299.829 31.6211C298.085 32.6742 297.181 34.1496 297.038 36.1842Z" fill="#BF4B4B"/>
<path d="M296.608 35.6693C296.568 35.6095 296.53 35.5505 296.494 35.4889C296.53 35.5505 296.568 35.6108 296.608 35.6693Z" fill="#BF4B4B"/>
<path d="M296.493 35.4882C296.439 35.3969 296.391 35.3024 296.349 35.2051C296.392 35.3022 296.44 35.3967 296.493 35.4882Z" fill="#BF4B4B"/>
<path d="M296.308 35.1067C296.269 35.0082 296.238 34.907 296.214 34.8041C296.239 34.9069 296.27 35.008 296.308 35.1067Z" fill="#BF4B4B"/>
<path d="M296.231 33.6806C296.133 34.0478 296.127 34.4334 296.213 34.8035C296.126 34.4335 296.132 34.0477 296.231 33.6806Z" fill="#BF4B4B"/>
<path d="M296.232 33.68C296.276 33.5097 296.336 33.3438 296.41 33.1842C296.337 33.3441 296.277 33.51 296.232 33.68Z" fill="#BF4B4B"/>
<path d="M290.558 31.6395C290.456 31.6124 288.054 30.989 286.48 32.2051C285.414 33.0281 284.954 34.5493 284.905 35.8796C284.905 35.8834 284.903 35.9776 284.904 35.9814C284.904 35.9853 284.904 35.9986 284.904 36.0027C284.903 36.0045 284.903 36.0064 284.903 36.0083L284.904 36.0089C284.904 36.1638 284.956 36.3141 285.051 36.4366C285.146 36.5592 285.278 36.6472 285.428 36.6872C286.81 37.0584 288.696 36.9466 289.782 35.8796C291.08 34.6043 291.082 32.4165 291.082 32.3177C291.081 32.1629 291.029 32.0126 290.934 31.8901C290.84 31.7675 290.707 31.6795 290.558 31.6395ZM286.363 35.4224C286.647 33.4081 287.648 32.6778 289.619 32.9036C289.535 33.5259 288.367 35.6553 286.363 35.4224Z" fill="#BF4B4B"/>
<path d="M294.154 20.893C294.061 20.9391 291.851 22.0334 291.494 23.9488C291.136 25.8641 292.799 27.6828 292.87 27.759C292.973 27.8701 293.109 27.9451 293.258 27.973C293.407 28.0008 293.561 27.9801 293.697 27.9137C294.835 27.3638 296.108 26.1887 296.357 24.8586C296.717 22.9432 295.053 21.1252 294.981 21.0484C294.878 20.9375 294.742 20.8627 294.593 20.8347C294.444 20.8068 294.291 20.8272 294.154 20.893ZM293.56 26.3558C292.416 24.7028 292.687 23.5404 294.289 22.4527C295.451 24.1202 295.163 25.269 293.56 26.3558Z" fill="#BF4B4B"/>
<path d="M294.154 20.893C294.061 20.9391 291.851 22.0334 291.494 23.9488C291.136 25.8641 292.799 27.6828 292.87 27.759C292.973 27.8701 293.109 27.9451 293.258 27.973C293.407 28.0008 293.561 27.9801 293.697 27.9137C294.835 27.3638 296.108 26.1887 296.357 24.8586C296.717 22.9432 295.053 21.1252 294.981 21.0484C294.878 20.9375 294.742 20.8627 294.593 20.8347C294.444 20.8068 294.291 20.8272 294.154 20.893ZM293.56 26.3558C292.416 24.7028 292.687 23.5404 294.289 22.4527C295.451 24.1202 295.163 25.269 293.56 26.3558Z" fill="#BF4B4B"/>
<path d="M290.558 31.6395C290.456 31.6124 288.054 30.989 286.48 32.2051C285.436 33.011 285.021 34.4075 284.914 35.7153C284.912 35.7405 284.901 35.9564 284.904 35.9814C284.869 36.2108 285.057 36.5881 285.428 36.6871C286.81 37.0584 288.696 36.9466 289.782 35.8796C291.08 34.6043 291.082 32.4165 291.082 32.3177C291.081 32.1629 291.029 32.0126 290.934 31.8901C290.84 31.7675 290.707 31.6795 290.558 31.6395ZM286.363 35.4224C286.647 33.4081 287.648 32.6778 289.619 32.9036C289.535 33.5259 288.367 35.6553 286.363 35.4224Z" fill="#BF4B4B"/>
<path d="M292.937 31.2823L288.46 28.7436C288.379 28.6978 288.308 28.6366 288.251 28.5634C288.194 28.4902 288.152 28.4064 288.127 28.317C288.103 28.2275 288.096 28.134 288.107 28.0418C288.118 27.9497 288.148 27.8607 288.194 27.7799C288.239 27.6991 288.301 27.6282 288.374 27.571C288.447 27.5139 288.531 27.4718 288.62 27.447C288.71 27.4223 288.803 27.4154 288.895 27.4268C288.988 27.4382 289.077 27.4676 289.157 27.5134L293.635 30.0521C293.798 30.1445 293.917 30.298 293.967 30.4787C294.017 30.6595 293.994 30.8526 293.901 31.0158C293.809 31.1789 293.655 31.2986 293.474 31.3486C293.294 31.3986 293.101 31.3748 292.937 31.2823Z" fill="#BF4B4B"/>
<path d="M297.428 38.2596C294.554 36.5019 294.126 34.0055 295.414 32.0532C296.805 29.7916 299.213 29.4066 301.854 31.0222C301.97 31.0935 302.063 31.1969 302.122 31.3199C302.181 31.4429 302.203 31.5803 302.186 31.7155C302.168 31.8507 302.112 31.978 302.024 32.0821C301.936 32.1862 301.82 32.2626 301.689 32.3022C301.673 32.3072 299.898 32.8661 299.038 34.272C298.178 35.6779 298.489 37.513 298.493 37.5318C298.516 37.6659 298.501 37.8038 298.448 37.9292C298.395 38.0546 298.307 38.1622 298.195 38.2389C298.082 38.3157 297.95 38.3585 297.814 38.3622C297.678 38.3658 297.544 38.3302 297.428 38.2596ZM296.619 32.7927C295.755 34.2158 296.209 35.3467 297.039 36.1838C297.181 34.1513 298.084 32.6743 299.829 31.622C298.706 31.2638 297.492 31.3749 296.619 32.7927Z" fill="#BF4B4B"/>
<path d="M269.324 17.5947C268.424 18.4797 268.666 20.4365 262.414 24.3453C260.889 25.2987 257.319 27.531 254.069 27.4783C252.407 27.4517 251.322 29.2752 252.227 30.7224L259.72 42.7061C263.248 48.3498 275.161 46.1185 275.666 46.0211C275.838 45.9874 275.992 45.8912 276.097 45.7511C276.407 45.3395 283.63 35.607 280.101 29.9633L272.609 17.9796C272.441 17.71 272.214 17.4818 271.946 17.3117C271.678 17.1417 271.375 17.0342 271.059 16.9972C270.744 16.9603 270.424 16.9948 270.124 17.0982C269.823 17.2016 269.55 17.3713 269.324 17.5947ZM258.158 34.8198C258.042 34.717 257.963 34.5789 257.933 34.4268C257.903 34.2747 257.924 34.117 257.992 33.9779C258.039 33.8839 259.149 31.6652 261.101 31.2791C263.054 30.8931 264.923 32.5254 265.003 32.5949C265.118 32.6976 265.197 32.8356 265.227 32.9876C265.257 33.1396 265.236 33.2972 265.168 33.4362C264.618 34.5743 263.413 35.8667 262.06 36.1349C260.107 36.5197 258.237 34.8886 258.158 34.8198ZM273.282 35.0605C273.536 35.4542 273.708 35.8942 273.79 36.3551C273.872 36.816 273.862 37.2886 273.759 37.7454C273.657 38.2022 273.465 38.6342 273.195 39.0162C272.924 39.3982 272.58 39.7227 272.183 39.9708C271.787 40.219 271.344 40.3858 270.882 40.4616C270.42 40.5375 269.948 40.5208 269.493 40.4126C269.037 40.3044 268.608 40.1068 268.229 39.8313C267.851 39.5558 267.531 39.2078 267.288 38.8077L266.538 37.6094L272.533 33.8617L273.282 35.0605ZM272.657 28.6929C271.683 29.9804 269.483 29.9575 269.483 29.9575C269.483 29.9575 268.865 27.8467 269.84 26.5592C270.814 25.2716 273.013 25.2952 273.013 25.2952C273.013 25.2952 273.632 27.4053 272.657 28.6929Z" fill="#B2EBF2"/>
<path d="M273.806 37.2338C273.752 37.8857 273.517 38.5095 273.128 39.0356C272.739 39.5616 272.211 39.9691 271.604 40.2126C269.399 42.67 266.593 44.5114 263.461 45.556C268.334 47.3958 275.282 46.0947 275.665 46.0208C275.837 45.9872 275.991 45.891 276.096 45.7509C276.405 45.3392 283.629 35.6068 280.1 29.963L276.105 23.5736C277.073 28.2543 276.253 33.1278 273.806 37.2338Z" fill="#80DEEA"/>
<path d="M284.621 20.2441L282.648 20.8818L281.976 22.8439C281.933 22.968 281.857 23.0779 281.755 23.1611C281.654 23.2444 281.531 23.2978 281.401 23.3154C281.271 23.3329 281.139 23.314 281.019 23.2606C280.899 23.2072 280.797 23.1215 280.723 23.0131L279.623 21.4L277.614 21.4572C277.48 21.4608 277.348 21.4264 277.233 21.3581C277.118 21.2898 277.025 21.1903 276.964 21.0712C276.904 20.9521 276.878 20.8182 276.89 20.6851C276.902 20.5519 276.952 20.425 277.034 20.3189L278.306 18.6678L277.72 16.7628C277.682 16.639 277.679 16.5072 277.711 16.3816C277.742 16.2561 277.808 16.1418 277.9 16.051C277.993 15.9603 278.108 15.8966 278.234 15.8669C278.36 15.8373 278.492 15.8428 278.615 15.8829L280.51 16.5023L282.183 15.2587C282.29 15.1791 282.418 15.1316 282.551 15.1217C282.685 15.1118 282.818 15.1398 282.936 15.2026C283.054 15.2654 283.152 15.3604 283.218 15.4765C283.285 15.5926 283.317 15.7251 283.311 15.8587L283.219 17.8664L284.812 18.9944C284.919 19.0702 285.003 19.1743 285.055 19.2951C285.106 19.4159 285.122 19.5485 285.103 19.6782C285.083 19.808 285.027 19.9296 284.942 20.0295C284.857 20.1294 284.746 20.2038 284.621 20.2441Z" fill="#FFD740"/>
<path d="M284.751 11.9881L281.669 11.4262L279.462 13.6747C279.369 13.769 279.252 13.8353 279.123 13.8662C278.995 13.8971 278.86 13.8914 278.735 13.8497C278.609 13.808 278.498 13.7319 278.413 13.6301C278.329 13.5284 278.275 13.405 278.257 13.274L277.833 10.1301L275.032 8.70277C274.915 8.64296 274.817 8.55181 274.749 8.43952C274.681 8.32723 274.646 8.19823 274.647 8.06694C274.648 7.93566 274.686 7.80727 274.755 7.69615C274.825 7.58503 274.925 7.49555 275.043 7.43773L277.868 6.0594L278.347 2.92346C278.368 2.79277 278.424 2.67035 278.51 2.57007C278.596 2.4698 278.709 2.3957 278.835 2.35616C278.961 2.31663 279.096 2.31325 279.224 2.34642C279.352 2.37958 279.468 2.44795 279.559 2.54378L281.727 4.8305L284.818 4.32243C284.948 4.30127 285.082 4.3168 285.203 4.36728C285.325 4.41776 285.43 4.50117 285.507 4.60815C285.584 4.71512 285.629 4.8414 285.638 4.97278C285.647 5.10416 285.619 5.23542 285.557 5.3518L284.071 8.14899L285.508 10.9718C285.568 11.0892 285.594 11.221 285.583 11.3523C285.572 11.4836 285.524 11.6091 285.445 11.7148C285.367 11.8205 285.26 11.9021 285.137 11.9504C285.015 11.9987 284.881 12.0117 284.751 11.9881Z" fill="#FFD740"/>
<path d="M282.079 54.5661C281.945 54.6975 281.869 54.8767 281.867 55.0642C281.866 55.2517 281.939 55.4322 282.07 55.5659L285.043 58.5914C285.175 58.7252 285.354 58.8012 285.541 58.8029C285.729 58.8045 285.909 58.7316 286.043 58.6002C286.177 58.4687 286.253 58.2896 286.255 58.1021C286.256 57.9146 286.183 57.7341 286.052 57.6004L283.079 54.5748C282.947 54.4411 282.768 54.3651 282.581 54.3634C282.393 54.3618 282.213 54.4347 282.079 54.5661Z" fill="#FFD740"/>
<path d="M275.142 47.5065C275.008 47.638 274.932 47.8171 274.93 48.0046C274.928 48.1921 275.001 48.3726 275.133 48.5063L278.106 51.5319C278.237 51.6656 278.417 51.7416 278.604 51.7433C278.792 51.7449 278.972 51.672 279.106 51.5406C279.239 51.4092 279.316 51.23 279.317 51.0425C279.319 50.855 279.246 50.6745 279.114 50.5408L276.141 47.5153C276.01 47.3815 275.831 47.3055 275.643 47.3038C275.456 47.3022 275.275 47.3751 275.142 47.5065Z" fill="#FFD740"/>
<path d="M281.088 53.5576C281.366 53.2839 281.37 52.8363 281.097 52.5578C280.823 52.2793 280.375 52.2754 280.097 52.5491C279.818 52.8228 279.814 53.2704 280.088 53.5489C280.362 53.8274 280.809 53.8313 281.088 53.5576Z" fill="#FFD740"/>
<path d="M285.139 47.5937L282.114 50.5669C281.98 50.6983 281.904 50.8775 281.902 51.065C281.901 51.2525 281.974 51.433 282.105 51.5667C282.237 51.7004 282.416 51.7765 282.603 51.7781C282.791 51.7798 282.971 51.7068 283.105 51.5754L286.13 48.6022C286.264 48.4708 286.34 48.2917 286.342 48.1042C286.343 47.9167 286.271 47.7362 286.139 47.6025C286.008 47.4687 285.829 47.3927 285.641 47.391C285.454 47.3894 285.273 47.4623 285.139 47.5937Z" fill="#FFD740"/>
<path d="M281.334 49.0604L281.352 47.0608C281.352 46.968 281.335 46.8759 281.3 46.7898C281.265 46.7037 281.214 46.6253 281.149 46.5591C281.084 46.4929 281.006 46.4401 280.921 46.4039C280.835 46.3676 280.744 46.3485 280.651 46.3477C280.558 46.3469 280.466 46.3644 280.38 46.3991C280.294 46.4339 280.215 46.4853 280.149 46.5504C280.083 46.6155 280.03 46.6929 279.994 46.7784C279.958 46.8639 279.939 46.9556 279.938 47.0485L279.92 49.048C279.919 49.2355 279.992 49.416 280.123 49.5498C280.254 49.6835 280.434 49.7596 280.621 49.7612C280.809 49.7628 280.989 49.6899 281.123 49.5585C281.256 49.4271 281.333 49.2479 281.334 49.0604Z" fill="#FFD740"/>
<path d="M276.963 53.6466C277.062 53.5484 277.13 53.4231 277.158 53.2863C277.187 53.1495 277.174 53.0074 277.121 52.8779C277.069 52.7485 276.98 52.6373 276.864 52.5586C276.749 52.4798 276.613 52.4369 276.473 52.4354L274.474 52.4179C274.381 52.4171 274.289 52.4346 274.203 52.4694C274.117 52.5041 274.038 52.5555 273.972 52.6206C273.906 52.6857 273.853 52.7632 273.817 52.8486C273.781 52.9341 273.761 53.0259 273.761 53.1187C273.76 53.2115 273.777 53.3036 273.812 53.3897C273.847 53.4758 273.898 53.5542 273.963 53.6204C274.028 53.6866 274.106 53.7394 274.191 53.7757C274.277 53.8119 274.369 53.831 274.461 53.8318C276.291 53.7865 276.607 53.9956 276.963 53.6466Z" fill="#FFD740"/>
<path d="M284.598 52.3812C284.41 52.3796 284.23 52.4525 284.096 52.5839C283.962 52.7154 283.886 52.8945 283.885 53.082C283.883 53.2695 283.956 53.45 284.087 53.5837C284.219 53.7175 284.398 53.7935 284.585 53.7952L286.585 53.8126C286.772 53.8143 286.953 53.7413 287.087 53.6099C287.22 53.4785 287.296 53.2993 287.298 53.1118C287.3 52.9243 287.227 52.7438 287.095 52.6101C286.964 52.4764 286.785 52.4003 286.597 52.3987L284.598 52.3812Z" fill="#FFD740"/>
<path d="M279.724 57.1702L279.707 59.1698C279.705 59.3573 279.778 59.5377 279.91 59.6715C280.041 59.8052 280.22 59.8813 280.408 59.8829C280.595 59.8845 280.776 59.8116 280.909 59.6802C281.043 59.5488 281.119 59.3696 281.121 59.1821L281.138 57.1825C281.139 57.0897 281.122 56.9976 281.087 56.9115C281.052 56.8254 281.001 56.747 280.936 56.6808C280.871 56.6146 280.793 56.5618 280.708 56.5256C280.622 56.4893 280.53 56.4702 280.438 56.4694C280.345 56.4686 280.253 56.4861 280.167 56.5208C280.08 56.5556 280.002 56.607 279.936 56.6721C279.87 56.7372 279.817 56.8146 279.781 56.9001C279.744 56.9856 279.725 57.0773 279.724 57.1702Z" fill="#FFD740"/>
<path d="M278.08 54.5312L275.054 57.5043C274.921 57.6358 274.844 57.8149 274.843 58.0024C274.841 58.1899 274.914 58.3704 275.046 58.5041C275.177 58.6379 275.356 58.7139 275.544 58.7156C275.731 58.7172 275.912 58.6443 276.045 58.5129L279.071 55.5397C279.205 55.4083 279.281 55.2291 279.282 55.0416C279.284 54.8541 279.211 54.6736 279.08 54.5399C278.948 54.4062 278.769 54.3301 278.581 54.3285C278.394 54.3268 278.214 54.3998 278.08 54.5312Z" fill="#FFD740"/>
<path d="M268.2 33.6595C268.118 33.7038 268.029 33.7317 267.937 33.7415C267.844 33.7513 267.751 33.7428 267.662 33.7165C267.573 33.6902 267.49 33.6466 267.418 33.5883C267.345 33.5299 267.285 33.4579 267.241 33.3763L264.781 28.8555C264.736 28.7739 264.709 28.6844 264.699 28.5921C264.689 28.4997 264.698 28.4064 264.724 28.3173C264.75 28.2283 264.794 28.1453 264.852 28.0731C264.911 28.0009 264.983 27.9409 265.064 27.8966C265.146 27.8522 265.235 27.8244 265.327 27.8146C265.42 27.8048 265.513 27.8133 265.602 27.8396C265.691 27.866 265.774 27.9095 265.846 27.9679C265.919 28.0263 265.979 28.0983 266.023 28.1799L268.483 32.7007C268.573 32.8654 268.593 33.059 268.54 33.2388C268.487 33.4185 268.365 33.5699 268.2 33.6595Z" fill="#4DD0E1"/>
<path d="M272.533 40.5306C271.578 41.1257 270.427 41.3179 269.331 41.0652C268.235 40.8125 267.284 40.1354 266.687 39.1825L265.937 37.9836C265.838 37.8246 265.806 37.6327 265.848 37.45C265.89 37.2673 266.003 37.1088 266.162 37.0094C272.441 33.1704 272.178 33.054 272.69 33.172C273.157 33.2795 273.181 33.6643 273.881 34.6851C274.476 35.6394 274.668 36.7907 274.415 37.8865C274.163 38.9824 273.485 39.9333 272.533 40.5306ZM271.783 39.3317C272.418 38.9334 272.869 38.2995 273.038 37.5689C273.206 36.8384 273.078 36.0709 272.682 35.4346L272.307 34.8351L267.511 37.8334L267.886 38.4329C268.284 39.0682 268.918 39.5196 269.649 39.6881C270.379 39.8566 271.147 39.7284 271.783 39.3317Z" fill="#4DD0E1"/>
<path d="M269.475 30.6639C269.323 30.6623 269.176 30.6121 269.055 30.5207C268.935 30.4292 268.846 30.3013 268.804 30.1559C268.774 30.0558 268.098 27.6856 269.274 26.1321C270.451 24.5785 272.915 24.5863 273.02 24.5876C273.171 24.5892 273.318 24.6394 273.439 24.7309C273.56 24.8224 273.648 24.9502 273.691 25.0956C273.72 25.1957 274.396 27.5661 273.22 29.1195C272.398 30.2053 270.732 30.6776 269.475 30.6639ZM270.048 29.2093C272.005 28.9481 272.726 27.9983 272.446 26.0424C270.49 26.3033 269.769 27.2528 270.048 29.2093Z" fill="#4DD0E1"/>
<path d="M262.058 36.1344C260.106 36.5195 258.235 34.8884 258.157 34.8188C258.041 34.7161 257.962 34.5782 257.932 34.4262C257.902 34.2743 257.923 34.1166 257.991 33.9776C258.037 33.8833 259.148 31.6642 261.1 31.2789C263.053 30.8936 264.923 32.5248 265.001 32.5945C265.117 32.6972 265.196 32.835 265.226 32.9869C265.256 33.1388 265.235 33.2964 265.167 33.4353C264.595 34.5982 263.405 35.8688 262.058 36.1344ZM259.559 34.1053C261.275 35.2258 262.487 34.9325 263.598 33.3068C261.916 32.2104 260.698 32.4511 259.558 34.1055L259.559 34.1053Z" fill="#4DD0E1"/>
<path d="M255.878 31.4339C256.435 30.8865 256.443 29.9913 255.895 29.4343C255.348 28.8773 254.453 28.8695 253.896 29.4168C253.339 29.9642 253.331 30.8594 253.878 31.4164C254.425 31.9734 255.321 31.9812 255.878 31.4339Z" fill="#E0F7FA"/>
<path d="M258.886 30.4602C259.164 30.1866 259.168 29.739 258.894 29.4605C258.621 29.182 258.173 29.1781 257.895 29.4517C257.616 29.7254 257.612 30.173 257.886 30.4515C258.16 30.73 258.607 30.7339 258.886 30.4602Z" fill="#E0F7FA"/>
<path d="M291.887 19.1566C292.444 18.6093 292.451 17.7141 291.904 17.1571C291.357 16.6001 290.461 16.5923 289.904 17.1396C289.347 17.687 289.34 18.5822 289.887 19.1392C290.434 19.6962 291.33 19.704 291.887 19.1566Z" fill="#F29C9C"/>
<path d="M290.861 22.1473C291.139 21.8736 291.143 21.426 290.869 21.1475C290.596 20.869 290.148 20.8651 289.87 21.1387C289.591 21.4124 289.587 21.86 289.861 22.1385C290.135 22.417 290.582 22.4209 290.861 22.1473Z" fill="#F29C9C"/>
<path d="M280.476 9.05849C281.033 8.51114 281.041 7.61591 280.494 7.05892C279.946 6.50194 279.051 6.49413 278.494 7.04147C277.937 7.58882 277.929 8.48406 278.477 9.04104C279.024 9.59802 279.919 9.60584 280.476 9.05849Z" fill="#FFE7A4"/>
<path d="M284.818 4.32225L282.578 4.69014C282.347 7.49917 280.794 10.3901 278.148 12.4703L278.257 13.2741C278.274 13.4052 278.329 13.5288 278.413 13.6307C278.497 13.7326 278.609 13.8087 278.734 13.8505C278.86 13.8922 278.995 13.8979 279.123 13.8668C279.252 13.8358 279.369 13.7693 279.462 13.6748L281.669 11.4263L284.751 11.9882C284.881 12.0116 285.015 11.9984 285.137 11.95C285.259 11.9017 285.366 11.8201 285.445 11.7145C285.523 11.6089 285.571 11.4834 285.582 11.3522C285.593 11.221 285.568 11.0893 285.508 10.9718L284.071 8.14906L285.557 5.35162C285.619 5.23524 285.647 5.10397 285.638 4.97259C285.629 4.84121 285.583 4.71493 285.507 4.60796C285.43 4.50099 285.325 4.41757 285.203 4.36709C285.081 4.31662 284.948 4.30109 284.818 4.32225Z" fill="#FFC400"/>
<path d="M282.183 15.2586L280.891 16.2186C281.491 17.1837 281.766 18.316 281.674 19.4488C281.582 20.5816 281.128 21.6549 280.38 22.5106L280.723 23.0128C280.797 23.121 280.899 23.2066 281.019 23.2598C281.139 23.3131 281.271 23.332 281.401 23.3145C281.531 23.2969 281.654 23.2436 281.755 23.1604C281.857 23.0773 281.933 22.9676 281.976 22.8436L282.648 20.8815C284.626 20.2173 284.691 20.2802 284.899 20.0758C284.973 20.0033 285.03 19.9154 285.066 19.8185C285.102 19.7216 285.117 19.6179 285.108 19.5148C285.1 19.4116 285.069 19.3116 285.018 19.2217C284.967 19.1318 284.897 19.0542 284.812 18.9944L283.219 17.8664L283.311 15.8587C283.317 15.7251 283.285 15.5926 283.218 15.4765C283.152 15.3604 283.054 15.2655 282.936 15.2027C282.818 15.1399 282.685 15.1118 282.552 15.1217C282.418 15.1316 282.29 15.179 282.183 15.2586Z" fill="#FFC400"/>
</g>
<g clip-path="url(#clip1)">
<path d="M81.4529 51.1889L43.4587 84.8033C42.6193 85.5459 41.337 85.4675 40.5944 84.6281L23.7872 65.631L64.8209 29.3275L81.6281 48.3246C82.3706 49.1639 82.2923 50.4463 81.4529 51.1889Z" fill="#DEDEDE"/>
<path d="M30.3918 51.6597L34.4255 56.219L64.8209 29.3275L59.4426 23.2485L27.8314 51.2156L30.3918 51.6597Z" fill="#666666"/>
<path d="M48.1034 44.1179L42.0244 49.4962L41.2054 39.3834L47.2844 34.0051L48.1034 44.1179Z" fill="#DEDEDE"/>
<path d="M60.2616 33.3613L54.1825 38.7396L53.3635 28.6268L59.4426 23.2485L60.2616 33.3613Z" fill="#DEDEDE"/>
<path d="M29.0472 50.14L29.1529 51.4445L30.3918 51.6598L34.4255 56.219L35.9453 54.8745L35.1263 44.7617L29.0472 50.14Z" fill="#DEDEDE"/>
<path d="M29.1529 51.4446L27.8314 51.2157L25.4695 50.806L24.6679 50.6671L17.5899 49.4392L15.9341 50.9042L13.0306 53.473L18.4089 59.552L23.7872 65.6311L29.8663 60.2528L34.4256 56.2191L30.3918 51.6598L29.1529 51.4446Z" fill="#666666"/>
<path d="M22.7054 59.8149L24.2252 58.4703L25.5697 59.9901L24.05 61.3346L22.7054 59.8149Z" fill="#DEDEDE"/>
<path d="M17.3271 53.7358L18.8469 52.3912L20.1914 53.911L18.6717 55.2555L17.3271 53.7358Z" fill="#DEDEDE"/>
<path d="M27.2647 55.7811L28.7845 54.4366L30.1291 55.9563L28.6093 57.3009L27.2647 55.7811Z" fill="#DEDEDE"/>
<path d="M32.2926 67.5888L65.7275 38.0081L67.0721 39.5279L33.6372 69.1086L32.2926 67.5888Z" fill="#C7C7C7"/>
<path d="M71.1058 44.0872L37.6709 73.6679L39.0155 75.1877L48.894 66.4479L52.9277 71.0072L54.4475 69.6626L50.4138 65.1034L61.0521 55.6913L65.0858 60.2506L66.6056 58.906L62.5719 54.3467L72.4504 45.607L71.1058 44.0872Z" fill="#C7C7C7"/>
<path d="M25.4695 50.8059L49.1115 11.5713L42.1593 7.38192L15.9341 50.9041L17.5899 49.4392L25.4695 50.8059Z" fill="#DEDEDE"/>
<path d="M37.5913 30.6895L33.4019 37.6418L29.5919 28.238L33.7805 21.2864L37.5913 30.6895Z" fill="#666666"/>
<path d="M45.9693 16.7857L41.7807 23.7373L37.9699 14.3342L42.1593 7.38197L45.9693 16.7857Z" fill="#666666"/>
<path d="M25.4695 50.806L29.2125 44.594L25.4025 35.1903L21.2131 42.1425L24.6679 50.6671L25.4695 50.806Z" fill="#666666"/>
<path d="M23.7872 65.631L64.8209 29.3275L66.8378 31.6071L25.804 67.9107L23.7872 65.631Z" fill="#C7C7C7"/>
<path d="M34.1849 38.3078L34.2712 38.165L34.3984 37.955L41.203 26.6596L42.647 24.2632L44.7844 20.7167L49.9809 12.0945C50.2699 11.6145 50.1149 10.9911 49.6349 10.7021L49.6348 10.702L42.6825 6.51259C42.6659 6.50294 42.6472 6.50324 42.6297 6.49427C42.5455 6.44958 42.4552 6.4172 42.3618 6.3981C42.332 6.39196 42.3038 6.38161 42.2739 6.37834C42.2625 6.37522 42.2507 6.37289 42.2391 6.37118C42.1373 6.36352 42.0349 6.37181 41.9357 6.39575C41.9095 6.40134 41.8857 6.41426 41.8601 6.42203C41.7733 6.44898 41.6906 6.48714 41.6138 6.53563C41.5846 6.55469 41.5583 6.57249 41.5304 6.5945C41.4345 6.66733 41.3528 6.75704 41.2892 6.85935L25.9523 32.3115L24.5332 34.667L22.0965 38.7113L15.1455 50.2471L12.3583 52.713C11.9387 53.0843 11.8994 53.7256 12.2707 54.1452L39.8345 85.3004C40.9484 86.5595 42.872 86.6771 44.131 85.5632L82.1252 51.9488C83.3842 50.8349 83.5019 48.9113 82.388 47.6523L60.2025 22.5761C60.1897 22.5617 60.1714 22.5563 60.1578 22.5425C60.0898 22.4737 60.0123 22.415 59.9277 22.3682C59.9039 22.353 59.8793 22.339 59.8541 22.3263C59.8467 22.3179 59.8334 22.3121 59.8222 22.3071C59.7262 22.2698 59.625 22.2473 59.5222 22.2406C59.4986 22.2384 59.4754 22.2427 59.4517 22.242C59.3579 22.2418 59.2646 22.2543 59.1741 22.2789C59.1419 22.2885 59.1112 22.2967 59.0803 22.3091C58.967 22.3499 58.862 22.4106 58.7703 22.4886L27.5247 50.1324L27.1043 50.0599L34.1849 38.3078ZM41.9852 9.64113L44.8392 16.695L43.0121 19.7271L41.9573 21.4732L39.1025 14.4185L39.9822 12.9629L41.9852 9.64113ZM25.2043 49.2782L22.3496 42.2235L25.2294 37.4445L28.0834 44.4984L26.3105 47.4432L25.2043 49.2782ZM37.792 16.5967L40.6467 23.6514L37.7668 28.4304L34.9115 21.375L35.2671 20.7894L37.792 16.5967ZM36.4597 30.6002L33.5806 35.3785L30.7265 28.3247L33.6056 23.5463L36.4597 30.6002ZM32.2731 37.5554L29.3932 42.3344L26.5385 35.2798L29.4163 30.4985L32.2731 37.5554ZM23.0426 49.3564L18.525 48.5713L21.0353 44.405L23.0426 49.3564ZM46.1499 14.5261L44.2445 9.8246L47.7225 11.9183L46.1499 14.5261ZM14.4629 53.5604L17.8975 50.5217L25.2963 51.8058L27.654 52.2138L28.7762 52.4104L28.9697 52.4438L29.8588 52.5974L32.9889 56.1354L23.8749 64.1988L14.4629 53.5604ZM80.8683 48.9968C81.2396 49.4164 81.2004 50.0577 80.7807 50.429L42.7865 84.0434C42.3669 84.4146 41.7256 84.3754 41.3544 83.9558L25.2195 65.7186L64.7334 30.7596L80.8683 48.9968ZM63.3888 29.2398L61.1092 31.2567L60.6997 26.2003L63.3888 29.2398ZM59.2095 32.9374L55.0301 36.635L54.4159 29.0504L58.5952 25.3528L59.2095 32.9374ZM53.1304 38.3157L48.951 42.0133L48.3368 34.4287L52.5161 30.7311L53.1304 38.3157ZM47.0513 43.694L42.872 47.3916L42.2577 39.807L46.4371 36.1094L47.0513 43.694ZM40.9723 49.0723L36.7929 52.7699L36.1787 45.1853L40.358 41.4877L40.9723 49.0723ZM34.8932 54.4506L34.5133 54.7868L31.1518 50.9874C30.9992 50.8147 30.7923 50.6991 30.5652 50.6597L30.1015 50.5795L34.2789 46.866L34.8932 54.4506Z" fill="black"/>
<path d="M22.7054 59.8148L24.2252 58.4702L25.5698 59.9899L24.05 61.3345L22.7054 59.8148Z" fill="black"/>
<path d="M17.3271 53.7358L18.8469 52.3912L20.1914 53.911L18.6717 55.2555L17.3271 53.7358Z" fill="black"/>
<path d="M27.2647 55.7811L28.7845 54.4365L30.1291 55.9563L28.6093 57.3008L27.2647 55.7811Z" fill="black"/>
<path d="M32.2926 67.5888L65.7275 38.0081L67.0721 39.5279L33.6372 69.1086L32.2926 67.5888Z" fill="black"/>
<path d="M39.0155 75.1877L48.894 66.4479L52.9277 71.0072L54.4475 69.6627L50.4138 65.1034L61.0521 55.6913L65.0859 60.2506L66.6056 58.906L62.5719 54.3467L72.4504 45.607L71.1058 44.0872L37.6709 73.6679L39.0155 75.1877Z" fill="black"/>
</g>
<defs>
<clipPath id="clip0">
<rect width="45.2468" height="45.2468" fill="white" transform="translate(248.782 31.7787) rotate(-44.5)"/>
</clipPath>
<clipPath id="clip1">
<rect width="60.8701" height="60.8701" fill="white" transform="translate(3.05176e-05 43.3337) rotate(-41.5)"/>
</clipPath>
</defs>
</svg>
