<svg width="676" height="311" viewBox="0 0 676 311" fill="none" xmlns="http://www.w3.org/2000/svg">
<g clip-path="url(#clip0)">
<path d="M171.446 177.727L165.024 181.07C161.477 182.917 157.105 181.538 155.259 177.991L130.185 129.825L136.607 126.482L131.745 117.141L138.167 113.798L171.446 177.727Z" fill="#C3D3DD"/>
<path d="M223.991 150.374C227.538 148.528 228.917 144.156 227.07 140.609L193.031 75.2194L134.064 105.916L168.103 171.305C169.95 174.852 168.571 179.224 165.024 181.07L223.991 150.374Z" fill="white"/>
<path d="M155.202 129.417L177.68 117.716L192.268 145.74L169.791 157.441L155.202 129.417Z" fill="#80B6FF"/>
<path d="M146.084 111.902L191.04 88.4998L196.51 99.0088L151.555 122.411L146.084 111.902Z" fill="#FFCD69"/>
<path d="M192.271 73.7599L133.304 104.456C132.498 104.876 132.184 105.869 132.604 106.676L135.947 113.098L130.985 115.681C130.179 116.101 129.865 117.095 130.285 117.901L134.388 125.782L129.425 128.366C128.619 128.785 128.306 129.779 128.726 130.585L153.799 178.751C156.062 183.097 161.438 184.792 165.784 182.53L224.751 151.834C229.097 149.571 230.792 144.195 228.53 139.849L194.49 74.4596C194.071 73.6535 193.077 73.3403 192.271 73.7599ZM225.611 141.369C227.035 144.105 225.968 147.49 223.232 148.914L170.382 176.426C170.778 174.497 170.541 172.425 169.563 170.545L159.306 150.841C158.886 150.035 157.892 149.722 157.086 150.142C156.28 150.561 155.967 151.555 156.386 152.361L166.644 172.065C168.068 174.801 167.001 178.186 164.264 179.611C161.528 181.035 158.143 179.968 156.718 177.232L132.405 130.525L135.908 128.701L159.462 173.948C159.881 174.754 160.875 175.068 161.681 174.648C162.487 174.229 162.8 173.235 162.381 172.429L133.964 117.84L137.467 116.017L149.548 139.225C149.968 140.031 150.962 140.344 151.768 139.924C152.574 139.505 152.887 138.511 152.467 137.705L136.283 106.616L192.331 77.4388L225.611 141.369Z" fill="black"/>
<path d="M152.315 123.87L197.27 100.468C198.076 100.049 198.389 99.0551 197.97 98.2489L192.499 87.74C192.08 86.934 191.086 86.6206 190.28 87.0402L145.325 110.442C144.519 110.862 144.205 111.856 144.625 112.662L150.095 123.171C150.515 123.977 151.509 124.29 152.315 123.87ZM148.304 112.602L190.34 90.7192L194.291 98.309L152.255 120.192L148.304 112.602Z" fill="black"/>
<path d="M170.55 158.9L193.028 147.199C193.834 146.78 194.147 145.786 193.728 144.98L179.139 116.956C178.72 116.15 177.726 115.837 176.92 116.256L154.442 127.957C153.636 128.377 153.323 129.371 153.743 130.177L168.331 158.201C168.751 159.007 169.744 159.32 170.55 158.9ZM157.422 130.117L176.98 119.935L190.049 145.04L170.49 155.222L157.422 130.117Z" fill="black"/>
<path d="M199.398 104.555L183.926 112.609C183.12 113.029 182.807 114.022 183.226 114.829C183.646 115.635 184.64 115.948 185.446 115.528L200.917 107.474C201.723 107.055 202.037 106.061 201.617 105.255C201.197 104.449 200.204 104.136 199.398 104.555Z" fill="black"/>
<path d="M203.045 111.561L187.573 119.615C186.767 120.035 186.454 121.028 186.873 121.835C187.293 122.641 188.287 122.954 189.093 122.534L204.564 114.48C205.37 114.061 205.684 113.067 205.264 112.261C204.844 111.455 203.851 111.142 203.045 111.561Z" fill="black"/>
<path d="M206.692 118.567L191.22 126.621C190.414 127.041 190.101 128.035 190.52 128.841C190.94 129.647 191.934 129.96 192.74 129.54L208.211 121.486C209.017 121.067 209.331 120.073 208.911 119.267C208.492 118.461 207.498 118.148 206.692 118.567Z" fill="black"/>
<path d="M210.339 125.573L194.867 133.627C194.061 134.047 193.748 135.041 194.167 135.847C194.587 136.653 195.581 136.966 196.387 136.546L211.858 128.492C212.664 128.073 212.978 127.079 212.558 126.273C212.139 125.467 211.145 125.154 210.339 125.573Z" fill="black"/>
<path d="M213.986 132.579L198.514 140.633C197.708 141.053 197.395 142.047 197.815 142.853C198.234 143.659 199.228 143.972 200.034 143.552L215.506 135.498C216.312 135.079 216.625 134.085 216.205 133.279C215.786 132.473 214.792 132.16 213.986 132.579Z" fill="black"/>
<path d="M174.197 165.906L219.153 142.504C219.959 142.085 220.272 141.091 219.852 140.285C219.433 139.479 218.439 139.166 217.633 139.585L172.678 162.987C171.872 163.407 171.559 164.401 171.978 165.207C172.398 166.013 173.391 166.326 174.197 165.906Z" fill="black"/>
<path d="M153.74 143.535C153.356 143.735 153.061 144.087 152.93 144.5C152.8 144.913 152.84 145.371 153.04 145.754C153.241 146.14 153.592 146.434 154.005 146.564C154.418 146.695 154.876 146.654 155.259 146.454C155.643 146.254 155.939 145.904 156.068 145.489C156.199 145.077 156.159 144.619 155.959 144.235C155.759 143.851 155.407 143.556 154.994 143.426C154.581 143.295 154.124 143.335 153.74 143.535Z" fill="black"/>
</g>
<g clip-path="url(#clip1)">
<path d="M381.657 63.2509L375.059 36.8893C374.265 33.7063 370.293 32.7707 368.109 35.1102C363.847 39.6811 355.992 41.6471 352.637 42.4865C349.283 43.3259 341.429 45.2902 335.516 43.2664C332.487 42.2299 329.426 44.9306 330.223 48.1075L336.819 74.4692C339.927 86.8854 363.038 89.8692 364.022 89.9899C364.357 90.031 364.695 89.9462 364.97 89.752C365.779 89.1827 384.763 75.6654 381.657 63.2509ZM341.628 58.6444C344.732 56.2643 347.09 56.6129 349.489 59.5789C348.534 60.3181 344.062 61.6642 341.628 58.6444ZM355.242 74.0767C355.234 73.0317 355.43 71.9713 355.971 71.0724V71.0708C356.352 70.447 356.88 69.9265 357.509 69.555H357.511C358.049 69.2406 358.631 69.0065 359.237 68.8601C361.801 68.2247 363.859 69.03 365.219 71.5788C361.408 70.673 358.18 71.4786 355.242 74.0767ZM363.718 55.9103C364.376 52.1007 366.314 50.8716 369.978 51.5399C369.315 55.4424 367.313 56.5671 363.718 55.9103Z" fill="#E56161"/>
<path d="M369.981 51.5399C369.949 51.7251 369.91 51.9205 369.861 52.1227C369.908 51.9171 369.948 51.72 369.978 51.5399H369.981Z" fill="#B2EBF2"/>
<path d="M378.774 51.7336C375.784 59.1498 370.872 65.6351 364.543 70.5219C364.798 70.8539 365.024 71.2075 365.219 71.5786C364.659 71.4452 364.092 71.3482 363.521 71.2882C356.574 76.3543 348.313 79.306 339.729 79.7884C346.839 87.7756 363.198 89.8885 364.022 89.9896C364.357 90.0308 364.695 89.946 364.97 89.7518C365.779 89.1825 384.763 75.6652 381.657 63.2507L378.774 51.7336Z" fill="#D65858"/>
<path d="M368.804 73.487C367.446 68.0835 363.848 64.9158 358.581 66.2212C358.579 66.2225 358.577 66.2231 358.575 66.2229C353.625 67.4752 351.533 71.6722 352.979 77.4479C353.004 77.5433 353.038 77.636 353.081 77.7249C353.081 77.7253 353.081 77.7257 353.082 77.7261C353.082 77.7264 353.082 77.7266 353.083 77.7266C353.182 77.9254 353.329 78.0968 353.511 78.2257C353.692 78.3545 353.902 78.4369 354.123 78.4656C354.343 78.4943 354.568 78.4684 354.776 78.3902C354.984 78.312 355.17 78.1839 355.317 78.0171C355.317 78.0167 355.317 78.0162 355.318 78.0159C355.318 78.0156 355.318 78.0154 355.319 78.0154C355.647 77.6525 357.524 74.9008 360.561 74.148C363.635 73.38 366.824 75.0061 366.853 75.0214C367.086 75.143 367.348 75.1948 367.609 75.1707C367.87 75.1465 368.119 75.0474 368.325 74.8853C368.531 74.7232 368.686 74.5049 368.771 74.2569C368.856 74.0088 368.867 73.7415 368.804 73.487ZM355.242 74.0766C355.228 72.1596 355.881 70.5389 357.509 69.555C357.511 69.5567 357.511 69.555 357.511 69.555C358.049 69.2406 358.631 69.0065 359.237 68.86C361.801 68.2247 363.859 69.03 365.219 71.5788C361.408 70.6729 358.18 71.4785 355.242 74.0766Z" fill="#BF4B4B"/>
<path d="M355.346 72.7904C355.372 72.6544 355.399 72.5219 355.433 72.3893C355.399 72.5219 355.37 72.6561 355.346 72.7904Z" fill="#BF4B4B"/>
<path d="M355.433 72.3876C355.482 72.1898 355.543 71.9951 355.616 71.8048C355.544 71.9954 355.483 72.19 355.433 72.3876Z" fill="#BF4B4B"/>
<path d="M355.693 71.6145C355.773 71.4274 355.866 71.2463 355.971 71.0724C355.867 71.2469 355.774 71.4279 355.693 71.6145Z" fill="#BF4B4B"/>
<path d="M357.509 69.555C356.88 69.9265 356.352 70.447 355.971 71.0707C356.35 70.4459 356.879 69.925 357.509 69.555Z" fill="#BF4B4B"/>
<path d="M357.511 69.555C357.801 69.3811 358.107 69.2338 358.423 69.1149C358.107 69.2355 357.802 69.3828 357.511 69.555Z" fill="#BF4B4B"/>
<path d="M352.479 59.1099C352.376 58.9349 349.922 54.8432 346.124 54.3895C343.553 54.0818 340.872 55.5479 339.013 57.3071C339.008 57.3122 338.878 57.4388 338.874 57.4447C338.869 57.4507 338.851 57.468 338.845 57.4736C338.842 57.4754 338.839 57.4777 338.836 57.4804V57.4821C338.629 57.6957 338.497 57.9716 338.462 58.2672C338.427 58.5629 338.49 58.862 338.641 59.1184C340.036 61.4902 342.774 63.8796 345.701 63.8796C349.2 63.8796 352.152 60.8822 352.284 60.7463C352.491 60.5327 352.623 60.2568 352.658 59.9611C352.694 59.6655 352.631 59.3664 352.479 59.1099ZM341.628 58.6444C344.732 56.2643 347.09 56.6129 349.489 59.5789C348.534 60.3181 344.062 61.6642 341.628 58.6444Z" fill="#BF4B4B"/>
<path d="M371.895 49.2188C371.704 49.1559 367.2 47.6793 364.128 49.8237C361.055 51.9681 360.886 56.7038 360.88 56.9043C360.872 57.1956 360.958 57.4819 361.124 57.7208C361.291 57.9598 361.53 58.1388 361.807 58.2314C364.108 59.0102 367.438 59.115 369.572 57.6265C372.646 55.4838 372.814 50.7481 372.819 50.5459C372.827 50.2549 372.742 49.9691 372.575 49.7303C372.409 49.4914 372.17 49.3122 371.895 49.2188ZM363.718 55.9103C364.376 52.1006 366.314 50.8716 369.978 51.5399C369.324 55.3922 367.38 56.5793 363.718 55.9103Z" fill="#BF4B4B"/>
<path d="M371.895 49.2188C371.704 49.1559 367.2 47.6793 364.128 49.8237C361.055 51.9681 360.886 56.7038 360.88 56.9043C360.872 57.1956 360.958 57.4819 361.124 57.7208C361.291 57.9598 361.53 58.1388 361.807 58.2314C364.108 59.0102 367.438 59.115 369.572 57.6265C372.646 55.4838 372.814 50.7481 372.819 50.5459C372.827 50.2549 372.742 49.9691 372.575 49.7303C372.409 49.4914 372.17 49.3122 371.895 49.2188ZM363.718 55.9103C364.376 52.1006 366.314 50.8716 369.978 51.5399C369.324 55.3922 367.38 56.5793 363.718 55.9103Z" fill="#BF4B4B"/>
<path d="M352.479 59.1099C352.376 58.9349 349.922 54.8431 346.124 54.3895C343.607 54.0882 341.156 55.444 339.246 57.0929C339.21 57.1255 338.903 57.4059 338.874 57.4447C338.517 57.7124 338.266 58.4827 338.641 59.1184C340.036 61.4901 342.774 63.8796 345.701 63.8796C349.2 63.8796 352.152 60.8822 352.284 60.7462C352.491 60.5326 352.623 60.2567 352.658 59.9611C352.694 59.6654 352.631 59.3663 352.479 59.1099ZM341.628 58.6443C344.732 56.2642 347.09 56.6129 349.489 59.5789C348.534 60.318 344.062 61.6641 341.628 58.6443Z" fill="#BF4B4B"/>
<path d="M356.224 61.827L353.505 52.3113C353.456 52.1397 353.442 51.9601 353.462 51.7827C353.482 51.6053 353.537 51.4337 353.624 51.2776C353.711 51.1216 353.827 50.9841 353.967 50.873C354.107 50.762 354.267 50.6796 354.439 50.6305C354.61 50.5814 354.79 50.5666 354.967 50.5869C355.145 50.6072 355.316 50.6623 355.472 50.749C355.628 50.8356 355.766 50.9522 355.877 51.092C355.988 51.2317 356.07 51.392 356.119 51.5637L358.838 61.0793C358.937 61.426 358.895 61.7978 358.72 62.113C358.545 62.4283 358.252 62.661 357.905 62.7602C357.558 62.8593 357.187 62.8167 356.871 62.6417C356.556 62.4667 356.323 62.1736 356.224 61.827Z" fill="#BF4B4B"/>
<path d="M352.979 77.4473C351.407 71.1638 354.185 67.1636 358.581 66.2216C363.537 64.9946 367.358 67.7118 368.804 73.4873C368.867 73.7417 368.855 74.009 368.77 74.2569C368.685 74.5048 368.53 74.7229 368.324 74.8849C368.118 75.0469 367.869 75.1459 367.608 75.1699C367.347 75.194 367.085 75.1422 366.852 75.0207C366.824 75.0059 363.636 73.3796 360.561 74.1486C357.487 74.9177 355.441 77.8543 355.42 77.8845C355.272 78.1 355.065 78.2682 354.823 78.369C354.582 78.4697 354.316 78.4988 354.059 78.4526C353.801 78.4065 353.562 78.2872 353.371 78.1089C353.179 77.9306 353.043 77.7009 352.979 77.4473ZM359.238 68.8598C356.135 69.6469 355.233 71.8095 355.243 74.0764C358.178 71.481 361.407 70.6727 365.218 71.5803C364.16 69.5753 362.346 68.0924 359.238 68.8598Z" fill="#BF4B4B"/>
<path d="M342.286 11.23C339.858 11.23 337.554 14.2408 323.712 11.1756C320.336 10.4279 312.431 8.67774 308.045 4.22578C305.801 1.94883 301.856 2.98807 301.146 6.19178L295.272 32.7251C292.504 45.2194 311.85 58.2151 312.674 58.7622C312.955 58.948 313.295 59.0231 313.629 58.9729C314.607 58.8251 337.63 55.2125 340.397 42.7165L346.272 16.1849C346.405 15.5887 346.402 14.9703 346.263 14.3755C346.124 13.7807 345.854 13.2248 345.471 12.7489C345.088 12.273 344.603 11.8894 344.052 11.6264C343.5 11.3635 342.897 11.228 342.286 11.23ZM303.758 19.8042C303.737 19.5068 303.815 19.2109 303.979 18.9619C304.143 18.7129 304.384 18.5247 304.665 18.4262C304.856 18.3599 309.369 16.8136 312.567 18.9155C315.765 21.0175 316.128 25.7753 316.144 25.9775C316.164 26.2746 316.086 26.5702 315.922 26.8189C315.758 27.0676 315.517 27.2555 315.236 27.3539C312.948 28.1736 309.554 28.3224 307.337 26.8662C304.14 24.7625 303.773 20.0047 303.758 19.8042ZM324.176 40.5177C323.993 41.399 323.636 42.2351 323.127 42.9775C322.619 43.7199 321.967 44.3539 321.212 44.8426C320.456 45.3313 319.61 45.665 318.724 45.8244C317.839 45.9837 316.93 45.9656 316.051 45.7709C315.172 45.5762 314.341 45.209 313.605 44.6904C312.87 44.1719 312.244 43.5124 311.765 42.7502C311.287 41.988 310.964 41.1383 310.816 40.2504C310.669 39.3626 310.699 38.4542 310.905 37.5781L311.491 34.9239L324.764 37.8635L324.176 40.5177ZM331.9 30.9426C328.828 31.3946 325.843 28.3989 325.843 28.3989C325.843 28.3989 327.839 24.6708 330.911 24.2188C333.984 23.7668 336.968 26.7625 336.968 26.7625C336.968 26.7625 334.973 30.4906 331.9 30.9426Z" fill="#B2EBF2"/>
<path d="M321.967 44.2061C321.013 45.0263 319.85 45.5652 318.608 45.7626C317.365 45.9599 316.093 45.8079 314.932 45.3235C308.596 45.7221 302.266 44.4657 296.563 41.6775C300.766 50.7671 312.048 58.3468 312.673 58.7619C312.955 58.9477 313.295 59.0227 313.628 58.9726C314.607 58.8248 337.63 55.2122 340.396 42.7162L343.529 28.5702C338.548 36.294 330.856 41.8724 321.967 44.2061Z" fill="#80DEEA"/>
<path d="M359.695 35.4811L356.129 33.6959L352.563 35.4811C352.338 35.594 352.085 35.6419 351.834 35.6194C351.583 35.597 351.343 35.505 351.141 35.3539C350.939 35.2027 350.783 34.9983 350.69 34.7636C350.598 34.5288 350.572 34.273 350.617 34.0247L351.283 30.3299L348.45 27.7007C348.262 27.5255 348.128 27.3006 348.062 27.052C347.996 26.8035 348.003 26.5414 348.08 26.2962C348.157 26.051 348.302 25.8327 348.499 25.6666C348.695 25.5006 348.934 25.3935 349.189 25.3578L353.159 24.8085L354.922 21.4058C355.037 21.1849 355.211 20.9998 355.423 20.8706C355.636 20.7414 355.88 20.673 356.129 20.673C356.378 20.673 356.623 20.7414 356.835 20.8706C357.048 20.9998 357.222 21.1849 357.336 21.4058L359.1 24.8085L363.07 25.3578C363.325 25.3935 363.564 25.5006 363.76 25.6666C363.957 25.8327 364.102 26.051 364.179 26.2962C364.256 26.5414 364.262 26.8035 364.197 27.052C364.131 27.3006 363.997 27.5255 363.809 27.7007L360.976 30.3299L361.642 34.0247C361.686 34.273 361.661 34.5288 361.569 34.7636C361.476 34.9983 361.32 35.2027 361.118 35.3539C360.916 35.505 360.676 35.597 360.425 35.6194C360.174 35.6419 359.921 35.594 359.695 35.4811Z" fill="#FFD740"/>
<path d="M371.001 24.334L367.531 19.4095L361.473 19.5186C361.219 19.5228 360.969 19.4556 360.751 19.3248C360.533 19.1939 360.356 19.0046 360.24 18.7782C360.124 18.5519 360.074 18.2976 360.095 18.0443C360.117 17.7909 360.209 17.5486 360.361 17.3448L364.016 12.4618L362.099 6.72962C362.019 6.49008 362.008 6.2331 362.066 5.98742C362.124 5.74174 362.249 5.51706 362.427 5.33851C362.606 5.15996 362.831 5.03459 363.076 4.97643C363.322 4.91826 363.579 4.9296 363.818 5.00916L369.551 6.92639L374.434 3.27188C374.638 3.11981 374.88 3.0279 375.134 3.00657C375.387 2.98523 375.642 3.03533 375.868 3.15118C376.094 3.26703 376.284 3.44399 376.414 3.66199C376.545 3.87999 376.612 4.1303 376.608 4.38453L376.499 10.4419L381.424 13.9115C381.63 14.0577 381.792 14.2586 381.891 14.4918C381.99 14.7249 382.022 14.981 381.983 15.2312C381.944 15.4814 381.836 15.7158 381.671 15.908C381.506 16.1002 381.291 16.2426 381.05 16.3192L375.241 18.1516L373.408 23.9602C373.332 24.2018 373.19 24.4173 372.998 24.5824C372.805 24.7474 372.571 24.8555 372.32 24.8944C372.07 24.9333 371.814 24.9014 371.581 24.8024C371.347 24.7034 371.147 24.5412 371.001 24.334Z" fill="#FFD740"/>
<path d="M309.953 79.1251C309.593 79.1251 309.247 79.2683 308.992 79.5232C308.737 79.7781 308.594 80.1239 308.594 80.4844V88.6407C308.594 89.0012 308.737 89.347 308.992 89.6019C309.247 89.8568 309.593 90.0001 309.953 90.0001C310.314 90.0001 310.659 89.8568 310.914 89.6019C311.169 89.347 311.312 89.0012 311.312 88.6407V80.4844C311.312 80.1239 311.169 79.7781 310.914 79.5232C310.659 79.2683 310.314 79.1251 309.953 79.1251Z" fill="#FFD740"/>
<path d="M309.953 60.0938C309.593 60.0938 309.247 60.237 308.992 60.492C308.737 60.7469 308.594 61.0927 308.594 61.4532V69.6094C308.594 69.97 308.737 70.3157 308.992 70.5707C309.247 70.8256 309.593 70.9688 309.953 70.9688C310.314 70.9688 310.659 70.8256 310.914 70.5707C311.169 70.3157 311.312 69.97 311.312 69.6094V61.4532C311.312 61.0927 311.169 60.7469 310.914 60.492C310.659 60.237 310.314 60.0938 309.953 60.0938Z" fill="#FFD740"/>
<path d="M309.953 76.4063C310.704 76.4063 311.312 75.7977 311.312 75.0469C311.312 74.2962 310.704 73.6876 309.953 73.6876C309.202 73.6876 308.594 74.2962 308.594 75.0469C308.594 75.7977 309.202 76.4063 309.953 76.4063Z" fill="#FFD740"/>
<path d="M323.547 73.6876H315.391C315.03 73.6876 314.684 73.8308 314.429 74.0857C314.174 74.3406 314.031 74.6864 314.031 75.0469C314.031 75.4075 314.174 75.7532 314.429 76.0082C314.684 76.2631 315.03 76.4063 315.391 76.4063H323.547C323.907 76.4063 324.253 76.2631 324.508 76.0082C324.763 75.7532 324.906 75.4075 324.906 75.0469C324.906 74.6864 324.763 74.3406 324.508 74.0857C324.253 73.8308 323.907 73.6876 323.547 73.6876Z" fill="#FFD740"/>
<path d="M316.352 70.5707L319.071 67.8519C319.197 67.7257 319.297 67.5758 319.365 67.4109C319.434 67.246 319.469 67.0692 319.469 66.8907C319.469 66.7121 319.434 66.5354 319.365 66.3704C319.297 66.2055 319.197 66.0556 319.071 65.9294C318.944 65.8032 318.795 65.703 318.63 65.6347C318.465 65.5664 318.288 65.5312 318.109 65.5312C317.931 65.5313 317.754 65.5664 317.589 65.6347C317.424 65.703 317.274 65.8032 317.148 65.9294L314.429 68.6482C314.174 68.9031 314.031 69.2489 314.031 69.6094C314.031 69.9699 314.174 70.3157 314.429 70.5707C314.684 70.8256 315.03 70.9688 315.391 70.9688C315.751 70.9688 316.097 70.8256 316.352 70.5707Z" fill="#FFD740"/>
<path d="M304.176 70.9688C304.444 70.9681 304.707 70.8879 304.93 70.7384C305.153 70.5889 305.327 70.3768 305.429 70.1287C305.532 69.8806 305.559 69.6076 305.507 69.3442C305.455 69.0807 305.326 68.8386 305.137 68.6482L302.418 65.9294C302.292 65.8032 302.142 65.703 301.977 65.6347C301.812 65.5664 301.636 65.5312 301.457 65.5312C301.279 65.5313 301.102 65.5664 300.937 65.6347C300.772 65.703 300.622 65.8032 300.496 65.9294C300.37 66.0556 300.269 66.2055 300.201 66.3704C300.133 66.5354 300.098 66.7121 300.098 66.8907C300.098 67.0692 300.133 67.246 300.201 67.4109C300.269 67.5758 300.37 67.7257 300.496 67.8519C303.066 70.2551 303.218 70.9688 304.176 70.9688Z" fill="#FFD740"/>
<path d="M316.352 79.5232C316.097 79.2682 315.751 79.125 315.391 79.125C315.03 79.125 314.684 79.2682 314.429 79.5232C314.174 79.7781 314.031 80.1239 314.031 80.4844C314.031 80.8449 314.174 81.1907 314.429 81.4457L317.148 84.1644C317.403 84.4193 317.749 84.5626 318.109 84.5626C318.47 84.5626 318.816 84.4193 319.071 84.1644C319.326 83.9095 319.469 83.5637 319.469 83.2032C319.469 82.8426 319.326 82.4968 319.071 82.2419L316.352 79.5232Z" fill="#FFD740"/>
<path d="M303.215 79.5232L300.496 82.2419C300.241 82.4968 300.098 82.8426 300.098 83.2032C300.098 83.5637 300.241 83.9095 300.496 84.1644C300.751 84.4193 301.097 84.5626 301.457 84.5626C301.818 84.5626 302.163 84.4193 302.418 84.1644L305.137 81.4457C305.263 81.3194 305.363 81.1696 305.432 81.0046C305.5 80.8397 305.535 80.6629 305.535 80.4844C305.535 80.3059 305.5 80.1291 305.432 79.9642C305.363 79.7993 305.263 79.6494 305.137 79.5232C305.011 79.3969 304.861 79.2968 304.696 79.2285C304.531 79.1602 304.354 79.125 304.176 79.125C303.997 79.125 303.821 79.1602 303.656 79.2285C303.491 79.2968 303.341 79.3969 303.215 79.5232Z" fill="#FFD740"/>
<path d="M304.516 73.6876H296.359C295.999 73.6876 295.653 73.8308 295.398 74.0857C295.143 74.3406 295 74.6864 295 75.0469C295 75.4075 295.143 75.7532 295.398 76.0082C295.653 76.2631 295.999 76.4063 296.359 76.4063H304.516C304.876 76.4063 305.222 76.2631 305.477 76.0082C305.732 75.7532 305.875 75.4075 305.875 75.0469C305.875 74.6864 305.732 74.3406 305.477 74.0857C305.222 73.8308 304.876 73.6876 304.516 73.6876Z" fill="#FFD740"/>
<path d="M319.095 31.7483C318.923 31.6992 318.763 31.6169 318.623 31.5059C318.483 31.3948 318.367 31.2574 318.28 31.1013C318.193 30.9452 318.138 30.7736 318.118 30.5963C318.098 30.4189 318.112 30.2392 318.161 30.0676L320.88 20.552C320.929 20.3803 321.012 20.22 321.123 20.0802C321.234 19.9404 321.371 19.8239 321.527 19.7372C321.683 19.6506 321.855 19.5955 322.032 19.5752C322.21 19.5549 322.389 19.5697 322.561 19.6188C322.733 19.6678 322.893 19.7503 323.033 19.8613C323.172 19.9723 323.289 20.1098 323.376 20.2659C323.462 20.422 323.517 20.5936 323.538 20.771C323.558 20.9483 323.543 21.128 323.494 21.2996L320.775 30.8153C320.676 31.1618 320.444 31.4548 320.128 31.6297C319.813 31.8047 319.441 31.8474 319.095 31.7483Z" fill="#4DD0E1"/>
<path d="M315.777 47.0108C313.666 46.5409 311.828 45.2529 310.666 43.4295C309.503 41.606 309.112 39.396 309.577 37.2842L310.165 34.6296C310.242 34.2777 310.457 33.9711 310.761 33.7773C311.065 33.5835 311.434 33.5184 311.786 33.5964C325.571 36.7941 325.367 36.2799 325.91 37.1317C326.405 37.9083 325.92 38.4687 325.503 40.8109C325.033 42.9216 323.745 44.7597 321.922 45.922C320.098 47.0843 317.888 47.4759 315.777 47.0108ZM316.364 44.3565C317.772 44.6662 319.246 44.405 320.461 43.6302C321.677 42.8553 322.535 41.6301 322.849 40.2231L323.143 38.8957L312.525 36.5445L312.231 37.8719C311.921 39.2798 312.182 40.7531 312.957 41.9688C313.732 43.1845 314.957 44.0431 316.364 44.3565Z" fill="#4DD0E1"/>
<path d="M324.88 29.3582C324.675 29.1518 324.541 28.8848 324.498 28.5965C324.456 28.3083 324.507 28.014 324.645 27.7571C324.739 27.5803 327.007 23.4185 330.713 22.8731C334.42 22.3276 337.789 25.6598 337.931 25.8025C338.137 26.0089 338.271 26.2759 338.313 26.5642C338.355 26.8524 338.304 27.1467 338.167 27.4035C338.072 27.5804 335.805 31.7423 332.098 32.2876C329.507 32.6684 326.586 31.0711 324.88 29.3582ZM327.627 28.1364C330.662 30.4147 332.931 30.0837 335.184 27.0246C332.15 24.7463 329.88 25.0761 327.627 28.1364Z" fill="#4DD0E1"/>
<path d="M307.336 26.865C304.14 24.7622 303.773 20.0046 303.759 19.8032C303.738 19.5061 303.816 19.2104 303.98 18.9615C304.143 18.7127 304.384 18.5245 304.665 18.4258C304.856 18.3591 309.37 16.8126 312.567 18.9154C315.763 21.0182 316.13 25.7756 316.144 25.9772C316.164 26.2741 316.087 26.5696 315.923 26.8183C315.759 27.0669 315.519 27.255 315.238 27.3535C312.886 28.1778 309.541 28.3156 307.336 26.865ZM306.643 20.7138C307.487 24.5643 309.544 25.7945 313.259 25.0621C312.429 21.2918 310.435 19.9805 306.643 20.7138H306.643Z" fill="#4DD0E1"/>
<path d="M305.195 12.0895C306.697 12.0895 307.914 10.8723 307.914 9.37073C307.914 7.8692 306.697 6.65198 305.195 6.65198C303.694 6.65198 302.477 7.8692 302.477 9.37073C302.477 10.8723 303.694 12.0895 305.195 12.0895Z" fill="#E0F7FA"/>
<path d="M310.633 14.8082C311.384 14.8082 311.992 14.1996 311.992 13.4488C311.992 12.698 311.384 12.0894 310.633 12.0894C309.882 12.0894 309.273 12.698 309.273 13.4488C309.273 14.1996 309.882 14.8082 310.633 14.8082Z" fill="#E0F7FA"/>
<path d="M371.125 43.7812C372.627 43.7812 373.844 42.564 373.844 41.0625C373.844 39.561 372.627 38.3438 371.125 38.3438C369.623 38.3438 368.406 39.561 368.406 41.0625C368.406 42.564 369.623 43.7812 371.125 43.7812Z" fill="#F29C9C"/>
<path d="M365.688 46.5C366.438 46.5 367.047 45.8914 367.047 45.1406C367.047 44.3899 366.438 43.7812 365.688 43.7812C364.937 43.7812 364.328 44.3899 364.328 45.1406C364.328 45.8914 364.937 46.5 365.688 46.5Z" fill="#F29C9C"/>
<path d="M369.086 14.5547C370.587 14.5547 371.805 13.3375 371.805 11.8359C371.805 10.3344 370.587 9.11719 369.086 9.11719C367.584 9.11719 366.367 10.3344 366.367 11.8359C366.367 13.3375 367.584 14.5547 369.086 14.5547Z" fill="#FFE7A4"/>
<path d="M381.424 13.9109L377.855 11.3961C373.753 14.9377 367.727 16.8088 361.295 16.0964L360.361 17.3449C360.208 17.5485 360.116 17.7909 360.094 18.0445C360.073 18.298 360.123 18.5525 360.239 18.779C360.355 19.0054 360.532 19.1948 360.75 19.3256C360.968 19.4564 361.219 19.5233 361.473 19.5187L367.531 19.4096L371.001 24.3341C371.147 24.5409 371.348 24.7027 371.581 24.8015C371.814 24.9003 372.07 24.932 372.32 24.8932C372.57 24.8543 372.805 24.7464 372.997 24.5816C373.189 24.4168 373.332 24.2016 373.408 23.9603L375.241 18.1516L381.05 16.3185C381.291 16.242 381.506 16.0996 381.671 15.9074C381.836 15.7151 381.944 15.4807 381.983 15.2305C382.022 14.9803 381.99 14.7243 381.891 14.4911C381.792 14.258 381.63 14.057 381.424 13.9109Z" fill="#FFC400"/>
<path d="M363.071 25.3578L360.005 24.933C359.527 27.0655 358.378 28.9883 356.725 30.418C355.072 31.8477 353.004 32.7085 350.825 32.8738L350.618 34.0241C350.573 34.2724 350.599 34.528 350.691 34.7626C350.784 34.9972 350.94 35.2014 351.142 35.3525C351.344 35.5035 351.584 35.5955 351.835 35.6181C352.086 35.6408 352.338 35.5931 352.564 35.4805L356.13 33.6953C359.738 35.451 359.743 35.625 360.304 35.625C360.503 35.625 360.699 35.5813 360.879 35.4971C361.06 35.4129 361.219 35.2901 361.347 35.1375C361.474 34.9849 361.567 34.8061 361.618 34.6139C361.669 34.4216 361.677 34.2204 361.642 34.0247L360.976 30.3299L363.808 27.7007C363.997 27.5255 364.131 27.3006 364.197 27.0521C364.262 26.8036 364.256 26.5415 364.179 26.2963C364.102 26.0512 363.957 25.8329 363.761 25.6668C363.564 25.5007 363.325 25.3935 363.071 25.3578Z" fill="#FFC400"/>
</g>
<g clip-path="url(#clip2)">
<path d="M620.826 13.7003L628.006 7.08799C631.245 4.8616 635.676 5.68291 637.903 8.92221C638.171 9.31331 638.396 9.72178 638.577 10.1416C639.077 11.3021 638.667 12.6557 637.625 13.3716L623.147 23.3223L620.826 13.7003Z" fill="#DEDEDC"/>
<path d="M628.006 7.08795C624.767 9.31426 623.945 13.7451 626.172 16.9845L657.454 62.5007C659.68 65.74 658.859 70.1708 655.62 72.3972L618.191 89.4854L586.909 43.9693C584.682 40.73 585.503 36.2991 588.743 34.0727L628.006 7.08795Z" fill="#ECECEC"/>
<path d="M655.62 72.3973L654.977 71.4622L653.097 72.442L653.17 73.7977L654.908 72.859L655.439 72.5213L655.62 72.3973Z" fill="#ECECEC"/>
<path d="M613.62 92.3919C612.614 90.8406 613.039 88.7678 614.562 87.7205L640.928 69.5999C642.5 68.5197 644.63 68.9541 645.702 70.5314C645.709 70.5421 645.716 70.5525 645.723 70.5631C647.95 73.8024 652.38 74.6237 655.62 72.3973L623.729 94.3151C620.463 96.5596 615.883 95.7733 613.678 92.4807C613.659 92.4512 613.639 92.4215 613.62 92.3919Z" fill="#DEDEDC"/>
<path d="M590.928 49.8167C594.966 49.1414 599.326 49.1954 603.722 50.0101C612.625 51.6601 620.39 56.293 624.494 62.4034L626.502 65.3937L623.556 67.4656C623.494 67.5089 623.369 67.5954 623.368 67.5957C618.872 70.686 612.794 72.3001 606.336 72.2361L590.928 49.8167L590.928 49.8167Z" fill="#DEDEDC"/>
<path d="M584.883 55.4828C589.77 53.1747 596.255 52.3689 603.051 53.6284C611.287 55.1548 618.009 59.3493 621.439 64.4552C616.408 67.9929 608.629 69.4998 600.393 67.9733C593.597 66.7137 587.831 63.6372 584.096 59.7312C582.847 58.425 583.249 56.2548 584.883 55.4828Z" fill="#FCC49D"/>
<path d="M619.675 28.392C619.172 28.7374 618.485 28.61 618.14 28.1075C617.73 27.5109 616.911 27.3591 616.314 27.7692C615.718 28.1792 615.566 28.9981 615.976 29.5947C616.321 30.0971 616.194 30.7845 615.691 31.1298C615.189 31.4752 614.502 31.3478 614.156 30.8453C613.057 29.2455 613.464 27.0493 615.064 25.9497C616.663 24.8502 618.86 25.2573 619.959 26.8571C620.305 27.3593 620.177 28.0467 619.675 28.392Z" fill="black"/>
<path d="M600.337 40.3434C599.927 39.7468 599.108 39.595 598.511 40.0049C597.915 40.415 597.763 41.2339 598.173 41.8305C598.518 42.3328 598.391 43.0203 597.888 43.3656C597.386 43.7109 596.699 43.5835 596.353 43.0811C595.254 41.4813 595.661 39.285 597.261 38.1855C598.86 37.086 601.056 37.4931 602.156 39.0929C602.501 39.5953 602.374 40.2827 601.871 40.628C601.369 40.9734 600.682 40.8457 600.337 40.3434Z" fill="black"/>
<path d="M607.368 39.818C606.778 39.6661 606.423 39.0643 606.575 38.4738C606.726 37.8832 607.328 37.5278 607.919 37.6797C609.271 38.0275 610.613 37.1037 610.772 35.7186C610.842 35.1128 611.39 34.6784 611.995 34.7481C612.601 34.8179 613.036 35.3655 612.966 35.9711C612.653 38.6883 610.015 40.4988 607.368 39.818Z" fill="black"/>
<path d="M635.521 64.2803C635.018 64.6256 634.331 64.4983 633.986 63.9958C633.64 63.4933 633.768 62.806 634.27 62.4607L640.26 58.3438C640.763 57.9985 641.45 58.1257 641.795 58.6283C642.141 59.1307 642.013 59.8181 641.511 60.1634L635.521 64.2803Z" fill="black"/>
<path d="M584.413 54.4852C586.531 53.4849 588.865 52.7744 591.336 52.3594L586 44.5954C583.432 40.8597 584.383 35.7316 588.118 33.1642L627.38 6.18071C631.633 3.25748 637.533 4.93936 639.589 9.70697C640.293 11.341 639.73 13.2658 638.249 14.2836L629.694 20.1636L647.556 46.1539C647.901 46.6563 647.774 47.3436 647.272 47.689C646.769 48.0343 646.082 47.9069 645.737 47.4045C623.076 14.4895 624.943 17.1442 624.703 16.6678C623.822 14.9306 623.612 12.9861 624.015 11.1724L589.368 34.984C586.636 36.8619 585.941 40.6127 587.819 43.345L593.8 52.0474C597.183 51.7557 600.607 52.0042 603.857 52.6624L625.929 37.4925C626.432 37.1471 627.119 37.2745 627.465 37.777C627.81 38.2794 627.683 38.9668 627.18 39.3121L606.73 53.3671C608.563 53.8968 610.32 54.5604 611.97 55.3439L629.784 43.1006C630.286 42.7552 630.974 42.8826 631.319 43.3851C631.664 43.8875 631.537 44.5749 631.034 44.9202L614.181 56.5034C615.629 57.337 616.93 58.2288 618.217 59.3074L633.638 48.7085C634.141 48.3632 634.828 48.4906 635.173 48.993C635.519 49.4955 635.391 50.1828 634.889 50.5282L619.885 60.8399C620.704 61.6691 621.44 62.5425 622.085 63.4527L627.897 64.5298C628.867 64.7096 629.124 65.9731 628.321 66.5251C628.088 66.6851 627.794 66.7563 627.495 66.7008L621.685 65.624C617.155 68.6408 611.324 69.7874 605.903 69.6578L616.487 85.0573L640.301 68.6903C642.39 67.2545 645.206 67.841 646.61 69.9062L646.613 69.911C648.644 72.771 652.338 73.3121 654.993 71.4875C657.725 69.6096 658.42 65.859 656.542 63.1265L648.238 51.0438C647.893 50.5413 648.02 49.854 648.523 49.5087C649.025 49.1633 649.712 49.2907 650.058 49.7932L658.362 61.8759C660.929 65.6112 659.979 70.7384 656.245 73.3061L656.243 73.3069L624.354 95.2238C622.523 96.4825 620.211 96.9626 618.011 96.5412C615.835 96.1243 613.971 94.9001 612.761 93.0939C611.284 90.8877 611.952 88.174 613.937 86.81L614.668 86.3077L603.1 69.4769C599.871 69.1434 596.702 68.3816 593.763 67.2445C593.194 67.0245 592.912 66.3852 593.132 65.8168C593.352 65.248 593.991 64.9655 594.559 65.1854C602.025 68.0731 611.353 68.4196 618.334 65.0026L593.729 60.4422C593.129 60.3311 592.733 59.7551 592.844 59.1556C592.956 58.5561 593.532 58.1602 594.131 58.2714L618.74 62.8324C611.063 54.5609 595.572 51.656 585.356 56.4816C584.403 56.9313 584.164 58.2051 584.895 58.9686C586.491 60.6379 588.449 62.1246 590.714 63.3873C591.247 63.6841 591.438 64.3565 591.141 64.889C590.844 65.4215 590.172 65.6125 589.639 65.3158C587.181 63.9455 585.048 62.3236 583.299 60.4946C581.527 58.6411 582.095 55.5801 584.413 54.4852ZM636.999 12.464C637.613 12.0416 637.85 11.2499 637.562 10.5811C636.076 7.13431 631.816 5.86759 628.693 7.95793L627.33 9.21243C625.702 11.2609 625.587 14.1884 627.081 16.3614L628.443 18.344L636.999 12.464ZM614.546 91.79C614.554 91.8024 614.603 91.8776 614.595 91.8652C616.467 94.6609 620.359 95.2899 623.103 93.404L650.375 74.6607C648.158 74.3278 646.217 73.1798 644.787 71.1516C644.06 70.0815 642.62 69.7753 641.552 70.5094L615.187 88.6292C614.161 89.3349 613.873 90.7527 614.546 91.79Z" fill="black"/>
</g>
<g clip-path="url(#clip3)">
<path d="M507.633 232.383L423.947 179.069C422.098 177.891 421.555 175.438 422.732 173.589L449.389 131.746L539.77 189.325L513.113 231.168C511.936 233.017 509.482 233.561 507.633 232.383Z" fill="#DEDEDE"/>
<path d="M479.219 136.632L472.822 146.674L539.77 189.325L548.301 175.935L478.674 131.578L479.219 136.632Z" fill="#666666"/>
<path d="M502.949 165.867L489.559 157.337L508.131 150.345L521.521 158.875L502.949 165.867Z" fill="#DEDEDE"/>
<path d="M529.728 182.927L516.338 174.397L534.911 167.405L548.301 175.935L529.728 182.927Z" fill="#DEDEDE"/>
<path d="M481.352 133.284L478.956 134.186L479.219 136.632L472.822 146.674L476.169 148.806L494.742 141.814L481.352 133.284Z" fill="#DEDEDE"/>
<path d="M478.956 134.186L478.674 131.578L478.171 126.916L478 125.334L476.492 111.364L472.845 109.041L466.45 104.967L457.92 118.356L449.389 131.746L462.779 140.276L472.822 146.674L479.219 136.632L478.956 134.186Z" fill="#666666"/>
<path d="M459.742 126.576L463.089 128.709L460.957 132.056L457.609 129.924L459.742 126.576Z" fill="#DEDEDE"/>
<path d="M468.272 113.187L471.62 115.319L469.487 118.667L466.14 116.534L468.272 113.187Z" fill="#DEDEDE"/>
<path d="M469.784 132.974L473.132 135.107L470.999 138.454L467.652 136.321L469.784 132.974Z" fill="#DEDEDE"/>
<path d="M450.294 148.794L523.938 195.71L521.805 199.057L448.162 152.141L450.294 148.794Z" fill="#C7C7C7"/>
<path d="M515.408 209.1L441.764 162.183L439.631 165.531L461.39 179.392L454.992 189.435L458.339 191.567L464.737 181.525L488.169 196.453L481.772 206.495L485.119 208.628L491.517 198.585L513.275 212.447L515.408 209.1Z" fill="#C7C7C7"/>
<path d="M478.171 126.916L564.686 150.215L568.815 134.885L472.845 109.041L476.492 111.364L478.171 126.916Z" fill="#DEDEDE"/>
<path d="M522.529 138.862L507.199 134.734L522.825 122.5L538.154 126.628L522.529 138.862Z" fill="#666666"/>
<path d="M553.188 147.118L537.859 142.991L553.484 130.756L568.815 134.885L553.188 147.118Z" fill="#666666"/>
<path d="M478.171 126.916L491.868 130.605L507.495 118.371L492.165 114.243L478 125.334L478.171 126.916Z" fill="#666666"/>
<path d="M449.389 131.746L539.77 189.325L536.572 194.346L446.191 136.767L449.389 131.746Z" fill="#C7C7C7"/>
<path d="M506.369 136.565L506.684 136.65L507.147 136.776L532.053 143.48L537.338 144.903L545.158 147.01L564.171 152.132C565.23 152.417 566.318 151.789 566.603 150.731L566.603 150.73L570.732 135.4C570.741 135.364 570.73 135.329 570.738 135.291C570.776 135.109 570.788 134.921 570.774 134.735C570.769 134.676 570.774 134.617 570.764 134.559C570.763 134.536 570.761 134.513 570.758 134.49C570.718 134.295 570.647 134.107 570.549 133.933C570.524 133.887 570.487 133.849 570.458 133.805C570.361 133.656 570.245 133.521 570.112 133.403C570.06 133.358 570.013 133.319 569.956 133.278C569.768 133.137 569.555 133.032 569.328 132.967L513.204 117.853L508.01 116.455L499.093 114.054L473.655 107.204L467.516 103.293C466.592 102.704 465.365 102.976 464.776 103.9L421.059 172.523C419.292 175.296 420.108 178.976 422.881 180.743L506.567 234.057C509.34 235.824 513.021 235.008 514.787 232.235L549.974 177.002C549.995 176.97 549.995 176.932 550.014 176.9C550.106 176.735 550.175 176.557 550.217 176.373C550.233 176.32 550.246 176.266 550.256 176.212C550.268 176.194 550.272 176.165 550.275 176.142C550.294 175.941 550.281 175.739 550.239 175.542C550.23 175.496 550.209 175.455 550.198 175.41C550.148 175.233 550.074 175.065 549.979 174.908C549.944 174.853 549.912 174.799 549.871 174.748C549.734 174.557 549.563 174.392 549.367 174.262L480.545 130.417L480.455 129.588L506.369 136.565ZM564.473 135.776L552.749 144.945L546.063 143.144L542.212 142.102L553.937 132.931L557.148 133.801L564.473 135.776ZM480.9 125.594L492.625 116.423L503.164 119.261L491.44 128.43L484.947 126.685L480.9 125.594ZM549.135 131.642L537.41 140.813L526.871 137.974L538.597 128.802L539.89 129.155L549.135 131.642ZM522.087 136.686L511.55 133.849L523.274 124.68L533.811 127.517L522.087 136.686ZM506.753 132.565L496.214 129.726L507.939 120.556L518.481 123.389L506.753 132.565ZM479.588 121.572L478.628 112.654L487.815 115.128L479.588 121.572ZM557.534 146.24L565.346 140.123L563.285 147.791L557.534 146.24ZM467.058 107.707L474.623 112.526L476.197 127.13L476.701 131.783L476.937 133.999L476.978 134.381L477.169 136.135L472.204 143.928L452.13 131.139L467.058 107.707ZM511.44 230.102C510.851 231.026 509.624 231.298 508.7 230.71L425.014 177.396C424.09 176.807 423.818 175.58 424.406 174.656L449.997 134.486L537.031 189.933L511.44 230.102ZM539.163 186.585L534.142 183.387L543.428 179.89L539.163 186.585ZM529.958 180.721L520.752 174.856L534.682 169.612L543.887 175.477L529.958 180.721ZM516.568 172.191L507.363 166.326L521.292 161.082L530.497 166.947L516.568 172.191ZM503.178 163.66L493.973 157.796L507.902 152.552L517.108 158.416L503.178 163.66ZM489.788 155.13L480.583 149.266L494.512 144.021L503.718 149.886L489.788 155.13ZM476.399 146.6L475.562 146.067L480.893 137.698C481.136 137.318 481.241 136.867 481.193 136.419L481.094 135.503L490.328 141.356L476.399 146.6Z" fill="black"/>
<path d="M459.742 126.576L463.09 128.709L460.957 132.056L457.61 129.924L459.742 126.576Z" fill="black"/>
<path d="M468.272 113.187L471.62 115.319L469.487 118.667L466.14 116.534L468.272 113.187Z" fill="black"/>
<path d="M469.784 132.974L473.132 135.107L470.999 138.454L467.652 136.321L469.784 132.974Z" fill="black"/>
<path d="M450.294 148.794L523.938 195.71L521.805 199.057L448.162 152.141L450.294 148.794Z" fill="black"/>
<path d="M439.631 165.531L461.39 179.392L454.992 189.435L458.339 191.567L464.737 181.525L488.169 196.453L481.772 206.495L485.119 208.628L491.517 198.585L513.275 212.447L515.408 209.1L441.764 162.183L439.631 165.531Z" fill="black"/>
</g>
<g clip-path="url(#clip4)">
<path d="M91.9172 274.615L43.1498 306.284C42.0724 306.984 40.632 306.678 39.9324 305.601L24.0974 281.217L76.7661 247.013L92.6011 271.397C93.3007 272.474 92.9946 273.915 91.9172 274.615Z" fill="#DEDEDE"/>
<path d="M33.9519 266.497L37.7523 272.349L76.7662 247.013L71.699 239.211L31.1246 265.56L33.9519 266.497Z" fill="#666666"/>
<path d="M55.3085 260.948L47.5057 266.015L48.2906 254.412L56.0934 249.345L55.3085 260.948Z" fill="#DEDEDE"/>
<path d="M70.914 250.814L63.1112 255.881L63.8961 244.278L71.6989 239.211L70.914 250.814Z" fill="#DEDEDE"/>
<path d="M32.6851 264.547L32.5838 266.043L33.9519 266.497L37.7523 272.349L39.703 271.083L40.4879 259.479L32.6851 264.547Z" fill="#DEDEDE"/>
<path d="M32.5839 266.043L31.1246 265.56L28.5163 264.695L27.6312 264.402L19.8152 261.811L17.6899 263.191L13.9631 265.611L19.0303 273.414L24.0974 281.217L31.9002 276.15L37.7523 272.349L33.9519 266.497L32.5839 266.043Z" fill="#666666"/>
<path d="M23.8565 274.44L25.8072 273.173L27.074 275.124L25.1233 276.391L23.8565 274.44Z" fill="#DEDEDE"/>
<path d="M18.7893 266.637L20.74 265.37L22.0068 267.321L20.0561 268.588L18.7893 266.637Z" fill="#DEDEDE"/>
<path d="M29.7086 270.64L31.6592 269.373L32.926 271.324L30.9754 272.59L29.7086 270.64Z" fill="#DEDEDE"/>
<path d="M33.408 284.877L76.3232 257.008L77.59 258.959L34.6747 286.828L33.408 284.877Z" fill="#C7C7C7"/>
<path d="M81.3904 264.811L38.4752 292.68L39.742 294.631L52.4215 286.397L56.2218 292.249L58.1725 290.982L54.3722 285.13L68.027 276.262L71.8274 282.114L73.7781 280.848L69.9777 274.995L82.6572 266.761L81.3904 264.811Z" fill="#C7C7C7"/>
<path d="M28.5163 264.695L61.9655 224.222L54.7939 218.295L17.6899 263.191L19.8151 261.811L28.5163 264.695Z" fill="#DEDEDE"/>
<path d="M45.6665 243.944L39.7393 251.116L37.0133 239.81L42.9395 232.639L45.6665 243.944Z" fill="#666666"/>
<path d="M57.5199 229.601L51.5937 236.772L48.8667 225.467L54.7939 218.295L57.5199 229.601Z" fill="#666666"/>
<path d="M28.5164 264.695L33.8121 258.287L31.0861 246.981L25.1589 254.153L27.6312 264.402L28.5164 264.695Z" fill="#666666"/>
<path d="M24.0974 281.217L76.7661 247.013L78.6663 249.94L25.9976 284.143L24.0974 281.217Z" fill="#C7C7C7"/>
<path d="M40.5141 252.003L40.6362 251.856L40.8159 251.64L50.4437 239.987L52.4867 237.515L55.5107 233.857L62.8625 224.963C63.2714 224.468 63.2014 223.735 62.7061 223.326L62.7061 223.326L55.5344 217.398C55.5171 217.385 55.4959 217.382 55.4777 217.369C55.3897 217.304 55.2929 217.252 55.1902 217.214C55.1574 217.202 55.1273 217.186 55.0939 217.177C55.0815 217.171 55.0686 217.167 55.0556 217.163C54.9416 217.137 54.8241 217.129 54.7075 217.139C54.6769 217.141 54.6477 217.152 54.6173 217.156C54.5144 217.172 54.4142 217.201 54.3189 217.243C54.2825 217.26 54.2498 217.276 54.2144 217.296C54.0933 217.362 53.9855 217.45 53.8961 217.555L32.1972 243.811L30.1892 246.241L26.7417 250.413L16.9073 262.313L13.3297 264.636C12.7911 264.986 12.638 265.706 12.9878 266.245L38.9571 306.234C40.0065 307.85 42.1673 308.309 43.7833 307.26L92.5506 275.59C94.1667 274.54 94.6259 272.38 93.5765 270.764L72.6744 238.577C72.6623 238.559 72.6424 238.549 72.6294 238.531C72.564 238.442 72.4861 238.362 72.3981 238.295C72.3737 238.274 72.3482 238.254 72.3217 238.235C72.3148 238.224 72.3007 238.215 72.2888 238.208C72.1863 238.149 72.0754 238.107 71.96 238.082C71.9337 238.075 71.9065 238.076 71.8798 238.071C71.7735 238.055 71.6657 238.053 71.5589 238.066C71.5208 238.071 71.4846 238.075 71.4474 238.084C71.3121 238.111 71.1828 238.162 71.0656 238.235L30.9603 264.28L30.4961 264.127L40.5141 252.003ZM54.2138 220.827L56.2542 229.307L53.6691 232.435L52.1775 234.236L50.1365 225.754L51.3803 224.253L54.2138 220.827ZM28.4745 262.918L26.4335 254.437L30.508 249.507L32.5483 257.988L30.0396 261.026L28.4745 262.918ZM48.2817 228.002L50.3227 236.483L46.2483 241.413L44.2066 232.931L44.7091 232.327L48.2817 228.002ZM44.3988 243.651L40.3253 248.58L38.2849 240.1L42.3584 235.171L44.3988 243.651ZM38.4742 250.826L34.3998 255.756L32.3588 247.275L36.4313 242.342L38.4742 250.826ZM26.0106 262.641L21.0223 260.985L24.574 256.688L26.0106 262.641ZM58.1075 227.07L56.744 221.418L60.3321 224.381L58.1075 227.07ZM15.572 265.953L19.9805 263.09L28.1506 265.8L30.7544 266.661L31.9932 267.074L32.2069 267.145L33.1888 267.47L36.1379 272.011L24.4395 279.608L15.572 265.953ZM91.6259 272.03C91.9757 272.569 91.8226 273.289 91.284 273.639L42.5166 305.309C41.978 305.659 41.2577 305.506 40.9079 304.967L25.7063 281.559L76.4244 248.622L91.6259 272.03ZM75.1576 246.671L72.2315 248.572L72.624 242.77L75.1576 246.671ZM69.7932 250.155L64.4288 253.639L65.0174 244.936L70.3818 241.453L69.7932 250.155ZM61.9904 255.222L56.626 258.706L57.2147 250.004L62.5791 246.52L61.9904 255.222ZM54.1876 260.289L48.8232 263.773L49.4119 255.071L54.7763 251.587L54.1876 260.289ZM46.3848 265.357L41.0204 268.84L41.6091 260.138L46.9735 256.654L46.3848 265.357ZM38.5821 270.424L38.0944 270.74L34.9274 265.864C34.7837 265.642 34.5687 265.476 34.3179 265.393L33.8058 265.223L39.1707 261.721L38.5821 270.424Z" fill="black"/>
<path d="M23.8565 274.44L25.8072 273.173L27.074 275.124L25.1233 276.391L23.8565 274.44Z" fill="black"/>
<path d="M18.7893 266.637L20.74 265.37L22.0068 267.321L20.0561 268.588L18.7893 266.637Z" fill="black"/>
<path d="M29.7086 270.64L31.6592 269.373L32.926 271.323L30.9754 272.59L29.7086 270.64Z" fill="black"/>
<path d="M33.408 284.877L76.3232 257.008L77.59 258.959L34.6747 286.828L33.408 284.877Z" fill="black"/>
<path d="M39.742 294.631L52.4215 286.397L56.2218 292.249L58.1725 290.982L54.3722 285.13L68.027 276.262L71.8274 282.114L73.7781 280.848L69.9777 274.995L82.6572 266.761L81.3904 264.811L38.4752 292.68L39.742 294.631Z" fill="black"/>
</g>
<defs>
<clipPath id="clip0">
<rect width="84.2499" height="84.2499" fill="white" transform="translate(119 111.902) rotate(-27.5)"/>
</clipPath>
<clipPath id="clip1">
<rect width="87" height="87" fill="white" transform="translate(295 3)"/>
</clipPath>
<clipPath id="clip2">
<rect width="75.3646" height="75.3646" fill="white" transform="matrix(-0.824126 0.566406 0.566406 0.824126 633.11 0)"/>
</clipPath>
<clipPath id="clip3">
<rect width="119.06" height="119.06" fill="white" transform="translate(478.488 75) rotate(32.5)"/>
</clipPath>
<clipPath id="clip4">
<rect width="69.772" height="69.772" fill="white" transform="translate(0.908813 251.909) rotate(-33)"/>
</clipPath>
</defs>
</svg>
