<svg width="701" height="326" viewBox="0 0 701 326" fill="none" xmlns="http://www.w3.org/2000/svg">
<g clip-path="url(#clip0)">
<path d="M326.796 79.4248L320.502 76.0073C317.025 74.1198 315.737 69.7717 317.625 66.2953L343.257 19.0876L349.551 22.5052L354.522 13.3498L360.816 16.7673L326.796 79.4248Z" fill="#C3D3DD"/>
<path d="M378.295 107.387C381.772 109.274 386.12 107.986 388.007 104.51L422.804 40.4218L365.011 9.04238L330.214 73.1304C328.326 76.6068 323.978 77.8947 320.502 76.0072L378.295 107.387Z" fill="white"/>
<path d="M357.43 39.3786L379.46 51.3401L364.547 78.8064L342.517 66.8449L357.43 39.3786Z" fill="#80B6FF"/>
<path d="M366.751 22.2122L410.811 46.1351L405.219 56.4349L361.158 32.512L366.751 22.2122Z" fill="#FFCD69"/>
<path d="M423.581 38.9913L365.787 7.61184C364.997 7.18293 364.009 7.47557 363.58 8.26566L360.162 14.56L355.299 11.9192C354.509 11.4903 353.52 11.7831 353.091 12.573L348.897 20.2979L344.033 17.6571C343.243 17.2281 342.255 17.5209 341.826 18.3109L316.194 65.5186C313.882 69.778 315.465 75.1251 319.725 77.4378L377.519 108.817C381.778 111.13 387.125 109.546 389.438 105.287L424.235 41.1985C424.664 40.4084 424.371 39.4202 423.581 38.9913ZM386.577 103.733C385.121 106.415 381.754 107.412 379.072 105.956L327.274 77.8321C329.076 77.0895 330.644 75.7493 331.644 73.9072L342.13 54.5953C342.558 53.8054 342.266 52.817 341.476 52.3881C340.686 51.9592 339.697 52.252 339.268 53.0419L328.783 72.3537C327.327 75.0357 323.96 76.0329 321.278 74.5767C318.596 73.1205 317.599 69.754 319.055 67.072L343.91 21.2948L347.344 23.159L323.265 67.5056C322.836 68.2956 323.129 69.284 323.919 69.7129C324.709 70.1418 325.698 69.849 326.126 69.0591L355.176 15.557L358.609 17.4211L346.259 40.1671C345.83 40.9571 346.123 41.9454 346.913 42.3743C347.703 42.8032 348.691 42.5106 349.12 41.7205L365.664 11.2496L420.597 41.0756L386.577 103.733Z" fill="black"/>
<path d="M360.382 33.9425L404.442 57.8655C405.232 58.2944 406.22 58.0017 406.649 57.2116L412.242 46.9118C412.671 46.1218 412.378 45.1334 411.588 44.7045L367.527 20.7816C366.737 20.3526 365.749 20.6455 365.32 21.4354L359.728 31.7353C359.299 32.5254 359.592 33.5136 360.382 33.9425ZM367.405 24.4194L408.604 46.7889L404.565 54.2277L363.366 31.8582L367.405 24.4194Z" fill="black"/>
<path d="M341.74 68.2755L363.771 80.2369C364.561 80.6658 365.549 80.3731 365.978 79.5831L380.891 52.1168C381.32 51.3267 381.027 50.3385 380.237 49.9096L358.207 37.9481C357.417 37.5191 356.429 37.8118 356 38.6019L341.087 66.0682C340.658 66.8582 340.95 67.8465 341.74 68.2755ZM358.084 41.5859L377.253 51.9939L363.894 76.5992L344.724 66.1911L358.084 41.5859Z" fill="black"/>
<path d="M402.267 61.871L387.104 53.6378C386.314 53.2089 385.325 53.5015 384.896 54.2916C384.467 55.0817 384.76 56.07 385.55 56.4989L400.714 64.7321C401.504 65.161 402.492 64.8684 402.921 64.0783C403.35 63.2882 403.057 62.2999 402.267 61.871Z" fill="black"/>
<path d="M398.539 68.7376L383.375 60.5044C382.586 60.0755 381.597 60.3681 381.168 61.1582C380.739 61.9483 381.032 62.9365 381.822 63.3655L396.986 71.5987C397.776 72.0276 398.764 71.7349 399.193 70.9448C399.622 70.1548 399.329 69.1665 398.539 68.7376Z" fill="black"/>
<path d="M394.811 75.6042L379.647 67.371C378.857 66.9421 377.869 67.2348 377.44 68.0248C377.011 68.8147 377.304 69.8031 378.094 70.232L393.257 78.4652C394.047 78.8941 395.036 78.6014 395.465 77.8114C395.894 77.0215 395.601 76.0331 394.811 75.6042Z" fill="black"/>
<path d="M391.083 82.4707L375.919 74.2375C375.129 73.8086 374.141 74.1013 373.712 74.8913C373.283 75.6812 373.576 76.6696 374.366 77.0985L389.529 85.3318C390.319 85.7607 391.308 85.4679 391.736 84.6779C392.165 83.888 391.873 82.8996 391.083 82.4707Z" fill="black"/>
<path d="M387.354 89.3373L372.191 81.1041C371.401 80.6752 370.412 80.968 369.983 81.7579C369.555 82.5479 369.847 83.5363 370.637 83.9652L385.801 92.1984C386.591 92.6273 387.579 92.3345 388.008 91.5446C388.437 90.7546 388.144 89.7662 387.354 89.3373Z" fill="black"/>
<path d="M338.012 75.142L382.073 99.0649C382.863 99.4938 383.851 99.2011 384.28 98.4111C384.709 97.6212 384.416 96.6328 383.626 96.2039L339.566 72.2809C338.776 71.8519 337.787 72.1448 337.358 72.9347C336.929 73.7247 337.222 74.713 338.012 75.142Z" fill="black"/>
<path d="M345.043 45.9891C344.666 45.7848 344.214 45.7373 343.804 45.8591C343.393 45.9807 343.04 46.2666 342.835 46.6429C342.63 47.0205 342.584 47.4712 342.706 47.8817C342.826 48.2937 343.113 48.6459 343.489 48.8501C343.866 49.0544 344.317 49.1032 344.728 48.9799C345.139 48.8584 345.492 48.5725 345.697 48.1963C345.901 47.8201 345.948 47.3679 345.826 46.9573C345.705 46.5467 345.419 46.1933 345.043 45.9891Z" fill="black"/>
</g>
<g clip-path="url(#clip1)">
<path d="M313.532 281.46L331.342 260.934C333.494 258.459 331.982 254.669 328.813 254.221C322.624 253.352 316.508 248.045 313.897 245.779C311.285 243.512 305.171 238.206 303.437 232.201C302.549 229.125 298.581 228.167 296.436 230.642L278.625 251.166C270.237 260.833 281.049 281.476 281.514 282.351C281.672 282.649 281.936 282.877 282.253 282.991C283.183 283.328 305.144 291.125 313.532 281.46ZM294.346 246.028C298.076 247.205 299.143 249.337 298.089 253.003C296.936 252.645 293.269 249.754 294.346 246.028ZM289.514 266.032C290.365 265.426 291.346 264.978 292.393 264.906L292.394 264.905C293.123 264.859 293.853 264.993 294.518 265.295L294.519 265.296C295.085 265.557 295.611 265.899 296.078 266.312C298.069 268.047 298.59 270.196 297.282 272.771C295.838 269.13 293.327 266.948 289.514 266.032ZM309.256 262.555C312.754 260.909 314.873 261.791 316.427 265.176C312.85 266.871 310.78 265.876 309.256 262.555Z" fill="#E56161"/>
<path d="M316.429 265.179C316.258 265.259 316.076 265.339 315.882 265.414C316.078 265.335 316.262 265.254 316.427 265.176L316.429 265.179Z" fill="#B2EBF2"/>
<path d="M321.313 272.492C313.523 274.297 305.393 273.993 297.76 271.611C297.634 272.011 297.474 272.399 297.282 272.771C297.071 272.236 296.825 271.716 296.546 271.213C288.412 268.429 281.255 263.355 275.937 256.6C273.472 267.005 281.124 281.618 281.514 282.351C281.673 282.649 281.936 282.877 282.253 282.991C283.183 283.327 305.145 291.125 313.532 281.46L321.313 272.492Z" fill="#D65858"/>
<path d="M297.775 276.803C301.423 272.591 301.954 267.827 297.864 264.261C297.861 264.26 297.86 264.259 297.858 264.257C293.993 260.92 289.356 261.614 285.454 266.111C285.39 266.187 285.334 266.268 285.285 266.354C285.285 266.354 285.285 266.355 285.285 266.355C285.285 266.355 285.285 266.356 285.285 266.356C285.179 266.552 285.123 266.771 285.122 266.993C285.12 267.215 285.173 267.435 285.276 267.632C285.379 267.829 285.529 267.998 285.713 268.124C285.896 268.25 286.108 268.328 286.329 268.353C286.329 268.353 286.33 268.353 286.33 268.353C286.33 268.353 286.331 268.353 286.331 268.354C286.817 268.415 290.147 268.373 292.506 270.429C294.898 272.507 295.395 276.052 295.399 276.085C295.433 276.345 295.541 276.59 295.711 276.79C295.88 276.99 296.104 277.136 296.355 277.212C296.606 277.288 296.874 277.29 297.126 277.217C297.378 277.144 297.603 277 297.775 276.803ZM289.514 266.032C291.076 264.92 292.778 264.526 294.518 265.295C294.517 265.298 294.519 265.297 294.519 265.297C295.085 265.557 295.611 265.9 296.078 266.312C298.069 268.047 298.59 270.196 297.282 272.771C295.838 269.13 293.327 266.948 289.514 266.032Z" fill="#BF4B4B"/>
<path d="M290.627 265.379C290.753 265.322 290.877 265.268 291.005 265.22C290.877 265.268 290.75 265.321 290.627 265.379Z" fill="#BF4B4B"/>
<path d="M291.006 265.219C291.197 265.146 291.391 265.084 291.589 265.035C291.391 265.085 291.197 265.146 291.006 265.219Z" fill="#BF4B4B"/>
<path d="M291.789 264.989C291.988 264.947 292.19 264.919 292.393 264.906C292.19 264.92 291.988 264.948 291.789 264.989Z" fill="#BF4B4B"/>
<path d="M294.518 265.295C293.853 264.993 293.123 264.859 292.394 264.905C293.123 264.857 293.853 264.991 294.518 265.295Z" fill="#BF4B4B"/>
<path d="M294.519 265.296C294.828 265.435 295.123 265.6 295.403 265.792C295.122 265.602 294.827 265.436 294.519 265.296Z" fill="#BF4B4B"/>
<path d="M300.189 255.184C300.273 254.999 302.217 250.642 300.411 247.271C299.188 244.988 296.449 243.633 293.942 243.119C293.935 243.118 293.757 243.084 293.749 243.084C293.742 243.084 293.717 243.078 293.709 243.077C293.706 243.075 293.702 243.074 293.698 243.074L293.697 243.075C293.403 243.027 293.102 243.078 292.839 243.218C292.577 243.359 292.368 243.582 292.245 243.853C291.102 246.356 290.715 249.97 292.394 252.367C294.401 255.233 298.549 255.932 298.736 255.963C299.03 256.01 299.332 255.959 299.594 255.819C299.857 255.678 300.066 255.455 300.189 255.184ZM294.346 246.028C298.076 247.205 299.143 249.337 298.089 253.003C296.936 252.645 293.269 249.754 294.346 246.028Z" fill="#BF4B4B"/>
<path d="M319.427 265.415C319.37 265.223 317.996 260.686 314.477 259.399C310.958 258.113 306.981 260.69 306.814 260.801C306.571 260.961 306.385 261.195 306.285 261.469C306.185 261.742 306.176 262.041 306.258 262.32C306.94 264.652 308.764 267.44 311.208 268.335C314.726 269.623 318.702 267.045 318.871 266.933C319.113 266.773 319.299 266.539 319.399 266.266C319.499 265.992 319.509 265.694 319.427 265.415ZM309.256 262.555C312.754 260.909 314.873 261.792 316.427 265.176C312.896 266.85 310.809 265.939 309.256 262.555Z" fill="#BF4B4B"/>
<path d="M319.427 265.415C319.37 265.223 317.996 260.686 314.477 259.399C310.958 258.113 306.981 260.69 306.814 260.801C306.571 260.961 306.385 261.195 306.285 261.469C306.185 261.742 306.176 262.041 306.258 262.32C306.94 264.652 308.764 267.44 311.208 268.335C314.726 269.623 318.702 267.045 318.871 266.933C319.113 266.773 319.299 266.539 319.399 266.266C319.499 265.992 319.509 265.694 319.427 265.415ZM309.256 262.555C312.754 260.909 314.873 261.792 316.427 265.176C312.896 266.85 310.809 265.939 309.256 262.555Z" fill="#BF4B4B"/>
<path d="M300.189 255.184C300.273 254.999 302.217 250.642 300.411 247.271C299.213 245.036 296.697 243.805 294.251 243.187C294.203 243.176 293.798 243.086 293.749 243.084C293.325 242.945 292.55 243.181 292.245 243.853C291.102 246.356 290.715 249.97 292.394 252.367C294.401 255.233 298.549 255.932 298.736 255.963C299.03 256.01 299.332 255.959 299.594 255.819C299.857 255.678 300.066 255.455 300.189 255.184ZM294.346 246.028C298.076 247.206 299.143 249.337 298.089 253.003C296.936 252.645 293.269 249.754 294.346 246.028Z" fill="#BF4B4B"/>
<path d="M300.111 259.81L306.346 252.125C306.459 251.986 306.598 251.871 306.755 251.786C306.911 251.701 307.084 251.648 307.261 251.629C307.439 251.611 307.618 251.627 307.789 251.678C307.961 251.729 308.12 251.813 308.259 251.925C308.397 252.038 308.512 252.176 308.598 252.333C308.683 252.49 308.736 252.662 308.755 252.84C308.773 253.018 308.756 253.197 308.706 253.368C308.655 253.539 308.571 253.699 308.458 253.837L302.223 261.522C301.996 261.803 301.667 261.981 301.308 262.018C300.95 262.056 300.591 261.949 300.311 261.722C300.031 261.495 299.852 261.166 299.815 260.807C299.778 260.449 299.884 260.09 300.111 259.81Z" fill="#BF4B4B"/>
<path d="M285.454 266.111C289.7 261.219 294.57 261.2 297.863 264.262C301.711 267.617 301.677 272.306 297.775 276.802C297.603 277 297.377 277.144 297.125 277.216C296.873 277.289 296.606 277.287 296.355 277.211C296.104 277.135 295.88 276.988 295.711 276.788C295.541 276.588 295.433 276.344 295.4 276.084C295.395 276.052 294.899 272.507 292.505 270.43C290.112 268.353 286.533 268.361 286.496 268.362C286.235 268.364 285.978 268.29 285.757 268.15C285.536 268.01 285.36 267.81 285.25 267.572C285.14 267.335 285.101 267.071 285.137 266.812C285.173 266.552 285.283 266.309 285.454 266.111ZM296.079 266.312C293.654 264.222 291.365 264.724 289.514 266.032C293.324 266.948 295.838 269.129 297.28 272.771C298.316 270.755 298.49 268.418 296.079 266.312Z" fill="#BF4B4B"/>
<path d="M333.563 219.371C332.171 217.382 328.383 217.222 322.954 204.125C321.63 200.93 318.53 193.451 319.661 187.305C320.239 184.161 317.125 181.526 314.093 182.782L288.989 193.189C277.167 198.088 277.618 221.389 277.642 222.378C277.651 222.715 277.785 223.036 278.017 223.281C278.7 223.998 294.864 240.785 306.687 235.883L331.791 225.479C332.355 225.245 332.86 224.888 333.268 224.433C333.675 223.978 333.975 223.438 334.146 222.851C334.316 222.265 334.352 221.647 334.251 221.045C334.15 220.442 333.915 219.87 333.563 219.371ZM304.441 192.729C304.673 192.541 304.959 192.435 305.257 192.427C305.555 192.418 305.848 192.508 306.09 192.682C306.253 192.8 310.109 195.61 310.221 199.435C310.334 203.26 306.645 206.287 306.488 206.415C306.256 206.603 305.97 206.708 305.672 206.717C305.374 206.725 305.082 206.635 304.84 206.462C302.856 205.057 300.788 202.363 300.709 199.711C300.598 195.886 304.285 192.856 304.441 192.729ZM299.184 221.335C298.358 221.69 297.468 221.878 296.568 221.887C295.668 221.896 294.775 221.726 293.941 221.387C293.108 221.049 292.349 220.547 291.711 219.913C291.072 219.279 290.566 218.524 290.221 217.693C289.877 216.861 289.701 215.969 289.703 215.069C289.706 214.169 289.888 213.279 290.237 212.449C290.587 211.62 291.098 210.868 291.741 210.238C292.383 209.608 293.145 209.112 293.981 208.778L296.491 207.736L301.696 220.294L299.184 221.335ZM311.459 222.17C309.326 219.913 310.068 215.749 310.068 215.749C310.068 215.749 314.267 215.246 316.399 217.504C318.532 219.761 317.789 223.924 317.789 223.924C317.789 223.924 313.591 224.428 311.459 222.17Z" fill="#B2EBF2"/>
<path d="M294.896 221.641C293.677 221.33 292.569 220.687 291.694 219.782C290.82 218.878 290.215 217.748 289.946 216.519C285.985 211.558 283.384 205.652 282.397 199.381C277.361 208.038 277.624 221.627 277.642 222.377C277.651 222.714 277.785 223.036 278.017 223.28C278.7 223.997 294.864 240.784 306.687 235.883L320.072 230.335C310.888 230.686 301.906 227.584 294.896 221.641Z" fill="#80DEEA"/>
<path d="M323.683 247.542L323.1 243.597L319.593 241.7C319.371 241.58 319.187 241.4 319.061 241.182C318.935 240.963 318.873 240.713 318.881 240.461C318.889 240.209 318.967 239.964 319.106 239.754C319.245 239.543 319.44 239.376 319.669 239.27L323.078 237.696L323.607 233.868C323.642 233.613 323.749 233.374 323.915 233.178C324.081 232.981 324.3 232.836 324.545 232.759C324.79 232.681 325.052 232.675 325.301 232.741C325.549 232.806 325.774 232.941 325.949 233.129L328.677 236.066L332.476 235.559C332.722 235.526 332.973 235.562 333.201 235.662C333.429 235.762 333.625 235.923 333.768 236.127C333.911 236.331 333.995 236.57 334.011 236.819C334.027 237.067 333.975 237.315 333.86 237.536L332.084 240.932L333.912 244.5C334.028 244.729 334.078 244.986 334.054 245.242C334.031 245.498 333.935 245.742 333.779 245.946C333.622 246.15 333.411 246.306 333.17 246.395C332.929 246.483 332.667 246.502 332.416 246.449L328.638 245.637L325.993 248.301C325.815 248.48 325.591 248.606 325.346 248.665C325.1 248.724 324.843 248.713 324.604 248.634C324.364 248.556 324.151 248.412 323.988 248.219C323.826 248.026 323.72 247.791 323.683 247.542Z" fill="#FFD740"/>
<path d="M339.299 250.409L341.343 244.742L337.779 239.843C337.63 239.637 337.541 239.393 337.523 239.14C337.505 238.886 337.559 238.633 337.678 238.408C337.797 238.183 337.977 237.996 338.196 237.868C338.416 237.741 338.667 237.677 338.921 237.685L345.018 237.878L348.614 233.02C348.764 232.817 348.968 232.66 349.203 232.567C349.437 232.473 349.693 232.447 349.942 232.491C350.19 232.535 350.422 232.647 350.61 232.815C350.799 232.982 350.937 233.199 351.009 233.441L352.727 239.237L358.522 241.141C358.763 241.221 358.977 241.367 359.14 241.562C359.303 241.757 359.408 241.994 359.443 242.246C359.478 242.498 359.441 242.754 359.338 242.987C359.234 243.219 359.068 243.418 358.857 243.56L353.833 246.945L353.815 252.969C353.814 253.222 353.742 253.47 353.608 253.685C353.473 253.899 353.282 254.072 353.055 254.184C352.827 254.296 352.574 254.342 352.322 254.317C352.07 254.292 351.829 254.197 351.628 254.044L346.796 250.336L340.986 252.167C340.744 252.243 340.486 252.25 340.241 252.187C339.995 252.124 339.772 251.994 339.597 251.812C339.422 251.629 339.301 251.401 339.248 251.153C339.195 250.905 339.213 250.647 339.299 250.409Z" fill="#FFD740"/>
<path d="M259.401 231.829C259.195 231.533 258.879 231.332 258.524 231.27C258.169 231.207 257.803 231.288 257.508 231.495L250.827 236.173C250.532 236.38 250.331 236.695 250.268 237.051C250.205 237.406 250.286 237.771 250.493 238.066C250.7 238.362 251.016 238.563 251.371 238.625C251.726 238.688 252.091 238.607 252.386 238.4L259.068 233.722C259.363 233.515 259.564 233.199 259.627 232.844C259.689 232.489 259.608 232.124 259.401 231.829Z" fill="#FFD740"/>
<path d="M274.991 220.913C274.784 220.617 274.468 220.416 274.113 220.354C273.758 220.291 273.393 220.372 273.098 220.579L266.416 225.257C266.121 225.464 265.92 225.78 265.857 226.135C265.795 226.49 265.876 226.855 266.083 227.15C266.289 227.446 266.605 227.647 266.96 227.709C267.315 227.772 267.681 227.691 267.976 227.484L274.657 222.806C274.952 222.599 275.153 222.284 275.216 221.928C275.279 221.573 275.198 221.208 274.991 220.913Z" fill="#FFD740"/>
<path d="M261.628 230.269C262.059 230.884 262.907 231.034 263.522 230.603C264.137 230.172 264.286 229.325 263.856 228.71C263.425 228.095 262.577 227.945 261.962 228.376C261.347 228.807 261.198 229.654 261.628 230.269Z" fill="#FFD740"/>
<path d="M271.653 239.845L266.974 233.164C266.768 232.869 266.452 232.668 266.097 232.605C265.742 232.542 265.376 232.623 265.081 232.83C264.786 233.037 264.585 233.353 264.522 233.708C264.459 234.063 264.54 234.428 264.747 234.723L269.426 241.405C269.632 241.7 269.948 241.901 270.303 241.964C270.658 242.026 271.023 241.945 271.319 241.738C271.614 241.532 271.815 241.216 271.878 240.861C271.94 240.506 271.859 240.14 271.653 239.845Z" fill="#FFD740"/>
<path d="M270.079 232.164L273.865 232.831C274.041 232.862 274.221 232.858 274.396 232.82C274.57 232.781 274.735 232.709 274.881 232.606C275.027 232.504 275.152 232.374 275.248 232.223C275.344 232.072 275.409 231.904 275.44 231.729C275.471 231.553 275.467 231.373 275.429 231.198C275.39 231.024 275.317 230.859 275.215 230.713C275.113 230.567 274.982 230.442 274.832 230.346C274.681 230.25 274.513 230.185 274.337 230.154L270.551 229.486C270.196 229.424 269.831 229.505 269.535 229.711C269.24 229.918 269.039 230.234 268.976 230.589C268.914 230.944 268.995 231.309 269.201 231.605C269.408 231.9 269.724 232.101 270.079 232.164Z" fill="#FFD740"/>
<path d="M262.769 222.418C262.923 222.637 263.14 222.806 263.39 222.903C263.64 223 263.914 223.021 264.176 222.963C264.438 222.905 264.677 222.77 264.863 222.577C265.049 222.383 265.174 222.139 265.221 221.874L265.889 218.088C265.92 217.912 265.916 217.732 265.877 217.557C265.839 217.383 265.766 217.218 265.664 217.072C265.561 216.926 265.431 216.801 265.28 216.705C265.13 216.609 264.962 216.544 264.786 216.513C264.61 216.482 264.43 216.486 264.256 216.524C264.082 216.563 263.917 216.636 263.77 216.738C263.624 216.84 263.499 216.971 263.404 217.121C263.308 217.272 263.242 217.44 263.211 217.616C262.717 221.099 262.22 221.634 262.769 222.418Z" fill="#FFD740"/>
<path d="M262.745 237.299C262.808 236.943 262.727 236.578 262.52 236.283C262.313 235.987 261.998 235.786 261.643 235.724C261.288 235.661 260.922 235.742 260.627 235.949C260.332 236.156 260.131 236.471 260.068 236.826L259.4 240.613C259.338 240.968 259.419 241.333 259.625 241.629C259.832 241.924 260.148 242.125 260.503 242.188C260.858 242.25 261.223 242.169 261.519 241.963C261.814 241.756 262.015 241.44 262.078 241.085L262.745 237.299Z" fill="#FFD740"/>
<path d="M255.21 226.537L251.424 225.869C251.069 225.807 250.703 225.888 250.408 226.095C250.113 226.301 249.911 226.617 249.849 226.972C249.786 227.327 249.867 227.693 250.074 227.988C250.281 228.283 250.596 228.484 250.952 228.547L254.738 229.215C254.914 229.246 255.094 229.242 255.268 229.203C255.443 229.164 255.608 229.092 255.754 228.989C255.9 228.887 256.025 228.757 256.121 228.606C256.217 228.456 256.282 228.288 256.313 228.112C256.344 227.936 256.34 227.756 256.301 227.582C256.263 227.407 256.19 227.242 256.088 227.096C255.985 226.95 255.855 226.825 255.704 226.729C255.554 226.633 255.386 226.568 255.21 226.537Z" fill="#FFD740"/>
<path d="M260.737 224.256L256.058 217.574C255.852 217.279 255.536 217.078 255.181 217.015C254.826 216.953 254.461 217.034 254.165 217.241C253.87 217.447 253.669 217.763 253.606 218.118C253.544 218.473 253.625 218.839 253.831 219.134L258.51 225.815C258.716 226.11 259.032 226.312 259.387 226.374C259.742 226.437 260.108 226.356 260.403 226.149C260.698 225.942 260.899 225.626 260.962 225.271C261.024 224.916 260.943 224.551 260.737 224.256Z" fill="#FFD740"/>
<path d="M303.454 212.143C303.395 211.974 303.371 211.796 303.382 211.617C303.392 211.439 303.438 211.265 303.516 211.104C303.594 210.944 303.703 210.8 303.837 210.682C303.971 210.563 304.126 210.473 304.295 210.414L313.649 207.183C313.818 207.125 313.996 207.101 314.175 207.112C314.353 207.122 314.527 207.168 314.688 207.246C314.848 207.324 314.992 207.433 315.11 207.567C315.229 207.701 315.319 207.856 315.378 208.025C315.436 208.194 315.46 208.372 315.45 208.551C315.439 208.729 315.393 208.903 315.315 209.064C315.237 209.224 315.128 209.368 314.994 209.486C314.86 209.604 314.705 209.695 314.536 209.754L305.182 212.984C304.841 213.102 304.468 213.079 304.144 212.922C303.819 212.764 303.571 212.484 303.454 212.143Z" fill="#4DD0E1"/>
<path d="M289.048 218.179C288.222 216.18 288.223 213.936 289.05 211.938C289.877 209.94 291.463 208.352 293.46 207.521L295.971 206.48C296.304 206.342 296.678 206.342 297.011 206.48C297.345 206.618 297.609 206.882 297.747 207.215C303.035 220.342 303.339 219.88 302.953 220.814C302.601 221.665 301.864 221.589 299.706 222.59C297.707 223.416 295.463 223.415 293.465 222.588C291.467 221.761 289.878 220.176 289.048 218.179ZM291.56 217.138C292.113 218.469 293.172 219.526 294.504 220.077C295.836 220.628 297.332 220.629 298.665 220.079L299.921 219.558L295.757 209.512L294.501 210.033C293.17 210.586 292.112 211.645 291.561 212.977C291.01 214.309 291.009 215.806 291.56 217.138Z" fill="#4DD0E1"/>
<path d="M308.73 215.511C308.781 215.224 308.923 214.961 309.135 214.761C309.346 214.561 309.617 214.434 309.906 214.4C310.105 214.376 314.815 213.846 317.388 216.569C319.961 219.293 319.164 223.964 319.128 224.162C319.077 224.449 318.935 224.712 318.723 224.912C318.511 225.112 318.241 225.239 317.952 225.273C317.753 225.297 313.043 225.827 310.47 223.104C308.672 221.2 308.305 217.891 308.73 215.511ZM311.306 217.061C311.181 220.854 312.753 222.522 316.551 222.613C316.677 218.821 315.105 217.151 311.306 217.061Z" fill="#4DD0E1"/>
<path d="M300.709 199.71C300.599 195.886 304.285 192.856 304.442 192.729C304.674 192.542 304.96 192.436 305.258 192.427C305.556 192.418 305.848 192.508 306.09 192.681C306.254 192.799 310.11 195.61 310.221 199.435C310.332 203.259 306.645 206.288 306.488 206.415C306.257 206.602 305.97 206.708 305.673 206.717C305.375 206.725 305.083 206.636 304.841 206.463C302.817 205.009 300.786 202.348 300.709 199.71ZM305.351 195.614C302.681 198.514 302.853 200.904 305.583 203.527C308.196 200.685 308.126 198.299 305.35 195.614L305.351 195.614Z" fill="#4DD0E1"/>
<path d="M311.585 189.481C312.446 190.711 314.141 191.01 315.371 190.149C316.601 189.288 316.9 187.592 316.039 186.362C315.178 185.132 313.482 184.834 312.252 185.695C311.022 186.556 310.723 188.251 311.585 189.481Z" fill="#E0F7FA"/>
<path d="M312.477 195.495C312.907 196.11 313.755 196.259 314.37 195.829C314.985 195.398 315.134 194.55 314.704 193.935C314.273 193.32 313.425 193.171 312.81 193.601C312.195 194.032 312.046 194.88 312.477 195.495Z" fill="#E0F7FA"/>
<path d="M323.44 261.665C324.301 262.895 325.997 263.194 327.227 262.333C328.457 261.472 328.755 259.777 327.894 258.547C327.033 257.317 325.338 257.018 324.108 257.879C322.878 258.74 322.579 260.435 323.44 261.665Z" fill="#F29C9C"/>
<path d="M318.094 258.771C318.525 259.386 319.372 259.535 319.987 259.104C320.602 258.674 320.752 257.826 320.321 257.211C319.891 256.596 319.043 256.447 318.428 256.877C317.813 257.308 317.664 258.156 318.094 258.771Z" fill="#F29C9C"/>
<path d="M346.211 243.231C347.073 244.461 348.768 244.76 349.998 243.899C351.228 243.038 351.527 241.343 350.666 240.113C349.804 238.883 348.109 238.584 346.879 239.445C345.649 240.306 345.35 242.001 346.211 243.231Z" fill="#FFE7A4"/>
<path d="M353.816 252.969L353.829 248.603C348.575 247.274 343.585 243.411 340.48 237.734L338.921 237.684C338.667 237.676 338.416 237.74 338.196 237.868C337.975 237.995 337.796 238.182 337.677 238.407C337.558 238.632 337.504 238.886 337.522 239.14C337.54 239.393 337.629 239.637 337.779 239.843L341.343 244.742L339.299 250.409C339.213 250.647 339.196 250.905 339.249 251.152C339.302 251.4 339.423 251.628 339.598 251.811C339.773 251.993 339.996 252.123 340.241 252.186C340.487 252.249 340.745 252.243 340.986 252.167L346.795 250.336L351.629 254.043C351.83 254.197 352.07 254.292 352.322 254.316C352.574 254.341 352.828 254.295 353.055 254.183C353.282 254.072 353.474 253.899 353.608 253.684C353.743 253.47 353.814 253.222 353.816 252.969Z" fill="#FFC400"/>
<path d="M333.912 244.5L332.501 241.745C330.481 242.577 328.246 242.738 326.127 242.205C324.008 241.671 322.116 240.47 320.731 238.78L319.67 239.27C319.441 239.376 319.246 239.544 319.107 239.754C318.968 239.965 318.891 240.209 318.883 240.461C318.875 240.714 318.937 240.963 319.062 241.182C319.188 241.4 319.372 241.58 319.593 241.7L323.101 243.597C323.733 247.56 323.593 247.664 323.914 248.123C324.029 248.286 324.177 248.422 324.349 248.521C324.522 248.62 324.714 248.681 324.912 248.698C325.11 248.715 325.31 248.688 325.496 248.619C325.683 248.551 325.853 248.442 325.993 248.301L328.638 245.637L332.416 246.449C332.667 246.502 332.929 246.484 333.17 246.395C333.411 246.306 333.622 246.151 333.779 245.947C333.935 245.743 334.031 245.499 334.055 245.243C334.078 244.987 334.029 244.729 333.912 244.5Z" fill="#FFC400"/>
</g>
<g clip-path="url(#clip2)">
<path d="M595.072 60.6001L582.43 69.3055C580.903 70.3551 581.193 72.6414 582.863 73.3342C586.125 74.6847 588.719 78.4519 589.826 80.0604C590.934 81.669 593.527 85.4356 593.626 88.9644C593.676 90.772 595.711 91.8572 597.234 90.8072L609.876 82.1027C615.83 78.0025 612.837 65.1851 612.706 64.6407C612.662 64.4555 612.55 64.2935 612.393 64.1861C611.932 63.8708 601.025 56.5011 595.072 60.6001ZM600.552 82.6889C598.679 81.5176 598.397 80.201 599.492 78.3453C600.072 78.7043 601.669 80.8037 600.552 82.6889ZM606.024 72.4335C605.473 72.6445 604.873 72.7505 604.29 72.6421L604.29 72.6424C603.884 72.5645 603.504 72.3881 603.183 72.1287L603.183 72.1278C602.91 71.905 602.671 71.6436 602.474 71.3519C601.631 70.1214 601.65 68.873 602.729 67.6496C603.004 69.845 604.068 71.3932 606.024 72.4335ZM594.736 71.5428C592.591 71.9482 591.557 71.1659 591.186 69.0954C593.382 68.6741 594.373 69.5109 594.736 71.5428Z" fill="#E56161"/>
<path d="M591.185 69.0936C591.29 69.0741 591.401 69.0561 591.517 69.0422C591.399 69.0577 591.287 69.076 591.186 69.0954L591.185 69.0936Z" fill="#B2EBF2"/>
<path d="M589.548 64.4034C594.063 64.5183 598.466 65.8344 602.304 68.2163C602.429 68.0155 602.571 67.826 602.729 67.6497C602.769 67.9719 602.83 68.2912 602.911 68.6055C606.966 71.2783 610.161 75.0653 612.115 79.5112C614.934 74.1699 612.816 65.0969 612.706 64.6407C612.662 64.4555 612.55 64.2935 612.393 64.1862C611.932 63.8708 601.025 56.5011 595.071 60.6002L589.548 64.4034Z" fill="#D65858"/>
<path d="M603.03 65.3753C600.439 67.1625 599.475 69.6927 601.208 72.2209C601.209 72.2217 601.209 72.2228 601.21 72.2242C602.851 74.5952 605.486 74.8716 608.255 72.9641C608.301 72.932 608.343 72.8956 608.382 72.8554C608.382 72.8553 608.382 72.8551 608.382 72.8549C608.382 72.8547 608.382 72.8544 608.382 72.8542C608.468 72.7621 608.529 72.6505 608.562 72.529C608.594 72.4076 608.596 72.2801 608.568 72.1578C608.539 72.0354 608.481 71.9218 608.398 71.8271C608.316 71.7324 608.211 71.6594 608.094 71.6145C608.094 71.6146 608.093 71.6146 608.093 71.6145C608.093 71.6144 608.093 71.6142 608.093 71.614C607.836 71.512 606.009 71.0636 605.01 69.6056C603.995 68.1312 604.225 66.1222 604.227 66.1039C604.246 65.9569 604.221 65.8077 604.157 65.6744C604.092 65.541 603.991 65.4291 603.864 65.3521C603.737 65.2752 603.591 65.2364 603.443 65.2405C603.295 65.2446 603.152 65.2914 603.03 65.3753ZM606.024 72.4335C605.013 72.8205 604.026 72.7953 603.183 72.1287C603.184 72.1275 603.183 72.1278 603.183 72.1278C602.91 71.905 602.671 71.6436 602.474 71.3519C601.631 70.1214 601.65 68.873 602.729 67.6497C603.004 69.845 604.068 71.3932 606.024 72.4335Z" fill="#BF4B4B"/>
<path d="M605.323 72.6331C605.246 72.6465 605.171 72.6584 605.094 72.6666C605.171 72.6584 605.247 72.6471 605.323 72.6331Z" fill="#BF4B4B"/>
<path d="M605.093 72.6669C604.978 72.6801 604.863 72.6862 604.748 72.6851C604.863 72.6857 604.978 72.6797 605.093 72.6669Z" fill="#BF4B4B"/>
<path d="M604.632 72.6823C604.518 72.677 604.403 72.6636 604.29 72.6421C604.403 72.663 604.518 72.6764 604.632 72.6823Z" fill="#BF4B4B"/>
<path d="M603.183 72.1287C603.504 72.3881 603.884 72.5646 604.29 72.6425C603.884 72.5655 603.504 72.389 603.183 72.1287Z" fill="#BF4B4B"/>
<path d="M603.183 72.1278C603.034 72.0087 602.895 71.8762 602.77 71.7321C602.896 71.8755 603.034 72.0079 603.183 72.1278Z" fill="#BF4B4B"/>
<path d="M598.652 76.8559C598.58 76.9453 596.901 79.0528 597.412 81.1518C597.758 82.5729 599.064 83.7014 600.362 84.337C600.366 84.3388 600.459 84.3823 600.463 84.3835C600.467 84.3846 600.479 84.3912 600.484 84.393C600.485 84.3944 600.487 84.3954 600.489 84.3962L600.49 84.3959C600.644 84.4634 600.816 84.4784 600.979 84.4386C601.143 84.3988 601.288 84.3064 601.394 84.1756C602.373 82.9683 603.095 81.0471 602.517 79.4985C601.824 77.6474 599.655 76.6788 599.557 76.6356C599.403 76.5681 599.231 76.5531 599.067 76.5929C598.904 76.6327 598.758 76.7251 598.652 76.8559ZM600.552 82.6889C598.679 81.5176 598.397 80.201 599.492 78.3453C600.072 78.7043 601.669 80.8038 600.552 82.6889Z" fill="#BF4B4B"/>
<path d="M589.579 68.5406C589.583 68.6537 589.693 71.329 591.435 72.5302C593.177 73.7314 595.717 72.8845 595.824 72.8475C595.979 72.7944 596.114 72.6925 596.207 72.557C596.301 72.4215 596.348 72.2596 596.343 72.0951C596.299 70.7236 595.696 68.941 594.486 68.1064C592.745 66.9039 590.206 67.7517 590.098 67.789C589.943 67.8423 589.808 67.9441 589.715 68.0794C589.621 68.2146 589.574 68.3762 589.579 68.5406ZM594.736 71.5429C592.591 71.9483 591.557 71.166 591.186 69.0955C593.353 68.6796 594.366 69.473 594.736 71.5429Z" fill="#BF4B4B"/>
<path d="M589.579 68.5406C589.583 68.6537 589.693 71.329 591.435 72.5302C593.177 73.7314 595.717 72.8845 595.824 72.8475C595.979 72.7944 596.114 72.6925 596.207 72.557C596.301 72.4215 596.348 72.2596 596.343 72.0951C596.299 70.7236 595.696 68.941 594.486 68.1064C592.745 66.9039 590.206 67.7517 590.098 67.789C589.943 67.8423 589.808 67.9441 589.715 68.0794C589.621 68.2146 589.574 68.3762 589.579 68.5406ZM594.736 71.5429C592.591 71.9483 591.557 71.166 591.186 69.0955C593.353 68.6796 594.366 69.473 594.736 71.5429Z" fill="#BF4B4B"/>
<path d="M598.652 76.8559C598.58 76.9453 596.901 79.0528 597.412 81.1518C597.75 82.5433 598.953 83.5721 600.203 84.2562C600.227 84.2687 600.436 84.3757 600.463 84.3835C600.675 84.5193 601.132 84.4998 601.394 84.1756C602.373 82.9683 603.095 81.0471 602.516 79.4985C601.824 77.6474 599.655 76.6788 599.557 76.6356C599.403 76.5681 599.231 76.5531 599.067 76.5929C598.904 76.6327 598.758 76.7251 598.652 76.8559ZM600.552 82.6889C598.679 81.5176 598.397 80.201 599.492 78.3453C600.072 78.7043 601.669 80.8038 600.552 82.6889Z" fill="#BF4B4B"/>
<path d="M599.349 74.3372L594.852 77.6579C594.771 77.7178 594.679 77.7611 594.581 77.7855C594.484 77.8098 594.382 77.8146 594.282 77.7996C594.182 77.7847 594.087 77.7502 594 77.6982C593.914 77.6462 593.838 77.5777 593.779 77.4966C593.719 77.4155 593.675 77.3234 593.651 77.2256C593.627 77.1277 593.622 77.026 593.637 76.9263C593.652 76.8266 593.686 76.7308 593.738 76.6444C593.79 76.558 593.859 76.4827 593.94 76.4227L598.436 73.1021C598.6 72.9811 598.805 72.9301 599.007 72.9603C599.208 72.9905 599.389 73.0995 599.51 73.2633C599.631 73.4271 599.682 73.6323 599.652 73.8337C599.622 74.0351 599.513 74.2162 599.349 74.3372Z" fill="#BF4B4B"/>
<path d="M608.255 72.9643C605.242 75.0391 602.576 74.3607 601.208 72.2208C599.578 69.8417 600.26 67.2825 603.03 65.3754C603.152 65.2917 603.296 65.245 603.444 65.241C603.592 65.237 603.738 65.2758 603.864 65.3528C603.991 65.4298 604.092 65.5417 604.156 65.6751C604.221 65.8084 604.245 65.9575 604.227 66.1044C604.225 66.1225 603.995 68.1309 605.01 69.6053C606.025 71.0796 607.983 71.5811 608.003 71.5862C608.147 71.622 608.277 71.6985 608.378 71.8063C608.479 71.9141 608.547 72.0488 608.573 72.1942C608.6 72.3395 608.584 72.4895 608.528 72.6261C608.471 72.7627 608.376 72.8801 608.255 72.9643ZM602.474 71.3517C603.504 72.8378 604.826 72.887 606.024 72.4332C604.07 71.3939 603.004 69.8454 602.73 67.6499C601.879 68.606 601.453 69.859 602.474 71.3517Z" fill="#BF4B4B"/>
<path d="M575.338 91.7189C575.818 93.0034 577.867 93.627 578.983 101.557C579.255 103.491 579.893 108.019 578.405 111.22C577.644 112.858 578.975 114.739 580.81 114.481L596.01 112.34C603.168 111.333 606.216 98.5276 606.343 97.9834C606.385 97.7978 606.358 97.603 606.265 97.4365C605.993 96.9479 599.528 85.4821 592.37 86.4903L577.171 88.6298C576.829 88.6775 576.502 88.8015 576.215 88.9926C575.928 89.1837 575.687 89.4369 575.511 89.7336C575.335 90.0303 575.228 90.3628 575.198 90.7065C575.168 91.0502 575.216 91.3962 575.338 91.7189ZM587.495 110.407C587.342 110.476 587.17 110.494 587.006 110.456C586.842 110.419 586.694 110.328 586.587 110.199C586.514 110.112 584.803 108.03 585.283 105.922C585.762 103.814 588.207 102.681 588.311 102.633C588.464 102.563 588.636 102.546 588.8 102.583C588.964 102.621 589.111 102.711 589.219 102.841C590.105 103.889 590.855 105.655 590.524 107.116C590.043 109.224 587.598 110.359 587.495 110.407ZM594.415 95.507C594.918 95.4296 595.43 95.4527 595.924 95.5751C596.417 95.6974 596.882 95.9166 597.29 96.2198C597.698 96.523 598.041 96.9043 598.301 97.3414C598.561 97.7786 598.731 98.2629 598.801 98.7664C598.872 99.2698 598.842 99.7823 598.714 100.274C598.585 100.766 598.36 101.227 598.051 101.631C597.743 102.035 597.357 102.374 596.916 102.628C596.476 102.882 595.989 103.045 595.485 103.11L593.965 103.324L592.895 95.721L594.415 95.507ZM587.821 93.3143C588.668 94.8502 587.674 97.0223 587.674 97.0223C587.674 97.0223 585.306 96.7034 584.46 95.1675C583.613 93.6315 584.607 91.4603 584.607 91.4603C584.607 91.4603 586.974 91.7783 587.821 93.3143Z" fill="#B2EBF2"/>
<path d="M596.803 95.9471C597.425 96.2894 597.941 96.7981 598.291 97.4163C598.641 98.0345 598.812 98.7379 598.786 99.4479C600.25 102.721 600.837 106.318 600.49 109.887C604.468 105.866 606.246 98.3974 606.342 97.9845C606.385 97.7989 606.357 97.6041 606.265 97.4376C605.993 96.949 599.527 85.4832 592.369 86.4915L584.265 87.6322C589.337 88.7394 593.81 91.7059 596.803 95.9471Z" fill="#80DEEA"/>
<path d="M584.724 77.7121L584.485 79.9519L586.135 81.4854C586.239 81.5824 586.314 81.7065 586.352 81.8439C586.39 81.9813 586.389 82.1265 586.349 82.2633C586.309 82.4001 586.231 82.523 586.125 82.6183C586.02 82.7137 585.889 82.7777 585.749 82.8032L583.663 83.182L582.832 85.2005C582.776 85.3347 582.684 85.4504 582.565 85.5343C582.447 85.6181 582.307 85.6667 582.162 85.6743C582.017 85.6819 581.873 85.6483 581.746 85.5773C581.619 85.5064 581.516 85.4009 581.446 85.2733L580.37 83.2814L578.221 83.0215C578.082 83.0044 577.949 82.9494 577.839 82.8623C577.728 82.7753 577.644 82.6596 577.595 82.5279C577.546 82.3962 577.533 82.2535 577.56 82.1153C577.586 81.9772 577.65 81.8489 577.744 81.7444L579.195 80.1383L578.7 77.9291C578.669 77.7873 578.678 77.6396 578.727 77.5029C578.776 77.3662 578.863 77.2462 578.978 77.1569C579.092 77.0675 579.229 77.0124 579.374 76.9979C579.518 76.9834 579.664 77.0102 579.794 77.075L581.745 78.0534L583.568 76.9705C583.691 76.8977 583.831 76.8605 583.974 76.863C584.116 76.8655 584.255 76.9076 584.375 76.9845C584.495 77.0615 584.591 77.1703 584.653 77.2988C584.714 77.4273 584.739 77.5704 584.724 77.7121Z" fill="#FFD740"/>
<path d="M576.59 73.936L574.671 76.7458L575.927 79.9289C575.979 80.0626 575.993 80.2083 575.967 80.3496C575.941 80.4908 575.876 80.6219 575.779 80.7279C575.682 80.834 575.558 80.9108 575.419 80.9496C575.281 80.9884 575.135 80.9877 574.997 80.9476L571.69 79.9796L569.037 82.1279C568.926 82.2174 568.792 82.2743 568.651 82.2922C568.51 82.3101 568.366 82.2883 568.236 82.2292C568.106 82.1701 567.996 82.076 567.916 81.9576C567.837 81.8391 567.792 81.7009 567.787 81.5584L567.667 78.1465L564.768 76.2855C564.647 76.2078 564.55 76.0978 564.489 75.968C564.428 75.8381 564.404 75.6937 564.42 75.551C564.437 75.4084 564.493 75.2732 564.582 75.1608C564.672 75.0485 564.791 74.9635 564.926 74.9154L568.153 73.7749L569.014 70.4832C569.051 70.3449 569.125 70.2195 569.229 70.1211C569.332 70.0228 569.462 69.9553 569.602 69.9264C569.742 69.8974 569.887 69.9082 570.021 69.9573C570.156 70.0065 570.274 70.0922 570.362 70.2047L572.48 72.9155L575.916 72.7361C576.059 72.7287 576.201 72.7613 576.326 72.8304C576.452 72.8994 576.555 73.0021 576.625 73.1269C576.696 73.2516 576.729 73.3935 576.723 73.5365C576.717 73.6794 576.671 73.8178 576.59 73.936Z" fill="#FFD740"/>
<path d="M617.653 95.3957C617.725 95.5865 617.869 95.7411 618.054 95.8255C618.24 95.91 618.451 95.9173 618.642 95.846L622.957 94.2327C623.147 94.1613 623.302 94.0172 623.387 93.8319C623.471 93.6466 623.478 93.4353 623.407 93.2446C623.336 93.0538 623.192 92.8992 623.006 92.8148C622.821 92.7303 622.61 92.723 622.419 92.7943L618.104 94.4077C617.913 94.479 617.758 94.6231 617.674 94.8084C617.59 94.9937 617.582 95.205 617.653 95.3957Z" fill="#FFD740"/>
<path d="M607.585 99.1603C607.656 99.351 607.8 99.5056 607.986 99.5901C608.171 99.6745 608.382 99.6819 608.573 99.6106L612.888 97.9972C613.079 97.9259 613.233 97.7817 613.318 97.5964C613.402 97.4111 613.41 97.1998 613.338 97.0091C613.267 96.8184 613.123 96.6638 612.938 96.5793C612.752 96.4949 612.541 96.4875 612.35 96.5588L608.035 98.1722C607.844 98.2435 607.69 98.3877 607.605 98.573C607.521 98.7583 607.514 98.9695 607.585 99.1603Z" fill="#FFD740"/>
<path d="M616.215 95.9335C616.067 95.5363 615.624 95.3347 615.227 95.4832C614.83 95.6317 614.628 96.0741 614.777 96.4713C614.925 96.8685 615.368 97.0701 615.765 96.9216C616.162 96.7731 616.364 96.3307 616.215 95.9335Z" fill="#FFD740"/>
<path d="M612.088 89.2794L613.701 93.5945C613.772 93.7853 613.917 93.9399 614.102 94.0243C614.287 94.1088 614.498 94.1161 614.689 94.0448C614.88 93.9735 615.035 93.8293 615.119 93.644C615.203 93.4587 615.211 93.2475 615.14 93.0567L613.526 88.7416C613.455 88.5508 613.311 88.3962 613.125 88.3118C612.94 88.2274 612.729 88.22 612.538 88.2913C612.347 88.3626 612.193 88.5068 612.108 88.6921C612.024 88.8774 612.016 89.0886 612.088 89.2794Z" fill="#FFD740"/>
<path d="M611.862 93.7025L609.886 92.8019C609.794 92.7601 609.695 92.7368 609.594 92.7333C609.493 92.7297 609.393 92.7461 609.299 92.7814C609.204 92.8167 609.118 92.8703 609.044 92.9391C608.97 93.0078 608.911 93.0905 608.869 93.1822C608.827 93.274 608.804 93.3731 608.8 93.4738C608.797 93.5746 608.813 93.6751 608.848 93.7695C608.884 93.864 608.937 93.9505 609.006 94.0243C609.075 94.098 609.157 94.1575 609.249 94.1993L611.225 95.0999C611.411 95.1844 611.622 95.1918 611.813 95.1204C612.003 95.0491 612.158 94.9049 612.242 94.7196C612.327 94.5343 612.334 94.3231 612.263 94.1323C612.192 93.9416 612.047 93.787 611.862 93.7025Z" fill="#FFD740"/>
<path d="M614.481 100.066C614.428 99.9237 614.333 99.8008 614.21 99.7123C614.087 99.6239 613.94 99.5738 613.789 99.5686C613.637 99.5633 613.487 99.6029 613.358 99.6826C613.229 99.7622 613.127 99.8783 613.063 100.016L612.163 101.992C612.121 102.084 612.098 102.183 612.094 102.284C612.09 102.385 612.107 102.485 612.142 102.58C612.177 102.674 612.231 102.761 612.3 102.834C612.369 102.908 612.451 102.968 612.543 103.009C612.635 103.051 612.734 103.075 612.835 103.078C612.935 103.082 613.036 103.065 613.13 103.03C613.225 102.995 613.311 102.941 613.385 102.872C613.459 102.804 613.518 102.721 613.56 102.629C614.323 100.794 614.671 100.572 614.481 100.066Z" fill="#FFD740"/>
<path d="M616.598 91.9316C616.514 92.1169 616.507 92.3282 616.578 92.5189C616.649 92.7097 616.793 92.8643 616.979 92.9487C617.164 93.0332 617.375 93.0406 617.566 92.9693C617.757 92.8979 617.911 92.7538 617.996 92.5685L618.896 90.5923C618.981 90.407 618.988 90.1957 618.917 90.005C618.846 89.8142 618.701 89.6596 618.516 89.5752C618.331 89.4907 618.12 89.4833 617.929 89.5547C617.738 89.626 617.583 89.7702 617.499 89.9555L616.598 91.9316Z" fill="#FFD740"/>
<path d="M619.197 98.8821L621.173 99.7827C621.359 99.8672 621.57 99.8745 621.761 99.8032C621.951 99.7319 622.106 99.5877 622.19 99.4024C622.275 99.2171 622.282 99.0059 622.211 98.8151C622.14 98.6244 621.995 98.4698 621.81 98.3853L619.834 97.4847C619.742 97.4429 619.643 97.4196 619.542 97.4161C619.442 97.4125 619.341 97.4289 619.247 97.4642C619.152 97.4995 619.066 97.5531 618.992 97.6219C618.918 97.6906 618.859 97.7733 618.817 97.865C618.775 97.9568 618.752 98.0559 618.748 98.1566C618.745 98.2574 618.761 98.3579 618.796 98.4523C618.832 98.5468 618.885 98.6333 618.954 98.7071C619.023 98.7808 619.105 98.8403 619.197 98.8821Z" fill="#FFD740"/>
<path d="M615.852 99.3481L617.466 103.663C617.537 103.854 617.681 104.009 617.866 104.093C618.052 104.177 618.263 104.185 618.454 104.114C618.645 104.042 618.799 103.898 618.884 103.713C618.968 103.527 618.975 103.316 618.904 103.125L617.291 98.8103C617.219 98.6196 617.075 98.465 616.89 98.3805C616.705 98.2961 616.493 98.2887 616.303 98.36C616.112 98.4313 615.957 98.5755 615.873 98.7608C615.788 98.9461 615.781 99.1574 615.852 99.3481Z" fill="#FFD740"/>
<path d="M590.78 99.9307C590.788 100.031 590.776 100.132 590.745 100.228C590.714 100.324 590.664 100.413 590.599 100.49C590.533 100.566 590.454 100.63 590.364 100.675C590.274 100.721 590.176 100.749 590.075 100.757L584.503 101.201C584.403 101.209 584.302 101.197 584.206 101.166C584.11 101.135 584.021 101.085 583.944 101.02C583.868 100.954 583.804 100.874 583.759 100.785C583.713 100.695 583.685 100.597 583.677 100.496C583.669 100.396 583.681 100.295 583.712 100.199C583.743 100.103 583.793 100.014 583.858 99.9372C583.924 99.8604 584.004 99.7974 584.094 99.7515C584.183 99.7057 584.281 99.678 584.382 99.67L589.954 99.2261C590.157 99.21 590.358 99.2752 590.513 99.4073C590.668 99.5395 590.764 99.7277 590.78 99.9307Z" fill="#4DD0E1"/>
<path d="M599.511 98.6671C599.68 99.8768 599.362 101.104 598.627 102.08C597.893 103.055 596.801 103.7 595.592 103.871L594.071 104.085C593.869 104.114 593.665 104.061 593.502 103.938C593.339 103.816 593.232 103.634 593.204 103.432C592.169 95.5063 591.937 95.7158 592.28 95.26C592.593 94.8444 592.985 94.9902 594.307 94.7475C595.517 94.5787 596.744 94.8965 597.72 95.6313C598.695 96.3661 599.339 97.4579 599.511 98.6671ZM597.991 98.8812C597.876 98.0751 597.446 97.3474 596.796 96.8575C596.146 96.3677 595.328 96.1557 594.521 96.2681L593.761 96.3752L594.617 102.458L595.377 102.351C596.184 102.236 596.911 101.807 597.401 101.156C597.891 100.506 598.103 99.6877 597.991 98.8812Z" fill="#4DD0E1"/>
<path d="M588.371 97.3426C588.303 97.4922 588.188 97.6159 588.044 97.6954C587.9 97.7748 587.734 97.8059 587.571 97.784C587.458 97.7688 584.808 97.3926 583.786 95.5394C582.765 93.6863 583.861 91.2444 583.908 91.1412C583.977 90.9916 584.092 90.868 584.236 90.7885C584.38 90.7091 584.546 90.678 584.709 90.6999C584.821 90.715 587.472 91.0913 588.493 92.9445C589.207 94.24 588.94 96.1014 588.371 97.3426ZM587.181 96.1309C587.786 94.0745 587.162 92.9397 585.098 92.353C584.493 94.4089 585.117 95.5443 587.181 96.1309Z" fill="#4DD0E1"/>
<path d="M590.522 107.118C590.042 109.225 587.598 110.36 587.494 110.407C587.341 110.477 587.169 110.494 587.005 110.457C586.841 110.42 586.694 110.329 586.586 110.2C586.513 110.113 584.802 108.03 585.282 105.923C585.762 103.816 588.207 102.681 588.31 102.634C588.464 102.564 588.635 102.547 588.799 102.584C588.963 102.621 589.11 102.712 589.218 102.841C590.119 103.922 590.854 105.664 590.522 107.118ZM587.405 108.701C589.275 107.493 589.519 106.161 588.397 104.341C586.566 105.526 586.267 106.84 587.405 108.701L587.405 108.701Z" fill="#4DD0E1"/>
<path d="M583.129 111.173C582.832 110.379 581.947 109.975 581.153 110.272C580.358 110.569 579.955 111.454 580.252 112.249C580.549 113.043 581.434 113.446 582.228 113.149C583.023 112.852 583.426 111.967 583.129 111.173Z" fill="#E0F7FA"/>
<path d="M583.492 107.759C583.343 107.361 582.901 107.16 582.503 107.308C582.106 107.457 581.905 107.899 582.053 108.296C582.202 108.694 582.644 108.895 583.041 108.747C583.438 108.598 583.64 108.156 583.492 107.759Z" fill="#E0F7FA"/>
<path d="M586.854 70.0233C586.557 69.2289 585.672 68.8257 584.878 69.1227C584.084 69.4197 583.68 70.3045 583.977 71.0989C584.274 71.8933 585.159 72.2965 585.954 71.9995C586.748 71.7025 587.151 70.8177 586.854 70.0233Z" fill="#F29C9C"/>
<path d="M589.368 72.3623C589.22 71.9651 588.777 71.7635 588.38 71.912C587.983 72.0606 587.781 72.5029 587.93 72.9001C588.078 73.2973 588.521 73.4989 588.918 73.3504C589.315 73.2019 589.517 72.7595 589.368 72.3623Z" fill="#F29C9C"/>
<path d="M571.795 76.8834C571.498 76.089 570.613 75.6858 569.819 75.9828C569.024 76.2798 568.621 77.1646 568.918 77.959C569.215 78.7534 570.1 79.1566 570.894 78.8595C571.689 78.5625 572.092 77.6778 571.795 76.8834Z" fill="#FFE7A4"/>
<path d="M569.014 70.4834L568.389 72.8687C571.074 74.3383 573.256 77.1567 574.152 80.7002L574.997 80.9477C575.135 80.9881 575.281 80.989 575.42 80.9502C575.558 80.9114 575.683 80.8346 575.78 80.7285C575.877 80.6223 575.942 80.4911 575.968 80.3498C575.994 80.2084 575.98 80.0626 575.927 79.929L574.671 76.7458L576.59 73.936C576.671 73.8178 576.716 73.6794 576.723 73.5365C576.729 73.3937 576.695 73.2519 576.625 73.1272C576.555 73.0025 576.451 72.8999 576.326 72.8308C576.201 72.7617 576.059 72.7289 575.916 72.7361L572.48 72.9155L570.362 70.2049C570.273 70.0923 570.155 70.0067 570.021 69.9575C569.887 69.9083 569.741 69.8976 569.601 69.9265C569.461 69.9555 569.332 70.0229 569.228 70.1213C569.125 70.2197 569.05 70.3451 569.014 70.4834Z" fill="#FFC400"/>
<path d="M578.7 77.9289L579.082 79.635C580.305 79.4657 581.549 79.6936 582.633 80.2853C583.716 80.8769 584.581 81.8008 585.099 82.921L585.749 82.803C585.889 82.7774 586.019 82.7133 586.125 82.618C586.231 82.5226 586.308 82.3997 586.348 82.263C586.388 82.1263 586.389 81.9812 586.351 81.8438C586.314 81.7065 586.238 81.5823 586.134 81.4852L584.484 79.9517C584.699 77.6954 584.791 77.6585 584.68 77.3619C584.64 77.2566 584.578 77.1613 584.498 77.0826C584.418 77.0039 584.321 76.9438 584.215 76.9065C584.109 76.8691 583.997 76.8555 583.885 76.8666C583.773 76.8777 583.665 76.9132 583.568 76.9706L581.745 78.0535L579.794 77.0751C579.664 77.0102 579.518 76.9834 579.374 76.9979C579.229 77.0124 579.092 77.0675 578.978 77.1568C578.863 77.2461 578.776 77.3661 578.727 77.5027C578.678 77.6394 578.669 77.7871 578.7 77.9289Z" fill="#FFC400"/>
</g>
<g clip-path="url(#clip3)">
<path d="M632.47 295.934L625.98 292.209C623.605 290.354 623.184 286.925 625.039 284.55C625.263 284.263 625.51 284.005 625.776 283.776C626.509 283.142 627.593 283.13 628.357 283.727L638.97 292.019L632.47 295.934Z" fill="#DEDEDC"/>
<path d="M625.98 292.209C628.354 294.064 631.784 293.643 633.639 291.269L659.708 257.902C661.563 255.528 664.992 255.106 667.367 256.962L688.49 280.389L662.421 313.756C660.566 316.131 657.137 316.552 654.762 314.696L625.98 292.209Z" fill="#ECECEC"/>
<path d="M667.367 256.962L666.831 257.647L667.981 258.796L668.955 258.43L667.868 257.376L667.499 257.065L667.367 256.962Z" fill="#ECECEC"/>
<path d="M691.669 283.062C690.767 284.155 689.153 284.322 688.036 283.45L668.708 268.349C667.556 267.449 667.383 265.791 668.289 264.644C668.295 264.636 668.301 264.629 668.307 264.621C670.162 262.246 669.741 258.817 667.367 256.962L690.745 275.227C693.139 277.097 693.62 280.627 691.72 282.999C691.703 283.02 691.686 283.041 691.669 283.062Z" fill="#DEDEDC"/>
<path d="M665.77 309.469C664.346 306.672 663.38 303.472 662.962 300.07C662.116 293.18 663.713 286.434 667.235 282.025L668.959 279.867L671.153 281.544C671.199 281.579 671.291 281.65 671.291 281.65C674.587 284.226 677.169 288.298 678.611 293.034L665.77 309.469L665.77 309.469Z" fill="#DEDEDC"/>
<path d="M671.307 312.582C668.492 309.541 666.408 304.985 665.762 299.726C664.98 293.352 666.497 287.47 669.44 283.785C673.186 286.649 676.081 291.989 676.864 298.363C677.51 303.622 676.59 308.547 674.595 312.179C673.927 313.393 672.248 313.599 671.307 312.582Z" fill="#FCC49D"/>
<path d="M643.478 293.389C643.846 293.677 643.911 294.209 643.623 294.577C643.282 295.015 643.36 295.648 643.797 295.99C644.234 296.332 644.868 296.254 645.21 295.817C645.497 295.448 646.029 295.383 646.398 295.671C646.766 295.958 646.831 296.49 646.544 296.859C645.627 298.031 643.928 298.24 642.755 297.324C641.582 296.408 641.373 294.708 642.29 293.535C642.577 293.167 643.109 293.101 643.478 293.389Z" fill="black"/>
<path d="M656.674 304.774C656.333 305.211 656.411 305.845 656.848 306.186C657.285 306.528 657.919 306.45 658.261 306.013C658.548 305.645 659.08 305.579 659.449 305.867C659.817 306.155 659.882 306.687 659.595 307.055C658.678 308.228 656.979 308.437 655.806 307.52C654.633 306.604 654.424 304.904 655.341 303.732C655.628 303.363 656.16 303.298 656.529 303.586C656.897 303.874 656.962 304.405 656.674 304.774Z" fill="black"/>
<path d="M654.669 299.753C654.694 300.22 654.336 300.619 653.869 300.644C653.403 300.669 653.004 300.311 652.979 299.844C652.921 298.775 651.937 298.007 650.887 298.209C650.428 298.298 649.984 297.998 649.895 297.539C649.807 297.08 650.107 296.636 650.566 296.547C652.625 296.15 654.557 297.661 654.669 299.753Z" fill="black"/>
<path d="M666.065 273.529C666.434 273.817 666.499 274.349 666.211 274.717C665.923 275.086 665.392 275.151 665.023 274.863L660.632 271.432C660.264 271.145 660.198 270.613 660.486 270.244C660.774 269.876 661.306 269.811 661.674 270.098L666.065 273.529Z" fill="black"/>
<path d="M670.686 313.156C669.466 311.839 668.409 310.296 667.535 308.585L663.089 314.276C660.949 317.015 656.98 317.502 654.242 315.363L625.461 292.876C622.343 290.44 622.212 285.738 625.224 283.136C626.257 282.244 627.794 282.212 628.88 283.061L635.151 287.961L650.037 268.908C650.325 268.54 650.857 268.474 651.225 268.762C651.593 269.05 651.659 269.582 651.371 269.95C632.528 294.107 634.039 292.13 633.746 292.415C632.679 293.46 631.305 294.062 629.886 294.186L655.284 314.029C657.287 315.594 660.19 315.237 661.755 313.234L666.739 306.855C665.746 304.448 665.138 301.887 664.87 299.36L648.69 286.718C648.321 286.43 648.256 285.898 648.544 285.53C648.832 285.161 649.364 285.096 649.732 285.384L664.723 297.096C664.688 295.634 664.768 294.196 664.961 292.81L651.902 282.607C651.533 282.319 651.468 281.787 651.756 281.419C652.044 281.05 652.576 280.985 652.944 281.273L665.299 290.925C665.574 289.674 665.926 288.517 666.419 287.328L655.114 278.496C654.745 278.208 654.68 277.676 654.968 277.308C655.255 276.939 655.787 276.874 656.156 277.162L667.154 285.755C667.572 284.965 668.041 284.225 668.558 283.544L668.005 279.046C667.913 278.295 668.778 277.816 669.366 278.276C669.537 278.409 669.657 278.608 669.685 278.84L670.238 283.336C673.488 285.953 675.67 289.952 676.825 293.945L685.645 282.656L668.188 269.017C666.656 267.821 666.436 265.626 667.622 264.124L667.625 264.121C669.248 261.977 668.792 259.151 666.846 257.63C664.843 256.065 661.94 256.422 660.375 258.425L653.455 267.282C653.167 267.65 652.635 267.716 652.267 267.428C651.899 267.14 651.833 266.608 652.121 266.24L659.041 257.382C661.181 254.644 665.149 254.157 667.887 256.296L667.888 256.296L691.265 274.56C692.608 275.609 693.492 277.189 693.691 278.895C693.887 280.582 693.422 282.227 692.38 283.528C691.108 285.116 688.969 285.254 687.515 284.117L686.979 283.698L677.339 296.036C677.84 298.475 678.013 300.967 677.86 303.378C677.83 303.845 677.428 304.199 676.961 304.169C676.495 304.139 676.141 303.737 676.17 303.271C676.561 297.146 674.664 290.246 670.556 285.929L672.894 304.972C672.951 305.436 672.621 305.858 672.157 305.915C671.693 305.972 671.271 305.642 671.214 305.178L668.875 286.133C664.597 293.653 666.044 305.649 671.928 312.007C672.477 312.6 673.463 312.481 673.853 311.771C674.705 310.219 675.341 308.444 675.742 306.497C675.836 306.039 676.284 305.744 676.742 305.839C677.2 305.933 677.494 306.381 677.4 306.838C676.965 308.952 676.271 310.885 675.337 312.586C674.39 314.309 672.021 314.599 670.686 313.156ZM627.837 284.394C627.387 284.042 626.753 284.052 626.331 284.417C624.153 286.298 624.209 289.705 626.458 291.506L627.689 292.213C629.562 292.932 631.729 292.341 632.974 290.748L634.109 289.294L627.837 284.394ZM691.015 282.524C691.023 282.515 691.066 282.461 691.059 282.47C692.672 280.457 692.234 277.466 690.223 275.894L670.231 260.275C670.499 261.973 670.106 263.656 668.953 265.17C668.338 265.948 668.447 267.072 669.23 267.683L688.556 282.783C689.309 283.371 690.412 283.255 691.015 282.524Z" fill="black"/>
</g>
<g clip-path="url(#clip4)">
<path d="M123.011 92.4617L136.426 97.3063C141.498 100.003 143.423 106.3 140.727 111.372C140.401 111.984 140.023 112.551 139.601 113.069C138.434 114.5 136.403 114.882 134.772 114.015L112.105 101.962L123.011 92.4617Z" fill="#DEDEDC"/>
<path d="M136.426 97.3063C131.355 94.6098 125.057 96.5349 122.361 101.607L84.4708 172.867C81.7743 177.939 75.4769 179.864 70.4053 177.167L23.0001 140.183L60.8901 68.9221C63.5866 63.8506 69.884 61.9251 74.9556 64.6218L136.426 97.3063Z" fill="#ECECEC"/>
<path d="M70.4052 177.167L71.1836 175.704L68.6449 173.928L66.9368 174.937L69.3264 176.556L70.1228 177.017L70.4052 177.167Z" fill="#ECECEC"/>
<path d="M16.1483 136.219C17.4802 133.868 20.4537 133.02 22.8393 134.288L64.1177 156.236C66.5784 157.545 67.4527 160.599 66.1314 163.053C66.1224 163.069 66.1138 163.085 66.105 163.102C63.4084 168.173 65.3336 174.471 70.4052 177.168L20.4769 150.62C15.364 147.902 13.2927 141.434 16.0728 136.354C16.0977 136.309 16.123 136.264 16.1483 136.219Z" fill="#DEDEDC"/>
<path d="M56.0225 78.077C59.6228 82.856 62.4946 88.5437 64.405 94.7918C68.2733 107.444 67.5077 120.636 62.3568 130.078L59.8359 134.7L55.1619 132.278C55.0642 132.227 54.8677 132.123 54.8671 132.123C47.8275 128.38 41.6338 121.591 37.3593 113.177L56.0224 78.0769L56.0225 78.077Z" fill="#DEDEDC"/>
<path d="M44.5998 74.0658C50.8889 78.8427 56.3093 86.7048 59.2625 96.3638C62.8411 108.069 61.94 119.613 57.636 127.503C49.6553 123.368 42.4532 114.302 38.8747 102.597C35.9217 92.938 36.019 83.3889 38.5617 75.9118C39.412 73.4115 42.4964 72.4685 44.5998 74.0658Z" fill="#FCC49D"/>
<path d="M103.191 100.883C102.404 100.464 102.105 99.4876 102.524 98.701C103.02 97.7669 102.664 96.603 101.73 96.1064C100.796 95.6098 99.6324 95.9656 99.1357 96.8996C98.7176 97.6861 97.7406 97.9849 96.9539 97.5667C96.1673 97.1484 95.8686 96.1715 96.2869 95.3849C97.6187 92.8802 100.74 91.9259 103.245 93.2577C105.749 94.5894 106.704 97.7108 105.372 100.216C104.954 101.002 103.977 101.301 103.191 100.883Z" fill="black"/>
<path d="M74.6506 83.8807C75.1472 82.9467 74.7914 81.7828 73.8576 81.2862C72.9235 80.7896 71.7596 81.1455 71.263 82.0795C70.8448 82.866 69.8678 83.1648 69.0812 82.7465C68.2945 82.3283 67.9959 81.3514 68.4141 80.5647C69.7459 78.0601 72.8673 77.1057 75.372 78.4375C77.8767 79.7693 78.8308 82.8906 77.499 85.3953C77.0809 86.1817 76.1039 86.4806 75.3173 86.0623C74.5306 85.644 74.2324 84.6672 74.6506 83.8807Z" fill="black"/>
<path d="M80.0764 92.6409C79.8749 91.7732 80.4151 90.9062 81.283 90.7048C82.151 90.5032 83.0178 91.0435 83.2194 91.9115C83.6808 93.8985 85.7837 95.0146 87.6869 94.2869C88.5192 93.9687 89.4517 94.3853 89.7701 95.2174C90.0882 96.0495 89.6717 96.9823 88.8396 97.3004C85.1061 98.7278 80.9796 96.5303 80.0764 92.6409Z" fill="black"/>
<path d="M67.3643 145.638C66.5777 145.22 66.279 144.243 66.6973 143.456C67.1156 142.67 68.0924 142.371 68.8791 142.789L78.2572 147.776C79.0439 148.194 79.3426 149.171 78.9243 149.957C78.5061 150.744 77.5291 151.043 76.7425 150.624L67.3643 145.638Z" fill="black"/>
<path d="M45.5754 72.7828C48.3011 74.853 50.7967 77.3986 53.0021 80.3218L59.4652 68.1664C62.575 62.3178 69.8633 60.0895 75.7118 63.1992L137.18 95.8822C143.839 99.4229 145.64 108.206 140.847 114.087C139.205 116.103 136.33 116.672 134.011 115.439L120.616 108.317L98.9808 149.007C98.5625 149.794 97.5857 150.093 96.799 149.674C96.0124 149.256 95.7137 148.279 96.132 147.493C123.506 95.911 121.325 100.122 121.78 99.4895C123.438 97.1755 125.816 95.5908 128.439 94.8887L74.1966 66.0475C69.9188 63.773 64.5879 65.4028 62.3134 69.6806L55.0691 83.3052C57.7302 87.494 59.7185 92.0999 61.0581 96.7563L95.6149 115.131C96.4016 115.549 96.7002 116.526 96.282 117.312C95.8637 118.099 94.8868 118.398 94.1002 117.979L62.0832 100.956C62.6339 103.69 62.9592 106.415 63.0565 109.081L90.9465 123.911C91.7331 124.329 92.0318 125.306 91.6135 126.092C91.1952 126.879 90.2184 127.178 89.4317 126.759L63.0455 112.73C62.9424 115.17 62.6642 117.458 62.1341 119.853L86.2781 132.691C87.0648 133.109 87.3634 134.086 86.9452 134.872C86.5269 135.659 85.55 135.958 84.7634 135.539L61.2735 123.05C60.7514 124.671 60.116 126.214 59.3713 127.664L61.8968 135.924C62.3182 137.303 60.8542 138.489 59.5967 137.821C59.2322 137.627 58.9415 137.294 58.8113 136.868L56.2869 128.611C49.3196 124.774 43.8991 117.99 40.4096 110.877L27.5903 134.986L64.8738 154.81C68.1447 156.549 69.2844 160.595 67.5546 163.808L67.5506 163.815C65.2135 168.377 67.005 173.531 71.1613 175.741C75.4391 178.015 80.7698 176.386 83.0444 172.108L93.1027 153.191C93.5209 152.404 94.4978 152.105 95.2845 152.524C96.0711 152.942 96.3698 153.919 95.9515 154.706L85.8933 173.622C82.7838 179.47 75.4969 181.699 69.6487 178.59L69.6468 178.589L19.7207 152.043C16.8535 150.519 14.671 147.846 13.7331 144.71C12.8051 141.608 13.1339 138.366 14.6589 135.579C16.5222 132.176 20.4904 131.211 23.5976 132.863L24.7418 133.472L38.7526 107.121C37.0057 102.71 35.8552 98.0889 35.3458 93.5118C35.2473 92.6263 35.8851 91.8285 36.7704 91.7301C37.6562 91.6315 38.4537 92.2695 38.5523 93.1548C39.8465 104.78 45.6917 117.105 54.8314 123.848L44.1398 88.8774C43.8793 88.0254 44.3588 87.1236 45.2108 86.8631C46.0629 86.6026 46.9646 87.0821 47.2251 87.9342L57.9179 122.909C63.4599 107.378 56.7724 85.3386 43.6237 75.3518C42.3981 74.4207 40.586 74.9708 40.0891 76.4326C39.0024 79.6279 38.3966 83.169 38.2882 86.9571C38.2629 87.8477 37.5202 88.5491 36.6297 88.5236C35.7392 88.4981 35.0378 87.7554 35.0632 86.8651C35.1807 82.7542 35.8437 78.8948 37.0343 75.3937C38.2411 71.8462 42.592 70.5168 45.5754 72.7828ZM135.526 112.59C136.488 113.102 137.674 112.874 138.346 112.049C141.811 107.797 140.579 101.421 135.762 98.7834L133.217 97.8642C129.463 97.1358 125.591 98.962 123.782 102.364L122.131 105.468L135.526 112.59ZM17.5533 137.013C17.5427 137.032 17.4787 137.147 17.4893 137.128C15.1287 141.441 16.9394 146.91 21.2355 149.194L63.9322 171.896C62.8676 168.797 63.0465 165.508 64.7102 162.285C65.6065 160.621 65.0319 158.548 63.3597 157.658L22.0832 135.711C20.4758 134.857 18.4438 135.441 17.5533 137.013Z" fill="black"/>
</g>
<g clip-path="url(#clip5)">
<path d="M540.809 183.763L481.243 186.364C479.927 186.421 478.814 185.401 478.756 184.085L477.456 154.302L541.788 151.493L543.088 181.276C543.145 182.592 542.125 183.706 540.809 183.763Z" fill="#DEDEDE"/>
<path d="M493.822 146.426L494.134 153.574L541.788 151.493L541.371 141.963L491.812 144.126L493.822 146.426Z" fill="#666666"/>
<path d="M515.578 152.638L506.048 153.054L512.78 143.211L522.31 142.795L515.578 152.638Z" fill="#DEDEDE"/>
<path d="M534.64 151.805L525.109 152.222L531.841 142.379L541.371 141.963L534.64 151.805Z" fill="#DEDEDE"/>
<path d="M493.718 144.043L492.85 145.313L493.822 146.426L494.134 153.574L496.517 153.47L503.249 143.627L493.718 144.043Z" fill="#DEDEDE"/>
<path d="M492.85 145.313L491.812 144.126L489.958 142.005L489.328 141.286L483.772 134.929L481.176 135.042L476.624 135.241L477.04 144.771L477.456 154.302L486.987 153.886L494.134 153.574L493.822 146.426L492.85 145.313Z" fill="#666666"/>
<path d="M480.77 148.189L483.153 148.085L483.257 150.468L480.874 150.572L480.77 148.189Z" fill="#DEDEDE"/>
<path d="M480.354 138.659L482.736 138.555L482.84 140.937L480.458 141.041L480.354 138.659Z" fill="#DEDEDE"/>
<path d="M487.918 147.877L490.3 147.773L490.404 150.156L488.022 150.26L487.918 147.877Z" fill="#DEDEDE"/>
<path d="M483.777 162.381L536.195 160.093L536.299 162.475L483.881 164.764L483.777 162.381Z" fill="#C7C7C7"/>
<path d="M536.611 169.623L484.193 171.912L484.297 174.295L499.784 173.618L500.096 180.766L502.479 180.662L502.167 173.514L518.845 172.786L519.157 179.934L521.54 179.83L521.228 172.682L536.715 172.006L536.611 169.623Z" fill="#C7C7C7"/>
<path d="M489.958 142.005L540.572 123.656L537.321 114.687L481.176 135.042L483.772 134.929L489.958 142.005Z" fill="#DEDEDE"/>
<path d="M515.909 132.597L506.94 135.849L510.416 124.441L519.383 121.19L515.909 132.597Z" fill="#666666"/>
<path d="M533.845 126.094L524.878 129.346L528.352 117.938L537.321 114.687L533.845 126.094Z" fill="#666666"/>
<path d="M489.958 142.005L497.971 139.1L501.447 127.693L492.478 130.944L489.328 141.286L489.958 142.005Z" fill="#666666"/>
<path d="M477.456 154.302L541.788 151.493L541.944 155.067L477.612 157.876L477.456 154.302Z" fill="#C7C7C7"/>
<path d="M507.163 137.036L507.347 136.969L507.619 136.872L522.189 131.588L525.28 130.467L529.855 128.808L540.979 124.777C541.598 124.552 541.918 123.868 541.693 123.249L541.693 123.249L538.442 114.28C538.434 114.259 538.416 114.245 538.407 114.224C538.363 114.121 538.305 114.025 538.233 113.938C538.211 113.91 538.193 113.88 538.168 113.855C538.16 113.844 538.151 113.833 538.141 113.823C538.054 113.74 537.954 113.672 537.846 113.621C537.818 113.606 537.787 113.601 537.757 113.589C537.658 113.549 537.554 113.523 537.448 113.51C537.408 113.506 537.37 113.503 537.329 113.502C537.187 113.498 537.046 113.52 536.912 113.566L504.078 125.47L501.04 126.572L495.823 128.463L480.941 133.859L476.572 134.05C475.914 134.078 475.404 134.635 475.432 135.293L477.565 184.137C477.651 186.111 479.321 187.641 481.295 187.555L540.861 184.954C542.835 184.868 544.365 183.198 544.279 181.224L542.563 141.911C542.562 141.888 542.549 141.87 542.547 141.847C542.536 141.734 542.508 141.623 542.466 141.517C542.455 141.486 542.443 141.455 542.429 141.425C542.429 141.412 542.421 141.396 542.414 141.384C542.354 141.279 542.279 141.183 542.19 141.101C542.17 141.082 542.145 141.068 542.124 141.05C542.039 140.981 541.944 140.923 541.843 140.879C541.807 140.864 541.773 140.848 541.735 140.837C541.602 140.79 541.461 140.768 541.319 140.771L492.333 142.91L492.003 142.533L507.163 137.036ZM535.491 116.622L532.88 125.176L528.969 126.594L526.714 127.408L529.324 118.853L531.204 118.174L535.491 116.622ZM490.846 140.414L493.456 131.859L499.621 129.624L497.011 138.177L493.213 139.556L490.846 140.414ZM526.516 119.873L523.905 128.428L517.74 130.663L520.351 122.107L521.109 121.835L526.516 119.873ZM514.941 131.678L508.777 133.913L511.388 125.36L517.552 123.125L514.941 131.678ZM505.973 134.935L499.808 137.17L502.418 128.615L508.583 126.376L505.973 134.935ZM488.813 138.886L485.268 134.828L490.642 132.879L488.813 138.886ZM535.681 124.164L537.419 118.46L539.047 122.945L535.681 124.164ZM477.867 136.38L483.252 136.145L489.06 142.79L490.912 144.907L491.792 145.917L491.944 146.09L492.642 146.888L492.884 152.435L478.595 153.059L477.867 136.38ZM541.897 181.328C541.925 181.986 541.415 182.543 540.757 182.572L481.191 185.173C480.533 185.201 479.977 184.691 479.948 184.033L478.699 155.441L540.648 152.737L541.897 181.328ZM540.544 150.354L536.97 150.51L540.336 145.589L540.544 150.354ZM533.992 150.64L527.44 150.926L532.489 143.544L539.041 143.258L533.992 150.64ZM524.461 151.056L517.909 151.342L522.958 143.96L529.51 143.674L524.461 151.056ZM514.931 151.472L508.379 151.758L513.427 144.376L519.98 144.09L514.931 151.472ZM505.4 151.888L498.848 152.175L503.897 144.792L510.449 144.506L505.4 151.888ZM495.87 152.305L495.274 152.331L495.014 146.374C495.002 146.103 494.899 145.845 494.72 145.641L494.356 145.225L500.919 144.923L495.87 152.305Z" fill="black"/>
<path d="M480.77 148.189L483.153 148.085L483.257 150.468L480.874 150.572L480.77 148.189Z" fill="black"/>
<path d="M480.354 138.659L482.736 138.555L482.84 140.937L480.458 141.041L480.354 138.659Z" fill="black"/>
<path d="M487.918 147.877L490.3 147.773L490.404 150.156L488.022 150.26L487.918 147.877Z" fill="black"/>
<path d="M483.777 162.381L536.195 160.093L536.299 162.475L483.881 164.764L483.777 162.381Z" fill="black"/>
<path d="M484.297 174.295L499.784 173.618L500.096 180.766L502.479 180.662L502.167 173.514L518.845 172.786L519.157 179.934L521.54 179.83L521.228 172.682L536.715 172.006L536.611 169.623L484.193 171.912L484.297 174.295Z" fill="black"/>
</g>
<defs>
<clipPath id="clip0">
<rect width="83.3433" height="83.3433" fill="white" transform="translate(351.768) rotate(28.5)"/>
</clipPath>
<clipPath id="clip1">
<rect width="87" height="87" fill="white" transform="translate(313.183 175.916) rotate(55)"/>
</clipPath>
<clipPath id="clip2">
<rect width="49.1402" height="49.1402" fill="white" transform="translate(580.337 118.365) rotate(-110.5)"/>
</clipPath>
<clipPath id="clip3">
<rect width="57.7794" height="57.7794" fill="white" transform="matrix(0.788011 0.615661 0.615661 -0.788011 619.621 290.111)"/>
</clipPath>
<clipPath id="clip4">
<rect width="110.131" height="110.131" fill="white" transform="matrix(-0.882948 -0.469472 -0.469472 0.882948 149.058 99.1395)"/>
</clipPath>
<clipPath id="clip5">
<rect width="71.5414" height="71.5414" fill="white" transform="translate(472.221 116.342) rotate(-2.5)"/>
</clipPath>
</defs>
</svg>
