<svg width="665" height="213" viewBox="0 0 665 213" fill="none" xmlns="http://www.w3.org/2000/svg">
<g clip-path="url(#clip0)">
<path fill-rule="evenodd" clip-rule="evenodd" d="M411.824 111.099L449.545 146.275C450.492 147.158 450.543 148.641 449.66 149.588L421.014 180.308C420.131 181.255 418.647 181.307 417.7 180.424L379.979 145.248C379.032 144.365 378.981 142.882 379.864 141.935L408.51 111.215C409.393 110.268 410.877 110.216 411.824 111.099ZM385.889 144.54L389.326 147.745L392.179 144.685L388.742 141.48L385.889 144.54ZM408.676 120.104L412.113 123.309L414.966 120.249L411.529 117.044L408.676 120.104ZM393.056 151.223L396.493 154.428L399.347 151.369L395.91 148.164L393.056 151.223ZM415.843 126.788L419.28 129.993L422.133 126.933L418.696 123.728L415.843 126.788ZM400.224 157.907L403.661 161.112L406.514 158.052L403.077 154.847L400.224 157.907ZM423.01 133.471L426.447 136.676L429.3 133.616L425.863 130.411L423.01 133.471ZM407.391 164.59L410.828 167.795L413.681 164.736L410.244 161.531L407.391 164.59ZM430.177 140.155L433.614 143.36L436.468 140.3L433.031 137.095L430.177 140.155ZM414.558 171.274L417.995 174.479L420.848 171.419L417.411 168.214L414.558 171.274ZM437.345 146.838L440.782 150.043L443.635 146.984L440.198 143.778L437.345 146.838ZM415.877 136.466L420.719 149.462C420.92 150 420.799 150.606 420.407 151.026C420.015 151.446 419.42 151.609 418.869 151.447L405.567 147.523C404.489 147.206 404.117 145.859 404.886 145.033L413.346 135.961C414.112 135.14 415.483 135.408 415.877 136.466Z" fill="black"/>
</g>
<g clip-path="url(#clip1)">
<path d="M146.08 157.233L123.134 169.691C120.108 171.334 118.976 175.155 120.619 178.181L130.688 196.725C132.331 199.751 136.151 200.883 139.178 199.24L162.123 186.781C165.15 185.138 166.281 181.317 164.638 178.291L154.57 159.748C152.897 156.666 149.106 155.59 146.08 157.233Z" fill="black"/>
<path d="M165.496 150.61C165.196 150.844 164.955 151.188 164.77 151.503L158.875 161.116L165.806 173.881L177.134 174.143C179.237 174.212 180.919 172.586 180.988 170.483C180.995 169.838 180.861 169.198 180.532 168.593L171.301 151.59C170.195 149.554 167.373 148.949 165.496 150.61Z" fill="black"/>
</g>
<g clip-path="url(#clip2)">
<path d="M290.705 43.6252L246.852 40.5586C241.068 40.1542 236.004 44.5557 235.6 50.3397L233.122 85.7803C232.717 91.5643 237.119 96.6276 242.903 97.0321L286.756 100.099C292.54 100.503 297.604 96.1016 298.008 90.3176L300.487 54.877C300.898 48.9878 296.489 44.0296 290.705 43.6252Z" fill="black"/>
<path d="M324.269 51.7849C323.631 51.8459 322.978 52.1173 322.43 52.396L305.362 60.7136L303.656 85.1119L319.505 95.7312C322.43 97.7323 326.29 96.9454 328.291 94.0206C328.883 93.1109 329.272 92.0813 329.352 90.9245L331.625 58.4286C331.897 54.5375 328.437 51.1252 324.269 51.7849Z" fill="black"/>
</g>
<g clip-path="url(#clip3)">
<path d="M102.128 73.5882C100.632 69.0038 95.8818 65.4611 85.7329 61.3607L48.8928 46.4763C38.5117 42.282 32.5073 41.5843 28.168 44.0685C23.9373 46.4907 21.823 51.7238 18.8968 58.9665L13.3193 72.7712C7.6502 86.8027 8.08894 95.2671 26.2203 102.593L63.0607 117.477C71.8617 121.033 77.2361 121.772 81.6111 120.027C86.0977 118.238 89.5208 113.74 93.0571 104.987L98.6346 91.1827C101.721 83.5446 103.631 78.1932 102.128 73.5882ZM66.53 88.4576L46.2685 90.4418C45.8155 90.4862 45.3674 90.4179 44.9589 90.2529C44.4964 90.066 44.0853 89.7551 43.7765 89.3425C43.1954 88.5652 43.0624 87.5412 43.426 86.6414L50.4682 69.2113C50.8311 68.3131 51.6365 67.669 52.593 67.5127C53.5499 67.3566 54.5183 67.7108 55.1481 68.4469L68.3674 83.8927C69.04 84.6785 69.2195 85.7731 68.8335 86.7322C68.4469 87.6921 67.5592 88.357 66.53 88.4576Z" fill="black"/>
</g>
<g clip-path="url(#clip4)">
<path d="M542.828 86.6975C545.796 92.1477 552.638 95.5165 566.442 98.3249L616.549 108.519C630.669 111.392 638.43 110.867 643.338 106.706C648.124 102.649 649.572 95.5308 651.576 85.6797L655.396 66.9036C659.279 47.8189 656.739 37.2112 632.078 32.1939L581.97 21.9993C570 19.5639 563.026 19.8895 557.899 23.1233C552.641 26.4394 549.365 32.9337 546.942 44.8385L543.122 63.6146C541.009 74.0034 539.846 81.2229 542.828 86.6975ZM584.386 59.5336L609.559 52.2711C610.122 52.1087 610.705 52.0899 611.26 52.203C611.889 52.3309 612.483 52.628 612.97 53.0776C613.888 53.9249 614.296 55.1895 614.047 56.4133L609.224 80.1205C608.975 81.3422 608.107 82.346 606.933 82.7681C605.759 83.1901 604.451 82.9691 603.481 82.1853L583.131 65.7408C582.096 64.9043 581.612 63.5613 581.876 62.257C582.14 60.9518 583.107 59.9022 584.386 59.5336Z" fill="black"/>
</g>
<defs>
<clipPath id="clip0">
<rect width="56.2661" height="56.2661" fill="white" transform="translate(413.373 106) rotate(43)"/>
</clipPath>
<clipPath id="clip1">
<rect width="57.228" height="57.228" fill="white" transform="translate(112 162.307) rotate(-28.5)"/>
</clipPath>
<clipPath id="clip2">
<rect width="96.3553" height="96.3553" fill="white" transform="translate(237.721 20) rotate(4)"/>
</clipPath>
<clipPath id="clip3">
<rect width="86" height="86" fill="white" transform="translate(32.2162 26) rotate(22)"/>
</clipPath>
<clipPath id="clip4">
<rect width="110.676" height="110.676" fill="white" transform="translate(642.454 130.519) rotate(-168.5)"/>
</clipPath>
</defs>
</svg>
