<svg width="671" height="236" viewBox="0 0 671 236" fill="none" xmlns="http://www.w3.org/2000/svg">
<g clip-path="url(#clip0)">
<path fill-rule="evenodd" clip-rule="evenodd" d="M355.909 126.811L437.543 124.673C439.592 124.62 441.297 126.237 441.351 128.287L443.092 194.769C443.145 196.818 441.527 198.523 439.478 198.576L357.844 200.714C355.795 200.768 354.09 199.15 354.036 197.101L352.296 130.619C352.242 128.569 353.86 126.865 355.909 126.811ZM363.732 193.355L371.17 193.161L370.997 186.539L363.559 186.734L363.732 193.355ZM362.347 140.473L369.785 140.278L369.612 133.657L362.174 133.851L362.347 140.473ZM379.243 192.949L386.681 192.754L386.507 186.133L379.069 186.328L379.243 192.949ZM377.858 140.067L385.296 139.872L385.123 133.251L377.685 133.445L377.858 140.067ZM394.754 192.543L402.192 192.348L402.018 185.727L394.58 185.921L394.754 192.543ZM393.369 139.661L400.807 139.466L400.634 132.844L393.195 133.039L393.369 139.661ZM410.264 192.137L417.702 191.942L417.529 185.32L410.091 185.515L410.264 192.137ZM408.88 139.255L416.318 139.06L416.144 132.438L408.706 132.633L408.88 139.255ZM425.775 191.731L433.213 191.536L433.04 184.914L425.602 185.109L425.775 191.731ZM424.391 138.849L431.829 138.654L431.655 132.032L424.217 132.227L424.391 138.849ZM388.637 150.959L408.528 160.262C409.351 160.647 409.887 161.465 409.911 162.374C409.935 163.283 409.443 164.128 408.64 164.556L389.263 174.887C387.695 175.726 385.78 174.617 385.733 172.831L385.219 153.197C385.172 151.42 387.017 150.202 388.637 150.959Z" fill="black"/>
</g>
<g clip-path="url(#clip1)">
<path d="M543.705 47.6252L499.852 44.5586C494.068 44.1542 489.004 48.5557 488.6 54.3397L486.122 89.7803C485.717 95.5643 490.119 100.628 495.903 101.032L539.756 104.099C545.54 104.503 550.604 100.102 551.008 94.3176L553.487 58.877C553.898 52.9878 549.489 48.0296 543.705 47.6252Z" fill="black"/>
<path d="M577.269 55.7849C576.631 55.8459 575.978 56.1173 575.43 56.396L558.362 64.7136L556.656 89.1119L572.505 99.7312C575.43 101.732 579.289 100.945 581.291 98.0206C581.883 97.1109 582.272 96.0813 582.352 94.9245L584.625 62.4286C584.897 58.5375 581.437 55.1252 577.269 55.7849Z" fill="black"/>
</g>
<g clip-path="url(#clip2)">
<path d="M118.216 114.309L65.0646 84.2372C58.0543 80.271 49.0735 82.7616 45.1072 89.7719L20.8049 132.726C16.8387 139.736 19.3293 148.717 26.3396 152.683L79.4906 182.755C86.5009 186.721 95.4818 184.231 99.448 177.22L123.75 134.266C127.789 127.128 125.226 118.275 118.216 114.309Z" fill="black"/>
<path d="M155.419 144.612C154.582 144.307 153.601 144.257 152.747 144.278L126.373 144.5L109.643 174.071L123.164 196.864C125.634 201.122 130.944 202.444 135.202 199.973C136.489 199.187 137.592 198.129 138.385 196.726L160.668 157.341C163.337 152.625 161.039 146.277 155.419 144.612Z" fill="black"/>
</g>
<g clip-path="url(#clip3)">
<path d="M237.179 14.0089C231.477 15.1247 226.542 20.2855 220.148 31.8209L196.938 73.6941C190.397 85.4934 188.681 92.5719 191.015 98.1262C193.29 103.542 199.238 106.839 207.471 111.402L223.161 120.099C239.11 128.94 249.297 129.658 260.721 109.05L283.931 67.176C289.476 57.1727 291.149 50.8536 289.705 45.3651C288.224 39.7367 283.347 34.9823 273.399 29.4678L257.708 20.7704C249.027 15.9581 242.907 12.8874 237.179 14.0089ZM249.735 58.7656L249.133 83.2886C249.119 83.8369 248.972 84.3628 248.714 84.8271C248.423 85.3527 247.991 85.7988 247.452 86.1075C246.437 86.6884 245.193 86.697 244.17 86.1301L224.359 75.1484C223.338 74.5825 222.686 73.5248 222.639 72.3578C222.593 71.1906 223.159 70.0844 224.132 69.4393L244.545 55.8978C245.584 55.2088 246.919 55.1549 248.01 55.7574C249.101 56.3607 249.766 57.52 249.735 58.7656Z" fill="black"/>
</g>
<g clip-path="url(#clip4)">
<path d="M651.658 133.207C649.116 132.052 645.746 132.694 640.026 135.422L619.263 145.326C613.412 148.116 610.766 150.406 610.129 153.23C609.508 155.983 610.915 158.933 612.862 163.015L616.573 170.795C620.345 178.703 624.13 181.826 634.348 176.952L655.111 167.049C660.072 164.683 662.489 162.678 663.455 160.128C664.447 157.513 663.866 154.293 661.513 149.36L657.802 141.58C655.748 137.275 654.212 134.366 651.658 133.207ZM644.081 154.217L637.003 163.642C636.845 163.853 636.641 164.017 636.41 164.127C636.15 164.252 635.856 164.305 635.559 164.276C635 164.22 634.511 163.876 634.269 163.369L629.584 153.546C629.342 153.039 629.382 152.444 629.69 151.974C629.997 151.505 630.527 151.23 631.088 151.249L642.851 151.648C643.45 151.668 643.987 152.019 644.246 152.559C644.504 153.1 644.441 153.739 644.081 154.217Z" fill="black"/>
</g>
<defs>
<clipPath id="clip0">
<rect width="89.0858" height="89.0858" fill="white" transform="translate(352 119.332) rotate(-1.5)"/>
</clipPath>
<clipPath id="clip1">
<rect width="96.3553" height="96.3553" fill="white" transform="translate(490.721 24) rotate(4)"/>
</clipPath>
<clipPath id="clip2">
<rect width="133.852" height="133.852" fill="white" transform="translate(65.9119 53) rotate(29.5)"/>
</clipPath>
<clipPath id="clip3">
<rect width="103.624" height="103.624" fill="white" transform="translate(170 90.6313) rotate(-61)"/>
</clipPath>
<clipPath id="clip4">
<rect width="49.7899" height="49.7899" fill="white" transform="translate(604 144.435) rotate(-25.5)"/>
</clipPath>
</defs>
</svg>
